<?xml version="1.0" encoding="UTF-8" standalone="no"?>
<!-- Created with Inkscape (http://www.inkscape.org/) -->

<svg
   width="66.525169mm"
   height="42.685944mm"
   viewBox="0 0 66.525169 42.685944"
   version="1.1"
   id="svg5"
   inkscape:version="1.1.2 (76b9e6a115, 2022-02-25)"
   sodipodi:docname="dices.svg"
   xmlns:inkscape="http://www.inkscape.org/namespaces/inkscape"
   xmlns:sodipodi="http://sodipodi.sourceforge.net/DTD/sodipodi-0.dtd"
   xmlns="http://www.w3.org/2000/svg"
   xmlns:svg="http://www.w3.org/2000/svg">
  <sodipodi:namedview
     id="namedview7"
     pagecolor="#ffffff"
     bordercolor="#666666"
     borderopacity="1.0"
     inkscape:pageshadow="2"
     inkscape:pageopacity="0.0"
     inkscape:pagecheckerboard="0"
     inkscape:document-units="mm"
     showgrid="false"
     fit-margin-top="0"
     fit-margin-left="0"
     fit-margin-right="0"
     fit-margin-bottom="0"
     inkscape:zoom="1.5037598"
     inkscape:cx="72.15248"
     inkscape:cy="112.71747"
     inkscape:window-width="1848"
     inkscape:window-height="1016"
     inkscape:window-x="72"
     inkscape:window-y="27"
     inkscape:window-maximized="1"
     inkscape:current-layer="layer1" />
  <defs
     id="defs2" />
  <g
     inkscape:label="Layer 1"
     inkscape:groupmode="layer"
     id="layer1"
     transform="translate(-32.566362,-58.897746)">
    <path
       style="fill:#000000;stroke-width:0.264583"
       d="m 59.800871,101.39463 c -3.8689,-0.39593 -4.20052,-0.95684 -4.22181,-7.140963 l -0.0115,-3.34571 -4.167195,-0.12255 c -3.10352,-0.0913 -4.77499,-0.27375 -6.548432,-0.71493 -6.009806,-1.49504 -10.525859,-2.94928 -11.298651,-3.63835 -0.889685,-0.79329 -1.058459,-2.79989 -0.963442,-11.45462 0.06499,-5.919459 0.184926,-8.497399 0.413936,-8.897019 0.515094,-0.89884 11.391047,-6.79458 13.134709,-7.12019 1.36425,-0.25477 4.54791,0.26969 9.441645,1.55534 2.5397,0.66722 4.92999,1.27555 5.31175,1.35184 1.0423,0.2083 1.42695,1.41355 1.34528,4.21526 -0.0377,1.29251 0.005,2.58113 0.0945,2.86359 0.158,0.49782 0.1794,0.49878 0.6977,0.0312 0.48858,-0.44073 1.01716,-0.47503 6.1276,-0.39755 3.0761,0.0466 6.95798,0.19135 8.6264,0.32158 4.73186,0.36934 4.9198,0.65674 4.68802,7.168909 l -0.14721,4.13569 3.42274,-0.13882 c 2.19132,-0.0889 3.42274,-0.0439 3.42274,0.12496 0,0.27358 -2.9973,0.60601 -5.46387,0.60601 -1.12621,0 -1.41529,0.0872 -1.41529,0.42714 0,0.38528 0.52927,0.40879 5.4025,0.23994 2.97138,-0.10295 5.68005,-0.0868 6.01927,0.0359 0.41615,0.15051 -0.63113,0.2848 -3.21969,0.41285 -7.52683,0.37233 -8.46667,0.48251 -8.46667,0.99255 0,0.35382 1.90035,0.34679 7.82592,-0.0289 4.27012,-0.27076 7.03463,-0.18303 6.64086,0.21073 -0.0767,0.0767 -2.08312,0.24959 -4.45881,0.38429 -8.54553,0.48453 -10.42501,0.70086 -9.97745,1.14843 0.0653,0.0653 2.97241,0.0347 6.46025,-0.068 6.6812,-0.19669 9.38423,-0.1375 9.38423,0.20552 0,0.114 -2.11336,0.27998 -4.69635,0.36885 -6.93339,0.23853 -8.5864,0.35608 -9.39271,0.66791 -0.40018,0.15477 -0.7276,0.33362 -0.7276,0.39746 0,0.0638 3.57187,0.0919 7.9375,0.0623 4.36562,-0.0296 7.9375,0.0329 7.9375,0.13885 0,0.27824 -1.49949,0.41469 -8.33438,0.75838 -6.76555,0.3402 -8.33437,0.48686 -8.33437,0.77914 0,0.10923 3.69093,0.13942 8.20208,0.0671 5.43566,-0.0872 8.20208,-0.0413 8.20208,0.13586 0,0.37374 -1.57213,0.59303 -4.36562,0.60894 -1.88118,0.0107 -11.19177,0.63122 -11.77396,0.78468 -0.0728,0.0192 0.16537,0.15559 0.52917,0.30314 0.42834,0.17372 2.81958,0.20246 6.78519,0.0816 3.36806,-0.10269 6.82087,-0.0907 7.67292,0.0266 l 1.54918,0.21329 -1.19063,0.19793 c -0.65484,0.10886 -3.07055,0.20676 -5.36824,0.21754 -4.12047,0.0194 -8.7043,0.38844 -9.78391,0.78781 -0.30448,0.11264 2.76729,0.28891 6.82616,0.39171 4.05886,0.1028 7.43391,0.24106 7.50009,0.30725 0.35116,0.35115 -0.78046,0.43029 -7.15305,0.50027 -3.8335,0.0421 -7.32719,0.17697 -7.76375,0.29973 l -0.79375,0.22322 0.79375,0.17872 c 0.43656,0.0983 3.05593,0.20117 5.82083,0.22861 2.76489,0.0274 5.26521,0.15223 5.55625,0.2773 0.4344,0.18666 0.36333,0.23157 -0.39688,0.25074 -0.50932,0.0128 -3.25714,0.13657 -6.10628,0.27495 -7.38097,0.3585 -7.85283,0.75947 -0.9184,0.78045 4.18763,0.0127 5.46838,0.0914 5.23777,0.32202 -0.18061,0.18061 -1.86699,0.38995 -4.13004,0.51269 -2.10363,0.11409 -4.28204,0.28966 -4.8409,0.39014 -2.35991,0.42431 -1.60373,0.62831 2.35733,0.63596 2.59638,0.005 4.16719,0.10778 4.16719,0.27263 0,0.14552 -0.14883,0.26728 -0.33073,0.27059 -1.19214,0.0216 -7.0881,0.54651 -7.73906,0.68895 -0.70656,0.15461 -0.73562,0.1966 -0.26458,0.38223 0.29104,0.11469 1.45892,0.21691 2.5953,0.22713 1.13637,0.0102 2.00332,0.12023 1.92655,0.24445 -0.0768,0.12421 -1.12559,0.30804 -2.33072,0.40851 -1.20512,0.10046 -2.48879,0.25935 -2.85259,0.35308 l -0.66146,0.17042 0.66146,0.160613 c 0.90383,0.21944 0.83255,0.83751 -0.13229,1.14712 -1.0843,0.34794 -16.86168,0.45775 -19.97604,0.13903 z m 16.90372,-0.83629 c 0.49172,-0.24368 0.80384,-0.870583 1.40734,-2.826663 0.68112,-2.2077 2.14212,-7.53943 2.51451,-9.17638 0.0924,-0.40616 -0.11221,-0.81552 -0.68982,-1.38015 -0.45164,-0.4415 -0.82117,-0.9451 -0.82117,-1.11912 0,-0.17402 -0.32595,-0.86265 -0.72433,-1.53027 -0.63116,-1.05773 -0.73575,-1.1364 -0.81307,-0.61159 -0.0534,0.36217 0.3244,1.25875 0.94758,2.24895 1.39609,2.21837 1.70953,2.83731 1.43685,2.83731 -0.12645,0 -0.6831,-0.65801 -1.23699,-1.46225 -0.5539,-0.80423 -1.05746,-1.41186 -1.11903,-1.35029 -0.0616,0.0616 0.37935,1.08908 0.97982,2.28337 0.60048,1.19428 1.02769,2.2355 0.94938,2.31382 -0.20495,0.20495 -1.18044,-1.01617 -1.37284,-1.71851 -0.0897,-0.32742 -0.26826,-0.59531 -0.39683,-0.59531 -0.21636,0 0.40831,1.91222 0.8211,2.51354 0.37014,0.53919 0.49808,1.17811 0.26478,1.3223 -0.13225,0.0817 -0.40718,-0.16958 -0.61094,-0.55847 -0.23289,-0.44448 -0.43903,-0.59617 -0.55506,-0.40843 -0.10151,0.16426 0.11888,0.81645 0.48977,1.44932 0.72575,1.23841 0.60084,1.91917 -0.16866,0.91918 -0.60298,-0.7836 -0.62515,-0.14249 -0.0299,0.86516 0.46168,0.78156 0.266,1.4666 -0.21963,0.7689 -0.20868,-0.29981 -0.24358,-0.23727 -0.15193,0.27225 0.0654,0.3638 0.20708,0.87117 0.31476,1.12748 0.15436,0.36744 0.0991,0.42891 -0.26134,0.29061 -0.4026,-0.15449 -0.41863,-0.1035 -0.13444,0.42752 0.2599,0.48563 0.25302,0.64708 -0.0354,0.82982 -0.19693,0.12478 -0.44734,0.22871 -0.55648,0.23093 -0.16695,0.003 -0.35794,-4.29629 -0.24663,-5.55219 0.10785,-1.21674 0.28176,-6.32992 0.29613,-8.70612 0.0163,-2.69183 0.0279,-2.74283 0.52163,-2.29597 0.27775,0.25135 0.64938,0.80559 0.82585,1.23163 0.31597,0.76282 0.78583,1.05207 0.78583,0.48377 0,-0.15996 -0.4291,-0.98604 -0.95355,-1.83571 -1.11698,-1.80965 -1.09511,-2.79228 0.0245,-1.10045 0.43971,0.66445 0.84653,1.03412 0.98531,0.89534 0.3112,-0.3112 -0.8135,-2.22004 -1.17604,-1.99598 -0.17557,0.10851 -0.22532,-0.1058 -0.13829,-0.5957 0.17578,-0.98945 2.51197,-7.28429 2.81637,-7.58869 0.13368,-0.13368 0.41431,0.0269 0.66004,0.37778 0.33046,0.4718 0.4275,0.51043 0.4275,0.17021 0,-0.24207 -0.12944,-0.52013 -0.28764,-0.6179 -0.15819,-0.0978 -0.22846,-0.40401 -0.15615,-0.68054 0.0851,-0.32545 -0.0573,-0.60377 -0.40365,-0.789159 -0.65236,-0.34913 -15.96763,-0.79688 -16.77376,-0.49039 -1.30089,0.4946 -5.93654,7.514979 -7.20662,10.913949 -0.52997,1.41831 -0.57206,2.01363 -0.5706,8.06979 8e-4,3.59618 0.0791,7.53467 0.17389,8.75221 0.17195,2.20915 0.17415,2.21446 1.0712,2.58927 1.73756,0.726003 3.70371,0.958363 9.73354,1.150323 6.55234,0.2086 8.3759,0.14072 9.3631,-0.3485 z m -6.46471,-3.211513 c -1.5034,-1.50341 -0.41852,-4.11307 1.70988,-4.11307 1.22564,0 1.52579,0.37422 1.77841,2.21724 0.14144,1.03191 0.076,1.26601 -0.52074,1.86275 -0.89268,0.89268 -2.09455,0.90608 -2.96755,0.0331 z m 1.3625,-1.66016 c -0.26895,-0.26896 -0.49086,0.13596 -0.27019,0.49302 0.16669,0.26972 0.22901,0.26993 0.31863,0.001 0.0613,-0.18383 0.0395,-0.40617 -0.0484,-0.49408 z m -11.90433,1.04367 c -0.20954,-0.40521 -0.46333,-1.17567 -0.56397,-1.71213 -0.1607,-0.85661 -0.0854,-1.07298 0.61842,-1.77679 1.21784,-1.21784 2.8156,-0.97771 3.54732,0.53313 0.44753,0.92403 0.30139,1.91192 -0.45319,3.06355 -0.33176,0.50634 -0.64179,0.62899 -1.58986,0.62899 -1.02074,0 -1.22852,-0.0982 -1.55872,-0.73675 z m 1.16115,-1.37991 c -0.15576,-0.29105 -0.32801,-0.52917 -0.38277,-0.52917 -0.0784,0 -0.0178,0.61408 0.0979,0.99219 0.0111,0.0364 0.1435,0.0661 0.29414,0.0661 0.18569,0 0.1827,-0.17039 -0.009,-0.52916 z m 9.83947,-6.88948 c -0.64798,-0.60368 -0.779,-2.02587 -0.27486,-2.98365 0.41341,-0.78541 0.73826,-0.96599 1.74633,-0.97074 1.24841,-0.006 1.91822,0.778 1.91822,2.24491 0,0.83785 -0.15678,1.34741 -0.52916,1.71979 -0.69663,0.69662 -2.10718,0.69154 -2.86053,-0.0103 z m -10.10405,0.088 c -1.66035,-0.60695 -2.18373,-2.94514 -0.93807,-4.1908 2.10233,-2.10233 4.58078,1.25038 2.63434,3.5636 -0.68116,0.80951 -0.93788,0.90443 -1.69627,0.6272 z m 0.37502,-1.1007 c 0.0779,-0.12608 -0.0937,-0.44218 -0.38126,-0.70247 -0.50419,-0.45628 -0.52293,-0.45439 -0.52293,0.0528 0,0.78114 0.56986,1.19057 0.90419,0.64963 z m 11.19125,-5.7552 c -0.09,-0.09 -3.16148,-0.32383 -6.82559,-0.51968 -3.6641,-0.19586 -6.7258,-0.41991 -6.80378,-0.49788 -0.40945,-0.40946 0.65013,-0.44273 5.42387,-0.17034 7.35724,0.41981 12.51422,0.88915 12.51422,1.13891 0,0.24684 -4.06466,0.29305 -4.30872,0.049 z m -9.32687,-3.91172 c -0.70714,-0.51708 -0.27513,-1.66266 0.93909,-2.49022 0.78523,-0.53519 1.13827,-0.60724 2.37187,-0.48411 2.21454,0.22106 2.79792,1.40722 1.3085,2.66049 -0.6852,0.57656 -1.07504,0.68498 -2.46297,0.68498 -0.99728,0 -1.84951,-0.14667 -2.15649,-0.37114 z m 1.99393,-1.24876 c 0,-0.4768 -0.0618,-0.51028 -0.4094,-0.22179 -0.327,0.27138 -0.34031,0.3836 -0.0662,0.55751 0.4721,0.29947 0.47555,0.29704 0.47555,-0.33572 z m 8.99583,-1.99221 c -1.21954,-0.40178 -1.5875,-0.74101 -1.5875,-1.46357 0,-1.51446 2.82005,-2.35566 4.52358,-1.34937 0.81225,0.47981 1.18818,1.19687 0.88482,1.68773 -0.47323,0.7657 -2.81705,1.45593 -3.8209,1.12521 z m 0.79375,-1.41497 c 0,-0.14552 -0.11906,-0.26459 -0.26458,-0.26459 -0.14552,0 -0.26459,0.11907 -0.26459,0.26459 0,0.14552 0.11907,0.26458 0.26459,0.26458 0.14552,0 0.26458,-0.11906 0.26458,-0.26458 z m -22.929285,15.50706 c 2.04173,-1.27938 4.058835,-2.91197 3.25344,-2.63324 -0.42127,0.14579 -0.4648,0.0778 -0.29721,-0.46453 0.10799,-0.34943 0.35985,-0.95684 0.559705,-1.3498 0.19984,-0.39296 0.3573,-0.92874 0.34991,-1.19063 -0.007,-0.26188 -0.583795,0.6444 -1.280895,2.01398 -0.7287,1.43166 -1.34674,2.36182 -1.454,2.18828 -0.10261,-0.16602 -0.0578,-0.54244 0.0996,-0.83649 0.2273,-0.42471 0.20548,-0.53463 -0.10613,-0.53463 -0.21574,0 -0.70465,0.62507 -1.08645,1.38906 -0.75426,1.50924 -1.09787,1.962 -1.32027,1.7396 -0.19011,-0.19011 0.85508,-2.60909 1.37616,-3.18495 0.24488,-0.27064 0.33664,-0.64364 0.22781,-0.92605 -0.13959,-0.36222 -0.43288,0.007 -1.25336,1.57765 -0.58912,1.12778 -1.1764,2.05052 -1.30506,2.05052 -0.29495,0 -0.28573,-6.24222 0.0173,-11.71259 0.21156,-3.8192 0.27989,-4.21147 0.80811,-4.6392 0.32093,-0.25987 0.59553,-0.80446 0.61873,-1.22707 0.034,-0.61957 0.35919,-0.976229 1.7615,-1.932009 1.98607,-1.35365 7.858565,-5.02013 8.300385,-5.18232 0.57043,-0.2094 -0.24736,-1.09373 -1.31354,-1.42043 -1.52302,-0.46667 -5.949805,-1.55798 -8.961395,-2.20919 -3.15499,-0.68223 -4.620379,-0.56205 -6.474068,0.53092 -0.712269,0.41997 -2.644821,1.40744 -4.29456,2.19439 -3.099222,1.47836 -5.678162,3.01189 -6.275496,3.73164 -0.516013,0.62175 -0.571734,16.538489 -0.06326,18.070869 0.361454,1.08931 0.394255,1.11115 3.439583,2.28953 2.67963,1.03687 5.025123,1.70173 9.821521,2.78401 1.80368,0.40698 2.77712,0.18282 4.85197,-1.11732 z m -7.487927,-2.39968 c -0.8249,-0.87806 -0.631652,-2.641 0.385395,-3.51583 0.864677,-0.74376 1.495089,-0.75516 2.143412,-0.0388 0.6113,0.67548 0.70167,3.09233 0.1409,3.76802 -0.55213,0.66527 -1.949141,0.5536 -2.669707,-0.21341 z m 1.391541,-0.77977 c -0.261455,-0.35033 -0.51637,-0.525 -0.566477,-0.38815 -0.161365,0.44072 0.194545,1.02512 0.624319,1.02512 0.364301,0 0.356927,-0.0812 -0.05784,-0.63697 z m -5.319973,-5.7919 c -1.157836,-1.23246 -0.895685,-3.41877 0.499456,-4.16543 1.148132,-0.61446 2.568953,1.14371 2.243658,2.77637 -0.183891,0.92296 -1.117048,1.9971 -1.734972,1.9971 -0.240309,0 -0.693973,-0.27362 -1.008142,-0.60804 z m 0.77639,-1.05002 c -0.261307,-0.25936 -0.291698,-0.22897 -0.148112,0.14811 0.09936,0.26094 0.247304,0.40778 0.328765,0.32632 0.08146,-0.0815 1.68e-4,-0.29495 -0.180653,-0.47443 z m -5.673035,-4.83978 c -1.108028,-1.52178 -0.645264,-4.085499 0.737452,-4.085499 0.935834,0 1.98559,1.035899 2.159819,2.131309 0.121612,0.76459 0.01648,1.0989 -0.561619,1.78593 -0.853464,1.01429 -1.676478,1.07358 -2.335652,0.16826 z m 14.371454,-2.44999 c 0,-0.31976 0.50197,-0.69257 0.68545,-0.50908 0.0666,0.0666 -0.0604,0.27169 -0.28218,0.45577 -0.25146,0.20869 -0.40327,0.22876 -0.40327,0.0533 z m -4.365626,-1.23686 c -0.727604,-0.192559 -3.221737,-0.844829 -5.542518,-1.449489 -2.320781,-0.60466 -4.315078,-1.15839 -4.431771,-1.23051 -0.498273,-0.30795 -0.153882,-0.62609 0.515436,-0.47614 2.579317,0.57782 11.884849,3.135049 12.091459,3.322809 0.36751,0.33399 -1.08928,0.24176 -2.632606,-0.16667 z m 0.05267,-4.372489 c -0.454036,-0.64823 -0.298256,-1.66244 0.344723,-2.24433 0.723123,-0.65442 3.263303,-0.83702 4.091843,-0.29414 0.92055,0.60317 0.90787,1.78899 -0.027,2.52436 -0.99616,0.78358 -3.864181,0.79275 -4.409566,0.0141 z m 1.931706,-1.30952 c 0,-0.35429 -0.12692,-0.47216 -0.39688,-0.36857 -0.21828,0.0838 -0.39687,0.31815 -0.39687,0.52087 0,0.20271 0.17859,0.36856 0.39687,0.36856 0.21838,0 0.39688,-0.23426 0.39688,-0.52086 z m 33.602085,22.330089 c 0,-0.67193 -0.68383,-1.63443 -0.96293,-1.35532 -0.19458,0.19458 0.48509,2.03568 0.7515,2.03568 0.11629,0 0.21143,-0.30616 0.21143,-0.68036 z m -30.166315,-1.95793 c 1.04031,-2.06083 1.04354,-2.90662 0.005,-1.31914 -0.73571,1.12463 -1.32585,2.89909 -0.96416,2.89909 0.0889,0 0.52046,-0.71098 0.95911,-1.57995 z m 30.430895,-0.0988 c 0,-0.54902 -0.2009,-1.06685 -0.52916,-1.36393 -0.6225,-0.56335 -0.67395,-0.28006 -0.2227,1.22608 0.37679,1.25762 0.75186,1.32639 0.75186,0.13785 z m -28.311215,-1.95163 c -0.25948,-0.4068 -0.28027,-0.38091 -0.15331,0.19083 0.0808,0.3638 0.16472,0.84005 0.18653,1.05833 0.0218,0.21828 0.0908,0.13241 0.15331,-0.19083 0.0625,-0.32323 -0.0214,-0.79948 -0.18653,-1.05833 z m -1.55819,-1.95543 c 0.58947,-1.22065 1.33865,-2.57655 1.66485,-3.01312 1.01836,-1.36289 1.08631,-1.59878 0.27835,-0.96634 -0.92034,0.72042 -3.2853,4.91671 -3.29081,5.83909 -0.005,0.86394 0.10731,0.70875 1.34761,-1.85963 z m 29.982965,-0.45232 c -0.0897,-0.67626 -0.36857,-1.32483 -0.68261,-1.5875 -0.29202,-0.24427 -0.71936,-0.80132 -0.94964,-1.23788 -0.23028,-0.43656 -0.465,-0.65677 -0.5216,-0.48936 -0.0566,0.16742 0.38528,1.102 0.98196,2.07686 0.59668,0.97486 1.04452,1.89352 0.99521,2.04146 -0.0493,0.14795 -0.61622,-0.41352 -1.25979,-1.24771 -1.38571,-1.79613 -1.74856,-1.53205 -0.46293,0.33691 0.4909,0.71365 1.05952,1.70065 1.26359,2.19333 l 0.37104,0.89577 0.20821,-0.91925 c 0.11451,-0.50559 0.13996,-1.43378 0.0566,-2.06263 z m -25.91722,0.49505 c 0.22201,-0.42933 0.39403,-1.05441 0.38225,-1.38906 -0.0173,-0.49259 -0.11678,-0.40692 -0.52223,0.44988 -0.769875,1.62692 -0.645885,2.45886 0.13998,0.93918 z m -1.260045,-2.60124 c 0.43427,-0.83212 0.992785,-2.12885 1.241145,-2.88164 0.24836,-0.75278 0.63149,-1.51802 0.85139,-1.70052 0.47236,-0.39203 1.15868,-1.65717 1.15868,-2.13589 0,-0.55898 -0.62404,0.50542 -2.886955,4.92419 -1.18777,2.31934 -1.93329,4.0122 -1.6567,3.76189 0.27658,-0.2503 0.85818,-1.13592 1.29244,-1.96803 z m -2.66303,-0.15019 c 0.36198,-0.70569 0.59061,-1.35061 0.50807,-1.43315 -0.1844,-0.1844 -0.18579,-0.18283 -1.02997,1.1729 -0.37757,0.60637 -0.75889,1.43981 -0.84737,1.85208 -0.15632,0.72836 -0.14853,0.7346 0.27513,0.22042 0.2398,-0.29104 0.73217,-1.10655 1.09414,-1.81225 z m 3.980815,-0.53983 c -0.0554,-0.16156 -0.41166,0.31682 -0.791605,1.06309 -0.37995,0.74626 -0.61535,1.4323 -0.52312,1.52453 0.21766,0.21766 1.447035,-2.20199 1.314725,-2.58762 z m 25.30111,-0.9481 c -1.15154,-1.62761 -1.651,-1.35974 -0.53455,0.2867 0.33447,0.49325 0.71261,1.13494 0.8403,1.42598 0.22446,0.5116 0.23562,0.50945 0.33612,-0.0647 0.0626,-0.35765 -0.19269,-1.01313 -0.64187,-1.648 z m -29.465935,-1.33003 c -0.009,-0.61708 -0.0434,-0.59934 -0.51634,0.26459 -0.27884,0.50932 -0.51119,1.16416 -0.51633,1.4552 -0.008,0.43635 0.0829,0.38994 0.51633,-0.26458 0.28913,-0.43656 0.52148,-1.09141 0.51634,-1.45521 z m 29.759285,-0.389 c -0.62454,-0.95317 -0.80329,-0.62666 -0.20833,0.38053 0.26704,0.45206 0.52426,0.70568 0.57162,0.56362 0.0473,-0.14206 -0.11612,-0.56693 -0.36329,-0.94415 z m -22.51072,-0.3386 c 0.20358,-0.40018 0.45579,-1.02526 0.56045,-1.38906 l 0.19031,-0.66146 -0.44224,0.60369 c -0.42823,0.58455 -1.00271,2.17443 -0.7857,2.17443 0.0589,0 0.27359,-0.32742 0.47718,-0.7276 z m -0.72495,-6.080949 c 0.85962,-1.84104 1.01991,-2.36753 0.65057,-2.13687 -0.62675,0.39141 -3.995965,7.275059 -3.989855,8.151669 0.005,0.71525 1.211965,-1.45878 3.339285,-6.014799 z m -6.232435,3.870759 c 0.5929,-1.17923 1.02338,-2.19867 0.95662,-2.26543 -0.14891,-0.148909 -2.2933,3.69545 -2.2933,4.11132 0,0.63246 0.29636,0.22319 1.33668,-1.84589 z m 29.892005,1.10038 c -0.16008,-0.29911 -0.40898,-0.54384 -0.55312,-0.54384 -0.14414,0 -0.0612,0.38696 0.18425,0.8599 0.24547,0.47294 0.49438,0.71767 0.55312,0.54383 0.0587,-0.17383 -0.0242,-0.56078 -0.18425,-0.85989 z m -23.29999,-0.79284 c -0.007,-0.3053 -0.14362,-0.25064 -0.52775,0.21042 -0.28542,0.34258 -0.44187,0.74757 -0.34768,0.89997 0.21056,0.3407 0.88806,-0.51864 0.87543,-1.11039 z m -1.59198,-4.844229 c 0.007,-0.10914 -0.11006,-0.19843 -0.26082,-0.19843 -0.372,0 -2.399965,4.238169 -2.190295,4.577429 0.14319,0.23169 2.414035,-3.825239 2.451115,-4.378999 z m 4.5112,3.770319 c 0.15576,-0.29105 0.22367,-0.52917 0.15091,-0.52917 -0.0728,0 -0.25973,0.23812 -0.41549,0.52917 -0.15576,0.29104 -0.22367,0.52916 -0.15091,0.52916 0.0728,0 0.25973,-0.23812 0.41549,-0.52916 z m -7.276975,-0.79196 c 0.51808,-1.001859 0.94542,-2.118459 0.81075,-2.118459 -0.15007,0 -1.47128,2.405889 -1.47128,2.679159 0,0.4418 0.25331,0.22678 0.66053,-0.5607 z m 7.137895,-1.046989 c 0.38139,-0.73753 0.5765,-2.12625 0.25332,-1.80307 -0.20296,0.20296 -0.91232,2.583679 -0.76984,2.583679 0.0621,0 0.2945,-0.35127 0.51652,-0.780609 z m -0.80566,-3.7173 0.17307,-0.66146 -0.39854,0.66146 c -0.44416,0.73718 -0.56004,1.31695 -0.18244,0.91281 0.12916,-0.13825 0.31272,-0.54901 0.40791,-0.91281 z m 1.19057,-0.39688 c 0,-0.14552 -0.17015,0.0331 -0.37812,0.39688 -0.20797,0.3638 -0.37812,0.78052 -0.37812,0.92604 0,0.14552 0.17015,-0.0331 0.37812,-0.39688 0.20797,-0.3638 0.37812,-0.78052 0.37812,-0.92604 z"
       id="path854" />
  </g>
</svg>
