<?xml version="1.0" encoding="UTF-8" standalone="no"?>
<!-- Created with Inkscape (http://www.inkscape.org/) -->

<svg
   width="51.799076mm"
   height="32.248966mm"
   viewBox="0 0 51.799076 32.248966"
   version="1.1"
   id="svg5"
   inkscape:version="1.1.1 (eb90963e84, 2021-10-02)"
   sodipodi:docname="chadhruid_herchallas.svg"
   xmlns:inkscape="http://www.inkscape.org/namespaces/inkscape"
   xmlns:sodipodi="http://sodipodi.sourceforge.net/DTD/sodipodi-0.dtd"
   xmlns="http://www.w3.org/2000/svg"
   xmlns:svg="http://www.w3.org/2000/svg">
  <sodipodi:namedview
     id="namedview7"
     pagecolor="#ffffff"
     bordercolor="#666666"
     borderopacity="1.0"
     inkscape:pageshadow="2"
     inkscape:pageopacity="0.0"
     inkscape:pagecheckerboard="0"
     inkscape:document-units="mm"
     showgrid="false"
     fit-margin-top="0"
     fit-margin-left="0"
     fit-margin-right="0"
     fit-margin-bottom="0"
     inkscape:zoom="1.5037598"
     inkscape:cx="86.782476"
     inkscape:cy="128.67746"
     inkscape:window-width="1848"
     inkscape:window-height="1016"
     inkscape:window-x="72"
     inkscape:window-y="27"
     inkscape:window-maximized="1"
     inkscape:current-layer="layer1" />
  <defs
     id="defs2" />
  <g
     inkscape:label="Layer 1"
     inkscape:groupmode="layer"
     id="layer1"
     transform="translate(-153.44702,-73.754678)">
    <path
       style="fill:#000000;stroke-width:0.29922"
       d="m 204.59274,83.6535 c -0.35931,-0.0892 -1.56144,0.0219 -2.67137,0.24675 -1.10995,0.22489 -2.1793,0.40888 -2.37632,0.40888 -0.45336,0 -1.06248,-1.68512 -1.06496,-2.94618 -0.005,-2.43367 -1.9974,-5.43603 -4.4501,-6.70513 -1.29209,-0.66856 -1.83634,-0.76799 -4.81842,-0.88026 -1.84899,-0.0696 -4.89835,0.025 -6.77634,0.21025 -3.3681,0.33224 -3.45199,0.35789 -6.16838,1.88613 -2.79733,1.57376 -5.7915,3.90666 -6.68126,5.20566 -1.62096,2.36651 -2.00733,3.20474 -2.03744,4.42015 l -0.0327,1.32292 -1.86115,0.17227 c -2.97584,0.27545 -7.43205,0.24848 -8.14364,-0.0493 -0.36,-0.15065 -0.65453,-0.50783 -0.65453,-0.79375 0,-0.7492 -0.30526,-0.65546 -1.93295,0.59356 -1.62263,1.24514 -1.93706,2.36872 -0.79643,2.84602 0.8315,0.34795 4.10026,0.3493 8.55335,0.004 4.82265,-0.37444 5.73841,-0.61269 7.19267,-1.87127 l 1.24726,-1.07946 -0.1073,-2.31313 -0.1073,-2.31313 2.15059,-1.56644 c 1.18282,-0.86154 2.77748,-1.9003 3.54367,-2.30836 0.7662,-0.40806 1.67843,-0.94384 2.0272,-1.19063 0.53545,-0.37887 1.40522,-0.44869 5.58987,-0.44869 4.89426,0 4.97344,0.009 6.38206,0.75664 0.78448,0.41615 1.81768,1.1578 2.29598,1.64811 1.01404,1.0395 2.19956,3.75491 2.19956,5.03805 v 0.89158 h -1.98312 c -1.09072,0 -2.68962,0.0757 -3.55312,0.16825 -1.48727,0.15939 -1.57056,0.135 -1.58074,-0.46302 -0.0193,-1.12913 -2.82673,-3.14482 -4.38014,-3.14482 -0.54089,0 -1.07754,-0.11906 -1.19257,-0.26458 -0.11498,-0.14552 -0.5897,-0.26458 -1.05484,-0.26458 -1.24018,0 -3.55673,1.87275 -5.5638,4.49791 l -1.71945,2.24896 0.21718,2.11667 c 0.2906,2.83237 0.35808,2.96321 1.70764,3.31146 1.05206,0.27148 1.1682,0.39879 1.1682,1.2804 0,1.06968 -0.65719,1.9866 -1.75234,2.44487 -0.52675,0.22041 -0.76558,0.21409 -0.95478,-0.0253 -0.5329,-0.67419 -3.38392,1.34916 -3.38392,2.40155 0,1.04476 1.88256,0.44898 5.00856,-1.58508 l 2.00066,-1.30181 0.18545,3.14721 c 0.20549,3.48732 0.57695,4.25149 2.81263,5.78629 1.75011,1.20146 2.76117,1.09328 4.66642,-0.49933 1.91758,-1.6029 2.16655,-2.50011 0.40463,-1.45813 -0.98964,0.58526 -1.99523,0.47014 -2.96248,-0.33914 -0.96287,-0.8056 -1.18027,-1.73731 -1.49709,-6.41615 l -0.18812,-2.77812 1.60998,-0.92604 c 1.54834,-0.89059 4.87893,-4.27697 4.87893,-4.96066 0,-0.24403 0.93769,-0.33101 3.56844,-0.33101 h 3.56846 l -0.22887,0.95391 c -0.21763,0.907 -0.19397,0.9393 0.48105,0.65683 0.39047,-0.16339 1.19717,-0.77112 1.79267,-1.35051 1.21308,-1.18028 2.53953,-1.57938 5.25682,-1.58167 2.50354,-0.002 2.8194,-0.15166 2.8194,-1.33487 0,-0.7677 -0.1578,-1.05136 -0.65329,-1.17432 z m -20.39465,6.95271 c -0.55296,0.43235 -2.16671,0.39875 -4.26659,-0.0888 -1.94453,-0.45151 -1.92166,-0.41753 -2.27651,-3.38232 -0.19685,-1.64472 -0.1393,-1.89484 0.65079,-2.82834 0.88695,-1.04793 1.8677,-1.28362 2.86594,-0.68871 0.25251,0.15047 0.7809,0.39903 1.17422,0.55235 0.39333,0.15332 1.06233,0.6816 1.48667,1.17394 0.63617,0.7381 0.77155,1.25042 0.77155,2.91979 0,1.22193 -0.161,2.1505 -0.40607,2.34212 z"
       id="path3316" />
  </g>
</svg>
