<?xml version="1.0" encoding="UTF-8" standalone="no"?>
<!-- Created with Inkscape (http://www.inkscape.org/) -->

<svg
   width="79.511993mm"
   height="12.149477mm"
   viewBox="0 0 79.511993 12.149477"
   version="1.1"
   id="svg5"
   inkscape:version="1.1.1 (eb90963e84, 2021-10-02)"
   sodipodi:docname="chadhrave_e_sornas_agwinchasrin.svg"
   xmlns:inkscape="http://www.inkscape.org/namespaces/inkscape"
   xmlns:sodipodi="http://sodipodi.sourceforge.net/DTD/sodipodi-0.dtd"
   xmlns="http://www.w3.org/2000/svg"
   xmlns:svg="http://www.w3.org/2000/svg">
  <sodipodi:namedview
     id="namedview7"
     pagecolor="#ffffff"
     bordercolor="#666666"
     borderopacity="1.0"
     inkscape:pageshadow="2"
     inkscape:pageopacity="0.0"
     inkscape:pagecheckerboard="0"
     inkscape:document-units="mm"
     showgrid="false"
     fit-margin-top="0"
     fit-margin-left="0"
     fit-margin-right="0"
     fit-margin-bottom="0"
     inkscape:zoom="1.5037598"
     inkscape:cx="179.21745"
     inkscape:cy="116.04247"
     inkscape:window-width="1848"
     inkscape:window-height="1016"
     inkscape:window-x="72"
     inkscape:window-y="27"
     inkscape:window-maximized="1"
     inkscape:current-layer="layer1" />
  <defs
     id="defs2" />
  <g
     inkscape:label="Layer 1"
     inkscape:groupmode="layer"
     id="layer1"
     transform="translate(-84.25908,-146.96532)">
    <path
       style="fill:#000000;stroke-width:0.264583"
       d="m 93.299943,158.96315 c -0.08507,-0.0851 0.127344,-0.37652 0.472041,-0.64766 0.344698,-0.27114 0.922692,-0.99948 1.284433,-1.61852 0.693527,-1.18684 1.873334,-4.68735 1.653806,-4.90688 -0.07091,-0.0709 -0.540935,0.18534 -1.044509,0.56944 -1.069752,0.81594 -1.343197,0.8752 -1.085932,0.23533 0.10239,-0.25466 0.215749,-0.64143 0.251909,-0.8595 0.03701,-0.22319 0.45949,-0.46334 0.966624,-0.54946 0.495483,-0.0841 1.151187,-0.23559 1.457121,-0.33655 0.556244,-0.18358 0.556244,-0.18358 0.06919,2.10851 -0.267877,1.26065 -0.773715,2.78114 -1.124084,3.37887 -0.655364,1.11805 -2.625272,2.90175 -2.900602,2.62642 z m 43.446097,-0.46819 c -1.20643,-0.81979 -1.35111,-1.21727 -1.15812,-3.1818 0.17877,-1.8198 -0.0423,-2.32142 -1.02322,-2.32142 -0.84464,0 -0.85701,-0.11992 -0.0962,-0.93238 0.59531,-0.63576 0.59531,-0.63576 -0.43513,-0.44346 -0.74294,0.13866 -0.97849,0.10827 -0.84428,-0.1089 0.29073,-0.4704 2.25827,-0.37919 2.44732,0.11346 0.0875,0.22806 0.0361,0.53762 -0.11414,0.68792 -0.18795,0.18795 -0.11632,0.43018 0.22946,0.77596 0.37056,0.37056 0.5027,0.88072 0.5027,1.94069 0,1.70157 0.24649,2.40938 1.18076,3.39067 0.85823,0.90142 0.56964,0.93461 -0.68912,0.0793 z m 22.89264,0.14188 c -0.90123,-0.40926 -1.1204,-0.65859 -1.2673,-1.44161 -0.21255,-1.13296 -1.33309,-2.54985 -2.01655,-2.54985 -0.66949,0 -0.86343,-0.39997 -0.38605,-0.79616 0.45502,-0.37764 0.52696,-1.05592 0.11198,-1.05592 -0.15509,0 -0.52605,0.13062 -0.82436,0.29028 -0.42284,0.22629 -0.5171,0.21439 -0.42763,-0.054 0.0631,-0.18935 0.51117,-0.44699 0.99567,-0.57254 0.67384,-0.17461 0.97837,-0.13082 1.29547,0.18628 0.37635,0.37635 0.37258,0.45653 -0.0409,0.87002 -0.4309,0.43089 -0.4094,0.47728 0.39856,0.85989 0.64729,0.30653 0.96928,0.72468 1.33012,1.72735 0.28379,0.78855 0.86582,1.67026 1.44091,2.18281 1.09723,0.97792 0.95138,1.06244 -0.60991,0.35344 z m -19.24465,-0.80971 c -0.98887,-0.19102 -1.48139,-0.60239 -1.48974,-1.24425 -0.007,-0.50319 1.70103,-1.76396 3.15134,-2.32676 0.99796,-0.38727 1.34356,-0.65882 1.34657,-1.05804 0.005,-0.60483 0.26374,-1.04353 0.65741,-1.11278 0.14552,-0.0256 0.46183,-0.12337 0.7029,-0.21727 0.39279,-0.15299 0.40476,-0.0731 0.11518,0.76921 -0.41091,1.19527 -0.42878,1.21102 -2.00316,1.76546 -1.57565,0.55488 -2.91596,1.46042 -2.91596,1.97006 0,0.37265 0.2307,0.62763 1.19063,1.31594 0.29104,0.20869 0.46963,0.36953 0.39687,0.35743 -0.0728,-0.0121 -0.59118,-0.11066 -1.15204,-0.219 z M 87.094817,157.2383 c -1.087853,-1.08785 1.084828,-2.99713 4.605997,-4.04758 0.161308,-0.0481 0.371074,-0.57395 0.466147,-1.1685 0.127524,-0.79749 0.296947,-1.081 0.645983,-1.081 0.260218,0 0.633522,-0.14883 0.829564,-0.33073 0.293385,-0.27222 0.318574,-0.23712 0.142388,0.19843 -0.117729,0.29105 -0.265617,0.96303 -0.32864,1.49331 -0.09584,0.80642 -0.236153,0.98845 -0.857721,1.11276 -1.277014,0.25541 -4.222733,1.77382 -4.52047,2.33015 -0.330193,0.61697 0.150895,1.11165 1.477377,1.51911 0.708338,0.21759 0.635738,0.24639 -0.674687,0.26769 -0.821071,0.0133 -1.608409,-0.11611 -1.785938,-0.29364 z m 50.231143,-0.34396 c -0.007,-0.29104 0.15276,-1.39624 0.35487,-2.456 0.36746,-1.92684 0.36746,-1.92684 -0.52007,-2.29767 -0.57812,-0.24156 -0.948,-0.6118 -1.06101,-1.06205 -0.19748,-0.78684 -0.18957,-0.80027 0.61767,-1.04841 0.54031,-0.16608 0.59532,-0.0958 0.59532,0.76089 0,1.15027 0.71376,1.33353 0.84232,0.21626 0.0601,-0.52258 0.25257,-0.75157 0.68296,-0.81266 0.36878,-0.0523 0.53192,-0.20498 0.4242,-0.39688 -0.12136,-0.2162 -0.0848,-0.22937 0.11941,-0.043 0.21539,0.19668 0.18997,0.65838 -0.0947,1.71979 -0.63257,2.35856 -1.94735,5.9923 -1.96097,5.41969 z m -30.29957,-1.52135 c -0.23014,-0.32742 -0.53584,-1.02956 -0.67934,-1.5603 -0.29662,-1.09713 -0.76585,-1.37849 -1.70408,-1.02178 -0.61884,0.23529 -0.64275,0.20818 -0.49,-0.55554 0.16058,-0.80289 0.16058,-0.80289 -0.78627,-0.40728 -0.7469,0.31208 -0.9185,0.32176 -0.81262,0.0458 0.0738,-0.19238 0.6551,-0.48095 1.29173,-0.64125 1.51703,-0.38199 1.49874,-0.38595 1.40283,0.30385 -0.0624,0.44859 0.0652,0.61632 0.51775,0.68054 0.41403,0.0588 0.80501,0.48876 1.25895,1.38457 0.48569,0.95846 0.84874,1.34003 1.38385,1.45444 0.39898,0.0853 1.00223,0.26743 1.34056,0.40473 0.33833,0.13729 0.74368,0.17019 0.90078,0.0731 0.16989,-0.10501 0.20914,-0.0528 0.0969,0.12893 -0.1081,0.1749 -0.85425,0.30546 -1.74567,0.30546 -1.31418,0 -1.62212,-0.0928 -1.97532,-0.59531 z m 15.11841,0.0229 c -0.24336,-0.13619 -0.44248,-0.46245 -0.44248,-0.72501 0,-0.6429 1.18151,-1.88194 1.7733,-1.85966 0.39925,0.015 0.38251,0.0629 -0.10422,0.29813 -1.06955,0.51685 -1.0212,1.70722 0.0607,1.49471 0.51153,-0.10047 1.31502,-1.11141 1.55798,-1.96019 0.14041,-0.49056 -0.0193,-0.58125 -1.565,-0.88848 -0.94675,-0.18818 -1.90027,-0.2735 -2.11894,-0.18959 -0.21867,0.0839 -0.39758,0.0467 -0.39758,-0.0827 0,-0.33981 1.22359,-0.5363 2.99324,-0.48067 1.10004,0.0346 1.60747,-0.0614 1.78188,-0.33716 0.41814,-0.66102 0.28364,-0.74848 -0.72343,-0.47041 -0.70987,0.196 -1.25009,0.17865 -1.98453,-0.0637 -0.76763,-0.25334 -1.16739,-0.26094 -1.67044,-0.0317 -0.36372,0.16573 -0.6613,0.19183 -0.6613,0.058 0,-0.48655 0.67625,-0.63522 2.69417,-0.5923 1.13225,0.0241 2.37303,-0.0758 2.7573,-0.22186 0.80782,-0.30713 0.81578,-0.38628 -0.24917,2.47743 -0.62071,1.66912 -1.80341,3.591 -2.2392,3.6387 -0.10174,0.0111 -0.37281,0.0571 -0.60239,0.10218 -0.22958,0.0451 -0.61653,-0.0295 -0.8599,-0.16568 z m 30.9005,-0.0489 c 0.8522,-0.62314 0.25498,-0.91428 -1.57429,-0.76744 -1.68322,0.13511 -1.72286,0.1236 -1.72286,-0.50052 0,-0.88723 0.57528,-1.62031 2.02515,-2.58066 0.84565,-0.56014 1.56305,-0.82173 2.25355,-0.82173 0.55713,0 1.01091,0.0893 1.0084,0.19844 -0.007,0.3248 -1.31835,1.47052 -1.31835,1.15225 0,-0.42271 -1.22046,-0.35892 -2.1298,0.11132 -1.50046,0.77592 -0.69936,2.09783 1.10042,1.81581 0.57346,-0.0899 1.08672,7.9e-4 1.42275,0.25128 0.51612,0.38476 0.51658,0.40188 0.0251,0.94492 -0.27528,0.30419 -0.74294,0.55307 -1.03924,0.55307 -0.51677,0 -0.51884,-0.0145 -0.0509,-0.35674 z m -43.71225,-0.96328 c -0.47294,-0.28836 -0.8599,-0.5934 -0.8599,-0.67786 0,-0.5534 0.72931,-1.28172 1.70017,-1.69788 0.90688,-0.38873 1.1673,-0.65353 1.3012,-1.32307 0.0921,-0.46039 0.26665,-0.77575 0.38794,-0.70079 0.12128,0.075 0.5394,-0.0291 0.92914,-0.23136 0.65365,-0.33911 1.04405,-0.10838 0.44405,0.26243 -0.14552,0.0899 -0.26458,0.51142 -0.26458,0.93662 0,0.62978 -0.13488,0.80155 -0.7276,0.92659 -1.25579,0.26492 -2.4474,0.891 -2.4474,1.28587 0,0.79774 0.34659,1.21723 1.0205,1.23515 0.62842,0.0167 0.64566,0.0416 0.17013,0.24598 -0.73499,0.31584 -0.69645,0.32194 -1.65365,-0.26168 z m 51.39935,-0.57616 c -0.76906,-0.60494 -1.14,-0.60942 -1.82628,-0.022 -0.53525,0.4581 -0.53644,0.45599 -0.1123,-0.19844 0.34188,-0.52749 0.6207,-0.64974 1.3767,-0.60361 0.5214,0.0318 1.2311,0.24334 1.5771,0.47005 0.47878,0.3137 0.7957,0.34886 1.32628,0.14714 0.38344,-0.14579 0.69717,-0.16339 0.69717,-0.0391 0,0.28215 -1.2903,0.78372 -1.93861,0.75358 -0.26587,-0.0124 -0.7609,-0.24075 -1.10006,-0.50754 z m -76.023569,-0.37528 c -0.689403,-0.48288 -0.608299,-0.99748 0.396516,-2.51586 0.960841,-1.45193 2.558836,-2.01003 3.277128,-1.14454 0.202992,0.24459 0.601767,0.36945 0.960752,0.30083 0.863263,-0.16502 0.293503,0.49296 -0.626896,0.72397 -0.501335,0.12583 -0.848574,0.0184 -1.294484,-0.40052 -0.609371,-0.57248 -0.609371,-0.57248 -1.288409,0.10656 -0.889881,0.88988 -0.933685,2.21298 -0.08373,2.52893 0.327422,0.12171 0.744141,0.16467 0.926042,0.0955 0.181901,-0.0692 0.330729,-0.007 0.330729,0.13875 0,0.66456 -1.728365,0.77529 -2.597653,0.16642 z m 55.364289,-0.23204 c -1.17552,-1.79407 2.02619,-5.00822 3.84368,-3.85861 0.3298,0.2086 0.31085,0.33388 -0.12947,0.85584 -0.28371,0.33631 -0.54613,0.66034 -0.58317,0.72009 -0.037,0.0597 -0.30177,-0.10353 -0.58828,-0.36282 -0.62382,-0.56455 -1.14642,-0.41094 -1.75338,0.5154 -0.57421,0.87634 -0.18008,1.89372 0.832,2.14774 0.51299,0.12875 0.60218,0.23379 0.33973,0.40012 -0.66945,0.42428 -1.52942,0.24108 -1.96111,-0.41776 z m 5.90472,0.36563 c -0.41791,-0.24342 -0.42567,-0.34189 -0.0797,-1.01101 0.21085,-0.40773 0.8103,-1.11619 1.33212,-1.57436 1.65833,-1.45602 2.81147,-0.87263 1.73094,0.87571 -0.61387,0.99326 -1.74179,2.00057 -2.22533,1.98739 -0.16228,-0.004 -0.5034,-0.12941 -0.75807,-0.27773 z m 2.20486,-1.32378 c 0.60774,-0.60773 0.57448,-0.73815 -0.22762,-0.89262 -0.50018,-0.0963 -1.02439,0.2954 -1.48959,1.11311 -0.32333,0.56836 1.11276,0.38397 1.71721,-0.22049 z m -17.56545,0.41216 c 0.74236,-0.66822 0.74236,-0.66822 -1.44045,-0.495 -2.06224,0.16365 -2.18281,0.14408 -2.18281,-0.35443 0,-1.24454 2.30528,-2.98026 3.95821,-2.98026 0.84705,0 0.95232,0.15001 0.55078,0.78488 -0.16607,0.26258 -0.59692,0.36262 -1.33288,0.30948 -1.18111,-0.0853 -2.38236,0.49998 -2.38236,1.1607 0,0.43731 0.20191,0.4852 1.72058,0.40801 2.09277,-0.10638 3.37092,0.9925 1.83407,1.57681 -1.22649,0.46631 -1.51658,0.30222 -0.72514,-0.41019 z m -12.14097,-0.37823 c -0.46083,-0.37316 -0.52272,-0.61724 -0.367,-1.44731 0.36644,-1.95332 3.87779,-4.47863 4.86068,-3.49574 0.29241,0.29241 0.2346,0.42826 -0.34344,0.80701 -0.46997,0.30793 -0.79639,0.37129 -1.00805,0.19564 -0.5479,-0.45466 -1.98095,0.36222 -2.48323,1.41551 -0.50836,1.06604 -0.31917,1.66216 0.67049,2.11273 0.75634,0.34434 0.7247,0.57431 -0.10073,0.7321 -0.40685,0.0778 -0.89431,-0.0491 -1.22872,-0.31994 z m -29.553162,-0.10906 c -0.228663,-0.27553 -0.202697,-0.44273 0.108914,-0.70134 0.333397,-0.2767 0.529964,-0.27492 1.061596,0.01 0.809857,0.43342 0.82579,0.68075 0.05713,0.88674 -0.829179,0.22221 -0.889302,0.21266 -1.227637,-0.195 z m 10.034629,0.10871 c -0.71645,-0.45315 -0.005,-1.65525 1.451093,-2.45274 1.64156,-0.89891 2.24548,-0.93629 2.2376,-0.13847 -0.007,0.70733 -0.60985,1.48805 -1.75475,2.27246 -0.909793,0.62333 -1.340233,0.69427 -1.933943,0.31875 z m 2.023873,-1.38056 c 0.77667,-0.72965 0.78396,-1.10017 0.017,-0.86646 -0.67524,0.20578 -1.521353,0.88327 -1.521353,1.21817 0,0.42887 0.896533,0.21925 1.504303,-0.35171 z m 6.31591,0.51641 c -0.8015,-1.1443 -0.24605,-2.67037 1.37221,-3.77 1.80092,-1.22376 4.41259,-0.64391 2.72372,0.60473 -0.74546,0.55114 -0.80091,0.55526 -1.56556,0.11642 -0.77389,-0.44416 -0.80913,-0.43956 -1.48306,0.19357 -1.00632,0.94539 -0.84794,2.16002 0.32675,2.50585 1.00757,0.29662 1.09401,0.54843 0.26458,0.77071 -0.96711,0.25917 -1.20484,0.19806 -1.63864,-0.42128 z"
       id="path3295" />
  </g>
</svg>
