<?xml version="1.0" encoding="UTF-8" standalone="no"?>
<!-- Created with Inkscape (http://www.inkscape.org/) -->

<svg
   width="44.708637mm"
   height="106.94487mm"
   viewBox="0 0 44.708637 106.94487"
   version="1.1"
   id="svg5"
   inkscape:version="1.1.1 (eb90963e84, 2021-10-02)"
   sodipodi:docname="chadhruid_structure.svg"
   xmlns:inkscape="http://www.inkscape.org/namespaces/inkscape"
   xmlns:sodipodi="http://sodipodi.sourceforge.net/DTD/sodipodi-0.dtd"
   xmlns="http://www.w3.org/2000/svg"
   xmlns:svg="http://www.w3.org/2000/svg">
  <sodipodi:namedview
     id="namedview7"
     pagecolor="#ffffff"
     bordercolor="#666666"
     borderopacity="1.0"
     inkscape:pageshadow="2"
     inkscape:pageopacity="0.0"
     inkscape:pagecheckerboard="0"
     inkscape:document-units="mm"
     showgrid="false"
     fit-margin-top="0"
     fit-margin-left="0"
     fit-margin-right="0"
     fit-margin-bottom="0"
     inkscape:zoom="1.5037598"
     inkscape:cx="-4.9874986"
     inkscape:cy="190.52245"
     inkscape:window-width="1848"
     inkscape:window-height="1016"
     inkscape:window-x="72"
     inkscape:window-y="27"
     inkscape:window-maximized="1"
     inkscape:current-layer="layer1" />
  <defs
     id="defs2" />
  <g
     inkscape:label="Layer 1"
     inkscape:groupmode="layer"
     id="layer1"
     transform="translate(-114.18127,-115.55871)">
    <path
       style="fill:#000000;stroke-width:0.264583"
       d="m 133.10246,222.26167 c -0.0854,-0.13817 0.29453,-0.32604 0.84428,-0.41749 0.54975,-0.0914 1.15016,-0.21348 1.33424,-0.27117 0.55992,-0.17548 0.90322,-1.49375 0.78789,-3.02542 -0.0661,-0.87789 0.1333,-2.69461 0.50445,-4.59593 0.33757,-1.72929 0.55854,-3.23352 0.49105,-3.34272 -0.25159,-0.40708 -1.7172,-0.4939 -4.65286,-0.27561 -1.99617,0.14844 -3.13272,0.13297 -3.34929,-0.0456 -0.54656,-0.45058 -0.1023,-0.73946 1.13718,-0.73946 1.17473,0 1.17501,-2.3e-4 1.17501,-0.96149 0,-1.51504 0.53829,-3.00726 1.08482,-3.00726 0.42264,0 0.45568,0.19328 0.31662,1.85208 -0.086,1.0253 -0.0496,1.85952 0.0815,1.86873 2.49427,0.17535 4.69271,0.49697 4.91474,0.719 0.20004,0.20003 0.19876,0.77016 -0.004,1.95615 -0.51703,3.01852 -0.84047,5.87968 -0.84726,7.49466 -0.007,1.74287 -0.31814,2.34968 -1.41768,2.76773 -0.90391,0.34366 -2.19474,0.35645 -2.40035,0.0238 z m -3.84472,-15.63444 c -0.21828,-0.11724 -1.23031,-0.6232 -2.24896,-1.12434 -3.41452,-1.67985 -5.08021,-2.64373 -4.23333,-2.44969 0.43656,0.10003 1.15094,0.41207 1.5875,0.69343 0.43656,0.28136 1.80578,1.00345 3.04271,1.60463 1.23692,0.60119 2.29856,1.13662 2.3592,1.18984 0.24855,0.2182 -0.13877,0.28398 -0.50712,0.0861 z m -10.9935,-1.59835 c -0.0972,-0.15734 0.13386,-0.61034 0.51356,-1.00666 0.79291,-0.82763 0.87346,-1.14497 0.26243,-1.03396 -0.23536,0.0428 -0.56278,-0.13807 -0.7276,-0.40185 -0.2463,-0.39416 -0.1865,-0.57246 0.33568,-1.00088 0.83222,-0.6828 1.22587,-0.51016 1.17771,0.51648 -0.0321,0.68425 0.0617,0.83313 0.52917,0.83975 0.51507,0.007 0.52466,0.0334 0.10262,0.27915 -0.25606,0.14911 -0.63693,0.68127 -0.8464,1.18258 -0.37468,0.89674 -1.00004,1.18705 -1.34717,0.62539 z m 0.80704,-0.50766 c 0.0899,-0.14552 0.10399,-0.26459 0.0312,-0.26459 -0.0728,0 -0.20587,0.11907 -0.29581,0.26459 -0.0899,0.14552 -0.10399,0.26458 -0.0312,0.26458 0.0728,0 0.20587,-0.11906 0.29581,-0.26458 z m 0.39688,-2.41365 c 0,-0.46917 -0.0653,-0.50737 -0.39688,-0.23219 -0.21828,0.18116 -0.39687,0.43386 -0.39687,0.56156 0,0.12771 0.17859,0.23219 0.39687,0.23219 0.22812,0 0.39688,-0.23878 0.39688,-0.56156 z m 11.52435,2.47357 c -0.0393,-0.0398 -0.0162,-0.36185 0.0515,-0.71567 0.1011,-0.52884 0.32918,-0.67424 1.28179,-0.81709 1.47597,-0.22133 1.95906,-0.0291 1.95906,0.77957 0,0.60469 -0.10359,0.65203 -1.6104,0.73591 -0.88572,0.0493 -1.64258,0.0571 -1.68191,0.0173 z m 1.68168,-2.68754 c -1.39767,-0.27318 -2.61707,-1.23323 -2.65046,-2.08675 -0.15498,-3.96125 0.28549,-8.04014 1.03294,-9.56548 0.41133,-0.83941 0.59793,-0.94609 2.16982,-1.24046 0.94589,-0.17714 2.04721,-0.32941 2.4474,-0.33838 1.23313,-0.0276 0.80347,0.43461 -0.57378,0.61731 -1.97325,0.26176 -2.91029,0.67367 -3.31562,1.4575 -0.40297,0.77926 -1.07936,8.69227 -0.81437,9.52719 0.15256,0.48068 1.85187,1.34627 2.64298,1.34627 0.20675,0 0.4495,0.11906 0.53943,0.26458 0.18012,0.29144 -0.065,0.29446 -1.47834,0.0182 z m 12.45855,-8.61718 c 0,-0.0728 0.23813,-0.37041 0.52917,-0.66145 0.6527,-0.6527 0.68546,-1.31688 0.0661,-1.34083 -0.36864,-0.0143 -0.34167,-0.0764 0.13229,-0.30501 0.41541,-0.20035 0.59532,-0.52003 0.59532,-1.05783 0,-0.96952 0.42993,-1.79425 0.93535,-1.79425 0.23701,0 0.38756,0.25694 0.38756,0.66146 0,0.3638 -0.11532,0.66146 -0.25628,0.66146 -0.14095,0 -0.19076,-0.20836 -0.11069,-0.46303 0.12431,-0.39534 0.0844,-0.38795 -0.27288,0.0506 -0.502,0.6161 -0.54374,1.36823 -0.0877,1.58103 0.26458,0.12347 0.26458,0.18521 0,0.30868 -0.1819,0.0849 -0.33073,0.30472 -0.33073,0.48852 0,0.62664 -0.83144,2.00298 -1.21,2.00298 -0.20763,0 -0.3775,-0.0595 -0.3775,-0.1323 z m -4.34467,-4.63632 c -3.11818,-1.70892 -3.22113,-1.77669 -3.01389,-1.98393 0.0759,-0.0759 1.24858,0.51831 2.606,1.32043 1.35742,0.80212 2.6844,1.52708 2.94884,1.61101 0.26444,0.0839 0.4808,0.26364 0.4808,0.39935 0,0.3317 0.21964,0.4296 -3.02175,-1.34686 z m -8.8845,-1.71368 c 0,-0.56146 0.12241,-0.66145 0.80973,-0.66145 0.77388,0 0.80608,-0.0439 0.7276,-0.99219 -0.0821,-0.99219 -0.0821,-0.99219 -1.80191,-1.05986 -2.5256,-0.0994 -2.84353,-0.21608 -3.04124,-1.11625 -0.0951,-0.43315 -0.0756,-0.93928 0.0434,-1.12473 0.14248,-0.22206 0.26209,-0.021 0.35034,0.58886 0.134,0.92604 0.134,0.92604 2.14302,0.96119 3.13613,0.0549 3.66816,0.32817 3.67547,1.88812 0.004,0.78983 0.0615,0.85052 0.66551,0.69892 0.5993,-0.15041 0.66146,-0.0887 0.66146,0.65642 0,0.82243 0,0.82243 -2.11667,0.82243 -2.08139,0 -2.11667,-0.011 -2.11667,-0.66146 z m 10.38895,-3.80417 c -0.0835,-0.23604 -0.19888,-0.51666 -0.25644,-0.62361 -0.0575,-0.10695 0.25707,-0.12211 0.69917,-0.0337 1.04593,0.20918 2.05183,-0.44341 2.32836,-1.51056 0.11542,-0.44544 0.11665,-2.08193 0.003,-3.63664 -0.11393,-1.55471 -0.23489,-3.42206 -0.2688,-4.14966 -0.0616,-1.32219 -0.0622,-1.32296 -1.04265,-1.40437 -0.53954,-0.0448 -1.22661,0.05 -1.52682,0.21068 -0.70169,0.37553 -1.05331,0.15138 -0.86888,-0.55389 0.13748,-0.52572 0.25654,-0.54605 2.15797,-0.3686 1.10685,0.1033 2.10132,0.32405 2.20993,0.49054 0.2765,0.42391 -0.0171,10.43417 -0.32281,11.00537 -0.15143,0.28295 -0.7858,0.57371 -1.60517,0.73572 -1.16568,0.23048 -1.37597,0.20797 -1.50658,-0.16129 z m -17.80496,-3.14486 c -0.65727,-0.83557 -0.75548,-4.03677 -0.13954,-4.54796 0.70573,-0.58569 2.90692,-0.939 5.37274,-0.86235 2.35403,0.0732 2.4474,0.0992 2.4474,0.68351 0,0.79882 -0.23021,0.99722 -0.80202,0.6912 -0.71325,-0.38172 -3.68155,-0.57571 -5.01882,-0.32799 -1.19062,0.22055 -1.19062,0.22055 -1.10125,1.66554 0.0492,0.79475 0.23847,1.6003 0.4207,1.7901 0.38697,0.40307 3.54882,1.11011 4.96432,1.11011 0.53717,0 1.04814,0.11563 1.13549,0.25697 0.1,0.16172 -1.12292,0.24712 -3.29937,0.2304 -3.36104,-0.0258 -3.47282,-0.0452 -3.97965,-0.68953 z m 4.82061,-6.363 c -0.45579,-0.0674 -0.59024,-0.2364 -0.52917,-0.6652 0.0726,-0.50942 0.21739,-0.56427 1.27249,-0.48189 1.41464,0.11045 1.41904,0.11342 1.19833,0.80882 -0.17034,0.53668 -0.36749,0.57103 -1.94165,0.33827 z m -0.18272,-2.35839 c -0.43656,-0.0622 -0.87746,-0.1935 -0.97976,-0.29188 -0.10231,-0.0984 0.0497,-2.49658 0.33789,-5.32933 0.63593,-6.25177 1.10532,-7.61811 2.79169,-8.12645 1.63875,-0.49398 3.69764,-0.69755 4.20174,-0.41544 0.34205,0.19142 -0.027,0.2916 -1.44916,0.39335 -3.23119,0.23119 -3.77805,1.03551 -4.25828,6.26299 -0.15506,1.68787 -0.39028,3.5451 -0.5227,4.12718 -0.50975,2.24062 -0.30511,2.67512 1.49235,3.16859 1.29665,0.35597 1.29665,0.35597 0.23831,0.33999 -0.58208,-0.009 -1.41552,-0.0668 -1.85208,-0.129 z m 12.83229,-1.49368 c 0,-0.65794 0.071,-0.69527 1.32292,-0.69527 0.97545,0 1.32291,0.10014 1.32291,0.38126 0,0.49962 -0.22842,0.62273 -1.54659,0.83351 -1.05499,0.1687 -1.09924,0.14778 -1.09924,-0.5195 z m 0.46302,-1.93599 c -0.73518,-0.19212 -0.53784,-0.47373 0.37712,-0.53817 0.4615,-0.0325 0.91841,-0.15156 1.01535,-0.26458 0.29903,-0.3486 1.35111,-6.77168 1.40287,-8.56461 0.046,-1.59474 0.0121,-1.70026 -0.57323,-1.78311 -0.34219,-0.0484 -1.45191,0.11527 -2.46605,0.3638 -1.01414,0.24853 -2.13098,0.45187 -2.48187,0.45187 -0.35089,0 -0.57359,0.10418 -0.4949,0.23151 0.0787,0.12733 0.017,0.23151 -0.13711,0.23151 -0.15411,0 -0.2802,-0.27396 -0.2802,-0.6088 0,-0.55003 0.19206,-0.64293 1.9896,-0.96232 1.77355,-0.31513 4.98352,-0.27521 5.32495,0.0662 0.0709,0.071 -0.003,1.24224 -0.16355,2.60288 -0.16089,1.36064 -0.41174,3.66298 -0.55744,5.11631 -0.36103,3.60126 -0.85091,4.20749 -2.95554,3.65749 z m 14.47214,-0.53067 c -0.42157,-0.42156 -0.39864,-0.49298 0.38215,-1.19062 0.45684,-0.40819 1.00734,-0.74216 1.22332,-0.74216 0.69535,0 0.41844,0.78584 -0.46719,1.32582 -0.8599,0.52429 -0.8599,0.52429 -0.0661,0.52933 0.60994,0.004 0.70185,0.0644 0.39688,0.26152 -0.57542,0.37186 -0.9616,0.32352 -1.46901,-0.18389 z m -42.44862,-0.30118 c -0.47511,-0.15648 -0.28548,-0.78553 0.39915,-1.32406 0.36682,-0.28854 0.79518,-0.89249 0.95193,-1.34212 0.37941,-1.08837 0.79307,-1.0533 0.47933,0.0406 -0.43446,1.51486 -0.32122,2.31685 0.32715,2.31685 0.31529,0 0.48371,0.0893 0.37426,0.19844 -0.19855,0.19798 -2.02408,0.27746 -2.53182,0.11024 z m 1.05513,-0.71486 c 0,-0.3242 -0.10682,-0.34902 -0.52917,-0.12299 -0.29104,0.15576 -0.52917,0.33854 -0.52917,0.40618 0,0.0676 0.23813,0.12299 0.52917,0.12299 0.29937,0 0.52917,-0.17639 0.52917,-0.40618 z m 3.70416,0.13329 c 0,-0.15009 0.20836,-0.34192 0.46302,-0.42629 0.25467,-0.0844 1.53459,-0.55725 2.84428,-1.05083 2.59126,-0.97656 2.77812,-1.01979 2.77812,-0.64275 0,0.13919 -0.95805,0.55572 -2.12899,0.92562 -1.17095,0.3699 -2.47472,0.85133 -2.89728,1.06984 -0.90879,0.46996 -1.05915,0.48762 -1.05915,0.12441 z m 33.73227,-1.22106 c -0.72644,-0.38511 -1.7354,-0.98042 -2.24212,-1.32292 -0.50673,-0.34249 -1.07227,-0.62272 -1.25677,-0.62272 -0.1845,0 -0.33546,-0.11906 -0.33546,-0.26458 0,-0.41696 0.28928,-0.32058 1.98438,0.66108 0.87312,0.50565 2.03398,1.11247 2.57968,1.34849 0.54571,0.23603 0.99219,0.53527 0.99219,0.66499 0,0.36939 -0.30366,0.2875 -1.7219,-0.46434 z m -17.96754,-9.62587 c 0.37598,-0.37598 0.96746,-0.56286 1.97702,-0.62464 1.44055,-0.0882 1.44055,-0.0882 1.68468,-1.32283 0.35303,-1.78543 0.15318,-1.89646 -3.2507,-1.80599 -2.54973,0.0678 -2.89644,0.0213 -3.31765,-0.44406 -0.30211,-0.33383 -0.40813,-0.7158 -0.29639,-1.06787 0.14596,-0.45985 0.0616,-0.54813 -0.52372,-0.54813 -0.56564,0 -0.68168,-0.10875 -0.61314,-0.57458 0.0975,-0.66232 0.7424,-0.80132 2.67848,-0.57726 0.99368,0.11499 1.25298,0.24227 1.18836,0.58332 -0.0468,0.24724 -0.3872,0.47157 -0.7856,0.51779 -0.80177,0.093 -1.16578,0.73765 -0.7199,1.2749 0.21438,0.25831 0.98295,0.36333 2.6589,0.36333 2.58425,0 4.04034,0.42689 4.30547,1.26227 0.0902,0.28425 -0.0727,1.06902 -0.36197,1.74394 -0.52601,1.22713 -0.52601,1.22713 -2.37188,1.22713 -1.01523,0 -1.91946,0.11906 -2.00939,0.26458 -0.0899,0.14552 -0.30202,0.26458 -0.47129,0.26458 -0.16927,0 -0.0663,-0.24141 0.22872,-0.53648 z m 8.70923,-5.15529 c 2.53439,-1.22353 2.77813,-1.30896 2.77813,-0.97373 0,0.21947 -0.9336,0.66711 -3.38324,1.62219 -2.22691,0.86825 -1.97304,0.59619 0.60511,-0.64846 z m 5.02621,-0.49386 c -0.47896,-0.35022 -0.48031,-0.39316 -0.0339,-1.07454 0.31474,-0.48036 0.65204,-0.68313 1.04363,-0.62739 0.63056,0.0898 0.56108,0.59823 -0.0829,0.60646 -0.21828,0.003 -0.39688,0.18366 -0.39688,0.40194 0,0.27171 0.23617,0.38025 0.74886,0.34415 0.62652,-0.0441 0.69687,0.01 0.43063,0.33073 -0.40063,0.48272 -1.06497,0.48997 -1.70953,0.0187 z m -19.12875,-2.59657 c -0.87232,-0.19172 -1.20221,-0.4157 -1.41317,-0.95947 -0.51854,-1.33654 0.29776,-8.23127 1.24213,-10.49146 0.33221,-0.79508 0.50593,-0.90091 1.76478,-1.07513 1.93783,-0.26819 5.25255,-0.20296 6.10224,0.12009 0.76578,0.29115 0.74971,0.94622 -0.0279,1.13655 -0.24459,0.0599 -1.57581,-0.0409 -2.95826,-0.22385 -3.70979,-0.49102 -3.67537,-0.49556 -4.10873,0.54162 -0.35717,0.85483 -0.93447,5.66196 -1.01408,8.4441 -0.042,1.46787 0.45263,2.02664 1.79995,2.03339 0.44513,0.002 0.97086,0.10641 1.1683,0.23151 0.77728,0.49251 -0.75594,0.63811 -2.55527,0.24265 z m 18.09486,-10.49425 c -0.21968,-0.35545 0.1539,-2.94524 0.45137,-3.12908 0.17391,-0.10748 0.20454,0.2262 0.0878,0.95626 -0.17931,1.12136 -0.17931,1.12136 0.62116,0.94554 0.6872,-0.15093 0.80048,-0.0993 0.80048,0.36507 0,0.79627 -1.57385,1.48833 -1.96081,0.86221 z m 1.0954,-0.46257 c -0.0879,-0.0879 -0.31612,-0.0973 -0.50712,-0.0209 -0.21106,0.0845 -0.14837,0.14715 0.15985,0.15985 0.27892,0.0115 0.43519,-0.0511 0.34727,-0.13897 z m -4.29397,-1.42102 c -0.29104,-0.12217 -1.18401,-0.41465 -1.98437,-0.64995 -1.59706,-0.46951 -2.75763,-1.09042 -1.5875,-0.8493 1.44753,0.29827 4.34882,1.2377 4.60087,1.48975 0.32787,0.32787 -0.25772,0.33328 -1.029,0.01 z m -9.09029,-1.30056 c -0.22861,-0.14485 -0.29277,-0.43629 -0.17662,-0.80225 0.16324,-0.51434 0.34004,-0.56648 1.68196,-0.49605 1.33389,0.07 1.48931,0.13715 1.40694,0.60786 -0.0509,0.29104 -0.22951,0.61664 -0.39687,0.72355 -0.41772,0.26686 -2.07646,0.24502 -2.51541,-0.0331 z m 0.93231,-2.8512 c -0.43727,-0.43726 -0.13905,-7.177 0.46048,-10.40695 0.69855,-3.76339 1.03135,-4.7545 1.60554,-4.7814 2.78463,-0.13044 3.29996,0.007 2.82716,0.75256 -0.17013,0.26838 -0.41813,0.25127 -1.22114,-0.0843 -1.0721,-0.44795 -1.515,-0.28305 -1.62021,0.60323 -0.0761,0.64154 -0.55353,5.6057 -0.91966,9.56335 -0.32704,3.53508 -0.27627,3.72332 1.00654,3.73205 0.68501,0.005 0.79472,0.40008 0.1768,0.6372 -0.56064,0.21513 -2.09505,0.20467 -2.31551,-0.0158 z m 3.67329,-6.39309 c 0.43856,-0.38295 4.64993,-1.9303 4.96646,-1.8248 0.1669,0.0556 -0.28993,0.31802 -1.01519,0.58307 -0.72527,0.26504 -1.83981,0.70225 -2.47677,0.97155 -1.23092,0.52044 -1.9019,0.64338 -1.4745,0.27018 z m 7.15257,-1.03729 c -0.33316,-0.33317 -0.11781,-0.63674 0.70556,-0.99461 0.8599,-0.37374 0.8599,-0.37374 -0.0156,-0.3841 -0.51418,-0.006 -0.80803,-0.11956 -0.71199,-0.27494 0.0899,-0.14552 0.51368,-0.26458 0.94165,-0.26458 0.68821,0 0.77814,0.0917 0.77814,0.79375 0,0.52916 0.13229,0.79375 0.39687,0.79375 0.21828,0 0.39688,0.10914 0.39688,0.24253 0,0.26263 -2.23785,0.34185 -2.4915,0.0882 z m 1.08039,-0.50712 c -0.097,-0.097 -0.25577,-0.097 -0.35278,0 -0.097,0.097 -0.0176,0.17639 0.17639,0.17639 0.19402,0 0.2734,-0.0794 0.17639,-0.17639 z"
       id="path2538" />
  </g>
</svg>
