<?xml version="1.0" encoding="UTF-8" standalone="no"?>
<!-- Created with Inkscape (http://www.inkscape.org/) -->

<svg
   width="21.49765mm"
   height="8.4079838mm"
   viewBox="0 0 21.49765 8.4079838"
   version="1.1"
   id="svg5"
   inkscape:version="1.1.1 (eb90963e84, 2021-10-02)"
   sodipodi:docname="chadhrave_tyesed.svg"
   xmlns:inkscape="http://www.inkscape.org/namespaces/inkscape"
   xmlns:sodipodi="http://sodipodi.sourceforge.net/DTD/sodipodi-0.dtd"
   xmlns="http://www.w3.org/2000/svg"
   xmlns:svg="http://www.w3.org/2000/svg">
  <sodipodi:namedview
     id="namedview7"
     pagecolor="#ffffff"
     bordercolor="#666666"
     borderopacity="1.0"
     inkscape:pageshadow="2"
     inkscape:pageopacity="0.0"
     inkscape:pagecheckerboard="0"
     inkscape:document-units="mm"
     showgrid="false"
     fit-margin-top="0"
     fit-margin-left="0"
     fit-margin-right="0"
     fit-margin-bottom="0"
     inkscape:zoom="3.0075196"
     inkscape:cx="-16.791245"
     inkscape:cy="14.463746"
     inkscape:window-width="1848"
     inkscape:window-height="1016"
     inkscape:window-x="72"
     inkscape:window-y="27"
     inkscape:window-maximized="1"
     inkscape:current-layer="layer1" />
  <defs
     id="defs2" />
  <g
     inkscape:label="Layer 1"
     inkscape:groupmode="layer"
     id="layer1"
     transform="translate(-127.85239,-167.60533)">
    <path
       style="fill:#000000;stroke-width:0.264583"
       d="m 135.06228,175.44163 c -0.61846,-0.30613 -1.12448,-0.64477 -1.12448,-0.75253 0,-0.62136 3.72545,-2.65919 4.86138,-2.65919 0.6343,0 0.69487,-0.0923 0.69487,-1.05833 0,-0.98428 0.0522,-1.05834 0.74539,-1.05834 0.72409,0 0.74111,0.0322 0.59532,1.12448 -0.15,1.12385 -0.15082,1.12458 -1.473,1.29459 -1.69875,0.21844 -2.59065,0.57683 -3.28188,1.31878 -0.76308,0.81907 -0.69758,1.20982 0.30532,1.8213 1.21051,0.73807 0.18197,0.71415 -1.32292,-0.0308 z m 9.98802,-1.28675 c 0,-0.14095 0.17557,-0.18891 0.39016,-0.10656 0.54776,0.21019 2.10375,-0.81306 2.47483,-1.62749 0.17051,-0.37422 0.31001,-1.31691 0.31001,-2.09485 0,-1.04572 0.10911,-1.45632 0.41852,-1.57505 0.74599,-0.28627 0.78619,-0.18517 0.63636,1.60041 -0.14363,1.71168 -0.18438,1.79323 -1.45398,2.91042 -0.87131,0.76672 -1.55086,1.1494 -2.04105,1.1494 -0.40416,0 -0.73485,-0.11533 -0.73485,-0.25628 z m -14.82321,-2.53907 c -0.14192,-0.37327 -0.25804,-1.07934 -0.25804,-1.56903 0,-0.87832 -0.0116,-0.88702 -0.85815,-0.64423 -1.21683,0.34898 -1.25851,0.33176 -1.25851,-0.51985 0,-0.68787 0.10115,-0.77791 0.99218,-0.88322 0.54571,-0.0645 1.20321,-0.20982 1.46112,-0.32295 0.42685,-0.18723 0.45386,-0.0775 0.301,1.22303 -0.19938,1.69648 0.23142,2.33353 1.22019,1.80436 0.86765,-0.46435 0.91254,-0.13211 0.10467,0.77458 -0.88555,0.99388 -1.36414,1.03243 -1.70446,0.13731 z m 5.29821,0.41948 c 0,-0.14848 0.11632,-0.26996 0.25849,-0.26996 0.14216,0 0.4539,-0.29826 0.69275,-0.66279 0.36182,-0.55219 0.37632,-0.73261 0.0869,-1.08131 -0.28696,-0.34578 -0.69741,-0.38755 -2.36107,-0.24028 -2.32859,0.20613 -2.8661,-0.0923 -2.49537,-1.38563 0.1882,-0.65651 0.21969,-0.67319 0.30887,-0.16368 0.089,0.50868 0.37269,0.60084 2.74278,0.89118 2.9435,0.36057 3.8118,0.83316 3.20998,1.74707 -0.29574,0.44909 -2.44335,1.47343 -2.44335,1.1654 z m -7.14375,-0.92033 c 0,-0.96833 0.5765,-1.5248 1.06923,-1.03207 0.35959,0.35959 -0.11498,1.80196 -0.62523,1.90027 -0.34931,0.0673 -0.444,-0.11784 -0.444,-0.8682 z m 16.10004,0.46612 c 1.1698,-0.57637 1.62064,-1.52305 1.01415,-2.12954 -0.34321,-0.34322 -0.96056,-0.44535 -2.7589,-0.45645 -1.27421,-0.008 -2.46557,-0.10917 -2.64747,-0.22514 -0.3941,-0.25125 -0.44317,-0.97337 -0.0661,-0.97337 0.14552,0 0.23482,0.14882 0.19844,0.33073 -0.0503,0.2514 0.57753,0.31116 2.61743,0.24916 2.82868,-0.086 4.59246,0.33293 4.59246,1.09072 0,0.62222 -1.09173,1.80993 -2.0203,2.19791 -1.25328,0.52365 -2.022,0.45418 -0.92966,-0.084 z"
       id="path3064" />
  </g>
</svg>
