<?xml version="1.0" encoding="UTF-8" standalone="no"?>
<!-- Created with Inkscape (http://www.inkscape.org/) -->

<svg
   xmlns:dc="http://purl.org/dc/elements/1.1/"
   xmlns:cc="http://creativecommons.org/ns#"
   xmlns:rdf="http://www.w3.org/1999/02/22-rdf-syntax-ns#"
   xmlns:svg="http://www.w3.org/2000/svg"
   xmlns="http://www.w3.org/2000/svg"
   xmlns:sodipodi="http://sodipodi.sourceforge.net/DTD/sodipodi-0.dtd"
   xmlns:inkscape="http://www.inkscape.org/namespaces/inkscape"
   width="156.88118mm"
   height="97.615494mm"
   viewBox="0 0 156.88118 97.615494"
   version="1.1"
   id="svg8"
   inkscape:version="0.92.4 (5da689c313, 2019-01-14)"
   sodipodi:docname="narg_an_sitar.svg">
  <defs
     id="defs2" />
  <sodipodi:namedview
     id="base"
     pagecolor="#ffffff"
     bordercolor="#666666"
     borderopacity="1.0"
     inkscape:pageopacity="0.0"
     inkscape:pageshadow="2"
     inkscape:zoom="0.49497475"
     inkscape:cx="-561.30179"
     inkscape:cy="-68.654173"
     inkscape:document-units="mm"
     inkscape:current-layer="layer1"
     showgrid="false"
     inkscape:window-width="1600"
     inkscape:window-height="838"
     inkscape:window-x="-8"
     inkscape:window-y="-8"
     inkscape:window-maximized="1"
     fit-margin-top="0"
     fit-margin-left="0"
     fit-margin-right="0"
     fit-margin-bottom="0" />
  <metadata
     id="metadata5">
    <rdf:RDF>
      <cc:Work
         rdf:about="">
        <dc:format>image/svg+xml</dc:format>
        <dc:type
           rdf:resource="http://purl.org/dc/dcmitype/StillImage" />
        <dc:title></dc:title>
      </cc:Work>
    </rdf:RDF>
  </metadata>
  <g
     inkscape:label="Calque 1"
     inkscape:groupmode="layer"
     id="layer1"
     transform="translate(-11.297971,-5.854152)">
    <path
       style="fill:#000000;stroke-width:0.26458335"
       d="m 50.035261,103.22815 c -0.69272,-0.28013 -1.27421,-1.63257 -1.03118,-2.39832 0.24874,-0.78371 1.90568,-2.583398 2.80816,-3.050088 1.05774,-0.546981 1.52149,-0.470593 1.71031,0.281712 0.15699,0.62551 0.26512,0.661459 1.98942,0.661459 h 1.8234 v -2.592346 -2.592345 l -1.85209,-1.885416 c -1.01864,-1.036976 -1.85208,-2.013548 -1.85208,-2.170155 0,-0.682125 -0.49998,-0.185208 -0.98294,0.976916 -0.28837,0.693912 -1.03799,2.092897 -1.66582,3.108855 -0.62783,1.01596 -1.48078,2.458455 -1.89544,3.205549 -0.91483,1.648211 -2.67752,3.321639 -4.30428,4.086309 -0.66313,0.31171 -1.20569,0.64702 -1.20569,0.74514 0,0.26801 -1.4757,1.08624 -1.95905,1.08624 -0.30779,0 -0.4222,-0.25625 -0.4222,-0.94571 0,-0.76745 0.2369,-1.19334 1.25677,-2.259405 0.69123,-0.722529 1.6961,-1.463823 2.23306,-1.647314 0.70082,-0.23949 1.25324,-0.736246 1.95785,-1.760562 1.33973,-1.947624 3.01899,-5.282978 3.01899,-5.996324 0,-0.321971 0.13444,-0.920575 0.29875,-1.330229 0.16432,-0.409657 0.27989,-1.1688 0.25682,-1.686989 -0.0344,-0.772935 0.14962,-1.137574 1.02454,-2.030124 1.93105,-1.969966 3.90616,-1.996525 4.9045,-0.06594 0.22448,0.434099 0.47567,0.789271 0.55821,0.789271 0.0825,0 0.10986,-1.964532 0.0607,-4.365626 -0.0551,-2.691728 -0.1913,-4.364913 -0.35529,-4.36377 -0.14629,0.0011 -1.25579,0.239143 -2.46555,0.529166 -1.20977,0.290021 -3.02547,0.527312 -4.0349,0.527312 -1.78639,0 -1.83532,-0.01782 -1.83532,-0.668422 0,-0.435335 0.39872,-1.067141 1.14342,-1.811843 1.12866,-1.128665 1.17221,-1.145365 3.37344,-1.293937 1.22651,-0.08278 2.62661,-0.294492 3.11134,-0.470466 l 0.88132,-0.319953 -0.0776,-4.199983 -0.0776,-4.19998 -2.92035,-0.0039 c -3.04111,-0.004 -4.07375,-0.232367 -6.43306,-1.422603 -0.68739,-0.346777 -1.63675,-0.792062 -2.1097,-0.989529 -0.47294,-0.197464 -0.85989,-0.449024 -0.85989,-0.559022 0,-0.109985 -0.16446,-0.199983 -0.36547,-0.199983 -0.20101,0 -0.69191,-0.427977 -1.09088,-0.951058 -0.67884,-0.889998 -0.71778,-1.082829 -0.6066,-3.003365 0.13103,-2.2635 0.5812,-3.166803 2.18961,-4.393597 1.79734,-1.370896 3.23359,-0.68576 2.01568,0.961546 -0.80644,1.090771 -0.72516,2.385685 0.21277,3.389741 0.42219,0.451954 0.94339,0.821733 1.15823,0.821733 0.21484,0 0.53883,0.178594 0.71999,0.396875 0.18116,0.218281 0.57332,0.396875 0.87146,0.396875 0.29815,0 0.74464,0.183311 0.99221,0.407358 0.76309,0.690586 3.21611,1.444725 4.69932,1.444725 h 1.41109 l -0.0844,-7.274174 -0.0844,-7.274174 -0.8599,-0.0019 c -0.64167,-0.0013 -0.86096,0.115639 -0.86412,0.461153 -0.008,0.90066 -2.27843,2.976563 -3.25518,2.976563 -0.44232,0 -0.47835,-0.149919 -0.33391,-1.389063 0.0891,-0.763984 0.23135,-2.898818 0.31621,-4.744077 0.14516,-3.156252 0.19586,-3.400317 0.85581,-4.119743 0.91974,-1.002636 1.89589,-1.653368 2.48017,-1.653368 0.41584,0 0.4703,0.275751 0.4703,2.38125 0,2.378255 7.9e-4,2.38125 0.67707,2.38125 0.37239,0 0.61694,-0.0973 0.54345,-0.216209 -0.0735,-0.118917 -0.14901,-2.708527 -0.16782,-5.754688 l -0.0342,-5.538495 -1.08332,-0.992187 -1.08332,-0.992188 h -4.00664 -4.00665 l -0.7771,0.825368 c -0.99607,1.057921 -4.84751,4.195459 -5.53961,4.512781 -0.46437,0.212908 -0.52917,0.49988 -0.52917,2.343487 0,1.741522 0.0679,2.081445 0.39688,1.987306 0.21828,-0.06246 2.83766,-0.147653 5.82083,-0.189319 l 5.42396,-0.07576 0.0841,0.586554 c 0.11806,0.823087 -2.32125,3.353996 -3.76345,3.904779 -0.85757,0.32751 -1.86937,0.405395 -4.44337,0.342043 l -3.33295,-0.08203 0.14288,0.926042 c 0.0786,0.509323 0.15578,0.932773 0.17156,0.941001 0.0158,0.0082 1.21933,-0.06316 2.67453,-0.158647 1.45521,-0.09549 2.75232,-0.07908 2.88247,0.03646 0.772,0.685353 -2.51734,4.305917 -4.19854,4.621311 -0.4942,0.09271 -0.99557,0.109117 -1.11415,0.03645 -0.11859,-0.07266 -0.21863,0.387342 -0.22232,1.022234 -0.007,1.273781 -0.0152,1.271688 2.21388,0.592613 1.89031,-0.57586 1.78649,0.885249 -0.20759,2.921747 -0.72174,0.737087 -1.48627,1.676672 -1.69896,2.087967 -0.5334,1.0315 -2.94939,3.244692 -3.542,3.244692 -0.37607,0 -0.56217,-0.34394 -0.82317,-1.521355 l -0.33726,-1.521354 -1.23868,0.07429 c -2.37372,0.142359 -2.4902,-0.877419 -0.34638,-3.032538 1.11091,-1.116774 1.30877,-1.474962 1.39197,-2.519966 0.0533,-0.669983 0.0267,-1.174702 -0.0592,-1.1216 -0.0859,0.0531 -1.1277,0.168732 -2.3151,0.256958 -2.02818,0.150698 -2.1589,0.128741 -2.1589,-0.362628 0,-0.750168 1.93948,-3.098615 3.12022,-3.778165 0.87024,-0.500841 1.00931,-0.71328 1.04449,-1.595499 l 0.0406,-1.017725 -1.50733,0.0041 c -0.82904,0.0021 -2.45086,0.241787 -3.60405,0.532337 -1.15319,0.290552 -2.31405,0.459295 -2.57969,0.374983 -0.96179,-0.30526 -0.37272,-1.659353 1.45603,-3.346948 0.74798,-0.690252 3.01726,-1.562742 4.94016,-1.899388 0.88771,-0.155411 0.92604,-0.208693 0.92604,-1.28702 V 37.20726 l -1.49147,0.08814 c -1.11865,0.06611 -2.12805,-0.115774 -4.03806,-0.727605 -1.40062,-0.448672 -2.676,-0.815758 -2.83416,-0.815758 -0.15817,0 -0.66276,-0.161861 -1.12132,-0.359693 -0.45855,-0.197831 -1.16116,-0.492934 -1.56134,-0.655785 -0.56788,-0.231093 -0.7276,-0.471589 -0.7276,-1.095516 0,-0.439682 -0.0931,-0.799422 -0.20682,-0.799422 -0.24168,0 -0.77479,-1.767883 -1.01299,-3.359169 -0.12967,-0.866278 -0.29005,-1.127878 -0.72996,-1.190624 -0.46494,-0.06632 -0.6235,0.128314 -0.90443,1.110209 -0.18736,0.654844 -0.38529,1.547813 -0.43984,1.984375 -0.1584,1.267659 -0.56619,2.097744 -1.51164,3.077052 -1.35117,1.399558 -2.34637,2.082323 -3.03521,2.082323 -0.6891,0 -0.74842,-0.227689 -0.37427,-1.436423 0.70315,-2.271559 1.07141,-4.171021 1.07141,-5.526246 v -1.503992 h -1.56586 c -1.91698,0 -2.40289,-0.169439 -2.40289,-0.837895 0,-0.660563 2.53786,-3.358257 3.35136,-3.562434 0.58397,-0.146566 0.61739,-0.272329 0.61739,-2.323429 0,-1.932318 0.0826,-2.298682 0.75823,-3.364082 0.88538,-1.39611 2.76941,-3.020534 3.80457,-3.280344 0.95342,-0.239292 1.23303,0.437964 0.64515,1.562624 -0.31154,0.595985 -0.45176,1.689451 -0.50459,3.934725 l -0.0732,3.109375 0.9854,-5.29e-4 c 0.8056,-4.16e-4 1.05517,-0.133266 1.36784,-0.728115 1.23274,-2.345277 5.41997,-5.084938 10.84305,-7.094492 1.4467,-0.536083 7.89103,-0.524537 9.42559,0.01689 0.61867,0.218281 1.44059,0.396875 1.82648,0.396875 0.97211,0 1.80396,0.649536 2.00519,1.565726 0.0932,0.424225 0.32738,0.831936 0.52045,0.906024 0.19307,0.07409 0.41571,0.59005 0.49475,1.146583 0.079,0.556532 0.2786,1.726251 0.44346,2.599376 0.16487,0.873125 0.24139,1.885156 0.17004,2.248958 l -0.12973,0.661459 4.55272,-0.08252 4.55272,-0.08252 1.50679,1.140854 c 2.30431,1.744699 2.34717,1.938418 2.25692,10.203019 l -0.0758,6.945498 4.26379,-1.85e-4 c 3.86922,-1.69e-4 4.32633,-0.04937 4.93948,-0.531675 0.37162,-0.292319 1.04253,-0.604858 1.49089,-0.694531 0.73274,-0.146548 0.81521,-0.09759 0.81521,0.483865 0,0.892728 -1.63649,2.724314 -3.27252,3.662656 -1.3153,0.754391 -1.46762,0.778777 -4.87903,0.781185 -1.93674,0.0013 -3.46768,0.09178 -3.40209,0.200919 0.0656,0.109141 0.16191,3.395277 0.21405,7.302525 l 0.0948,7.104087 1.57454,-0.17793 c 0.866,-0.09786 1.80395,-0.300707 2.08435,-0.450768 0.28039,-0.150064 1.11966,-0.37284 1.86504,-0.495065 0.74538,-0.122221 1.71242,-0.295703 2.14899,-0.385516 0.43656,-0.08981 1.05202,-0.215456 1.36769,-0.27921 0.41435,-0.08368 0.69558,-0.482137 1.0114,-1.432975 0.60099,-1.809404 0.46723,-2.482477 -0.52701,-2.65189 -0.63253,-0.107778 -0.81106,-0.285972 -0.87899,-0.877319 -0.0674,-0.587079 0.1674,-0.994701 1.12431,-1.95162 1.10085,-1.100846 1.2953,-1.195633 2.16375,-1.054703 0.5248,0.08516 1.25411,0.351359 1.62068,0.591545 0.63549,0.416385 0.66061,0.528365 0.54001,2.407425 -0.0695,1.083901 -0.26301,2.107267 -0.42989,2.274145 -0.16687,0.166878 -0.30341,0.683445 -0.30341,1.147926 0,1.767346 -4.5735,5.399657 -6.7988,5.399657 -0.42256,0 -0.88139,0.108088 -1.01964,0.240192 -0.13824,0.132106 -0.84667,0.301148 -1.57427,0.375647 -0.7276,0.0745 -1.88927,0.291327 -2.58148,0.481838 l -1.25857,0.346385 0.15402,8.339947 c 0.0847,4.586973 0.27537,9.173388 0.42369,10.192034 0.14833,1.018646 0.33236,3.10224 0.40895,4.630209 0.0766,1.527969 0.28326,2.984129 0.45924,3.235915 0.41556,0.59454 2.67642,2.320335 3.03974,2.320335 0.15425,0 0.28045,0.09606 0.28045,0.213469 0,0.180086 2.51861,1.445363 4.36563,2.193168 1.15409,0.467262 2.71161,0.765485 4.0052,0.766887 1.12213,0.0013 1.59433,-0.160142 2.7056,-0.924565 1.54754,-1.064515 2.41732,-1.202587 2.41732,-0.383736 0,1.503722 -2.03328,3.589414 -4.34093,4.452815 -2.17782,0.81483 -6.14568,0.68905 -7.89246,-0.250171 -0.25268,-0.135869 -0.62972,-0.247033 -0.83784,-0.247033 -0.20813,0 -0.41811,-0.0893 -0.46662,-0.198438 -0.0485,-0.10914 -0.62397,-0.467857 -1.27881,-0.79715 -0.65485,-0.32929 -1.54402,-0.813125 -1.97595,-1.075187 l -0.78531,-0.476478 -1.16476,1.582209 c -1.58597,2.154388 -2.51251,2.965728 -4.60019,4.028228 -1.52556,0.77641 -2.035,0.90317 -3.57188,0.88879 -0.9859,-0.009 -2.04149,-0.11744 -2.34577,-0.24049 z m 4.51739,-1.17898 c 1.92213,-0.80311 3.63842,-2.180281 5.0521,-4.053862 1.60269,-2.124077 2.00726,-2.281507 3.55558,-1.383569 0.50705,0.294063 1.90442,1.0234 3.10527,1.62075 1.92842,0.959268 2.45364,1.100849 4.49792,1.212493 1.92147,0.104936 2.56553,0.03143 3.79233,-0.432829 0.81277,-0.307579 1.7467,-0.845487 2.07538,-1.195356 l 0.5976,-0.636119 -1.01704,0.362627 c -2.31689,0.826093 -4.93208,0.350615 -9.02072,-1.640084 -2.16969,-1.056394 -3.40691,-1.858748 -4.56406,-2.959854 l -1.58748,-1.510593 v -2.375948 c 0,-1.306772 -0.12691,-2.791881 -0.28203,-3.300244 -0.41682,-1.366086 -0.88396,-20.848691 -0.51067,-21.298475 0.32112,-0.386927 3.5934,-1.453947 4.45889,-1.453947 0.92609,0 3.54837,-0.767873 4.93277,-1.444447 2.71754,-1.328103 3.99894,-3.396007 4.29693,-6.934333 0.10006,-1.188191 0.0415,-1.406755 -0.44724,-1.668304 -0.70457,-0.377076 -1.34478,-0.18134 -2.12569,0.649899 l -0.60866,0.647885 0.83139,0.776637 c 0.94006,0.878144 1.01314,1.443776 0.43716,3.38333 -0.60494,2.037043 -0.68653,2.08339 -5.29431,3.007466 -0.58208,0.116735 -2.02847,0.425982 -3.2142,0.687216 -3.2276,0.711086 -3.40372,0.578887 -3.62207,-2.718779 -0.0949,-1.432354 -0.17306,-4.951574 -0.17382,-7.820491 -0.001,-4.887088 0.0309,-5.233493 0.51041,-5.490105 0.28147,-0.15064 1.98457,-0.273891 3.78466,-0.273891 3.17663,0 3.30942,-0.02318 4.51531,-0.787924 0.68333,-0.433356 1.24258,-0.820309 1.24277,-0.859896 1.9e-4,-0.03958 -2.01721,-0.03445 -4.4831,0.0114 -2.85645,0.05313 -4.67664,-0.02 -5.01583,-0.201538 -0.51135,-0.273667 -0.53545,-0.581851 -0.61013,-7.801558 l -0.0778,-7.516626 -0.66145,-0.708216 c -1.66388,-1.781487 -1.85144,-1.835678 -6.85102,-1.979397 -3.73007,-0.107225 -4.64048,-0.20749 -4.80484,-0.529166 -0.11152,-0.218282 -0.33456,-1.289844 -0.49563,-2.38125 -0.44458,-3.01248 -0.63224,-3.737818 -1.28347,-4.960938 -0.48604,-0.912858 -0.73821,-1.124479 -1.33996,-1.124479 -0.40768,0 -1.2921,-0.1877 -1.96539,-0.417111 -0.94202,-0.320978 -2.06575,-0.397202 -4.87578,-0.330729 -3.58258,0.08475 -3.69415,0.105538 -5.90058,1.099535 -4.15953,1.873867 -6.99585,3.929959 -8.36571,6.064451 -0.604,0.941142 -0.70873,0.992187 -2.03573,0.992187 -0.76944,0 -1.54185,-0.142875 -1.71648,-0.3175 -0.21569,-0.215693 -0.32098,-1.509491 -0.32835,-4.034896 l -0.0109,-3.717396 -1.07793,1.190625 c -1.37999,1.524258 -1.5462,1.995046 -1.5462,4.379531 v 1.963832 l -0.99219,0.635928 c -0.5457,0.34976 -1.40249,1.065629 -1.90398,1.590819 l -0.9118,0.954891 h 1.58648 c 0.88116,0 1.72765,0.141156 1.90399,0.3175 0.44835,0.44835 0.4005,3.822727 -0.0765,5.395137 -0.6786,2.236934 -0.52582,2.520556 0.65466,1.215314 1.06615,-1.178841 1.2926,-1.713392 1.87003,-4.414409 0.43132,-2.017521 0.62186,-2.248959 1.85157,-2.248959 1.28732,0 1.72939,0.459363 1.96073,2.037412 0.10239,0.698433 0.41445,1.79103 0.69347,2.427993 0.27901,0.636961 0.5073,1.319972 0.5073,1.517804 0,0.45262 1.18122,0.953635 5.02708,2.132245 2.47045,0.757097 3.32682,0.907595 4.5533,0.800201 0.97281,-0.08518 1.59578,-0.02381 1.74988,0.172392 0.34534,0.439692 0.60188,3.150473 0.33811,3.572653 -0.12287,0.196667 -0.92329,0.531823 -1.7787,0.744788 -0.85541,0.212969 -1.94521,0.486675 -2.42178,0.608238 -1.01913,0.259958 -2.57454,1.386975 -2.99282,2.168543 -0.22332,0.417277 -0.219,0.503661 0.0179,0.35728 0.6767,-0.418226 3.40374,-0.910767 5.09213,-0.919707 1.56266,-0.0083 1.82605,0.06321 2.15861,0.585888 0.39297,0.617619 0.52813,2.53755 0.21141,3.002947 -0.0996,0.146373 -0.59783,0.519882 -1.10715,0.830024 -0.50932,0.31014 -1.32182,0.973474 -1.80555,1.474074 l -0.87951,0.910182 2.07013,-0.03283 2.07012,-0.03283 0.0791,1.824122 0.0791,1.824125 -1.40202,1.342636 -1.40202,1.342639 1.32292,0.140531 c 1.30626,0.138761 1.32814,0.156263 1.73775,1.390272 l 0.41483,1.249741 1.07562,-1.117449 c 0.59159,-0.614598 1.2249,-1.415106 1.40734,-1.778908 0.18245,-0.363802 0.73214,-0.997548 1.22153,-1.408324 1.14792,-0.96352 1.12232,-1.23751 -0.11561,-1.23751 -1.3334,0 -1.64042,-0.371395 -1.64042,-1.984375 0,-1.485519 0.31592,-1.984375 1.25668,-1.984375 0.87039,0 1.89567,-0.587401 2.96241,-1.697217 l 0.9118,-0.948616 h -2.28586 c -2.06221,0 -2.32616,-0.05754 -2.69774,-0.58804 -0.48823,-0.697055 -0.54394,-2.349058 -0.0944,-2.798627 0.21395,-0.213956 1.42476,-0.3175 3.71266,-0.3175 3.87228,0 4.5957,-0.208844 6.07977,-1.755146 l 0.98181,-1.022979 -5.37274,0.07632 c -4.1413,0.05883 -5.43451,-0.0019 -5.64221,-0.264584 -0.1482,-0.187494 -0.33909,-1.378675 -0.4242,-2.647069 -0.15252,-2.273105 -0.1445,-2.314017 0.55935,-2.853564 3.01053,-2.307735 4.07735,-3.180948 5.39081,-4.412456 l 1.50171,-1.40802 h 4.34722 4.34722 l 1.19916,0.915625 c 0.67218,0.513247 1.3284,1.286375 1.49325,1.759276 0.18098,0.519136 0.2941,3.063875 0.2941,6.61569 0,5.435859 -0.0298,5.787993 -0.51177,6.045936 -1.62662,0.87054 -2.66323,-0.08418 -2.66323,-2.452863 0,-1.704779 -0.25359,-1.844095 -1.15618,-0.635174 -0.45318,0.606996 -0.51902,1.067448 -0.47052,3.29061 0.031,1.421672 -0.0645,2.993694 -0.21226,3.493378 -0.14776,0.499684 -0.22321,0.953966 -0.16766,1.009513 0.16246,0.162457 1.47746,-1.352294 1.47746,-1.701888 0,-0.509077 1.10453,-1.142185 1.99267,-1.142185 1.66071,0 1.64204,-0.08324 1.84464,8.222833 0.21467,8.801102 0.30834,8.445918 -2.22729,8.445918 -0.83995,0 -2.1709,-0.225476 -2.95767,-0.50106 -2.23682,-0.783498 -5.78365,-2.633242 -6.47074,-3.374623 -0.8503,-0.917488 -1.09972,-2.706613 -0.53511,-3.838403 l 0.43291,-0.867791 -0.82583,0.785209 c -1.17366,1.115933 -1.57233,2.018467 -1.57233,3.559503 0,1.905003 0.50627,2.503239 3.28435,3.88098 3.88826,1.928315 4.21585,2.016453 7.29898,1.963828 3.9471,-0.06738 3.76923,-0.297151 3.9158,5.058788 0.0799,2.920635 0.0219,4.538967 -0.17617,4.908966 -0.33759,0.630806 -3.16367,1.389187 -5.17675,1.389187 -0.96081,0 -1.37281,0.156861 -2.06444,0.785995 l -0.86407,0.785992 1.23588,0.0078 c 0.67974,0.0043 2.27845,-0.239853 3.55269,-0.542486 3.08044,-0.731602 3.40698,-0.585885 3.6379,1.623399 0.27531,2.634017 0.20688,8.914464 -0.0921,8.451842 -0.14107,-0.218281 -0.26013,-0.277812 -0.26458,-0.132291 -0.004,0.14552 -0.10878,0.105772 -0.23182,-0.08833 -0.17904,-0.282448 -0.25687,-0.266496 -0.38979,0.07989 -0.0971,0.252952 -0.0574,0.36563 0.0955,0.271153 0.14385,-0.08891 0.26155,-0.03556 0.26155,0.118549 0,0.533432 -0.77106,0.277259 -1.24442,-0.413435 -1.4842,-2.165655 -2.05559,-2.272671 -3.59253,-0.672844 -0.66067,0.6877 -0.96617,1.277303 -1.05078,2.027936 -0.17133,1.520172 -0.96901,4.333839 -1.55645,5.490105 -0.27724,0.545703 -0.45604,0.992187 -0.39733,0.992187 0.20985,0 1.92823,-3.069555 2.52316,-4.507145 0.53268,-1.287158 0.69542,-1.463321 1.34431,-1.455209 0.58271,0.0073 1.21854,0.519348 3.01761,2.430214 l 2.27935,2.420986 v 2.921825 c 0,3.565875 -0.14482,3.745585 -3.01838,3.745585 -1.53017,0 -1.94657,-0.09795 -2.4577,-0.578133 l -0.6154,-0.578133 -0.94473,0.908862 c -1.3179,1.267874 -1.48113,1.644814 -1.006,2.323164 0.32618,0.46568 0.66458,0.57007 1.848,0.57007 0.79679,0 1.85571,-0.17006 2.35316,-0.3779 z m -21.3221,-68.529691 c -0.0638,-0.06376 -1.15451,-0.416899 -2.42389,-0.784749 -2.68174,-0.77714 -3.65445,-1.414725 -4.58763,-3.007075 -0.64448,-1.099728 -0.67113,-1.305801 -0.58822,-4.548285 0.10149,-3.969121 0.13344,-4.02954 2.8365,-5.364756 1.71828,-0.84877 1.81989,-0.86503 5.92429,-0.948055 3.14356,-0.06359 4.48456,0.01237 5.42396,0.307248 0.68636,0.215447 1.56451,0.461368 1.95144,0.54649 0.70911,0.155996 1.57281,1.552905 1.89643,3.067194 0.0778,0.363802 0.26587,1.137709 0.41805,1.719792 0.15217,0.582083 0.27952,1.910503 0.28299,2.952044 l 0.006,1.89371 -1.38906,1.255586 c -0.76398,0.69057 -2.0186,1.545812 -2.78804,1.900536 -1.28555,0.592659 -1.44883,0.612286 -2.01386,0.242062 -0.59219,-0.388009 -0.9528,-1.413729 -0.9528,-2.710095 0,-0.382141 0.4078,-0.995029 1.06928,-1.607059 1.58761,-1.468909 2.10572,-2.454403 2.10572,-4.005261 0,-1.594715 -0.52366,-2.29055 -1.56402,-2.078237 -3.19715,0.652467 -4.15073,1.075881 -5.66768,2.516596 -1.22037,1.159039 -1.76413,2.130809 -1.76413,3.152733 0,0.928876 0.96757,1.911344 1.88236,1.911344 0.96455,0 1.29264,0.48116 1.29264,1.895692 0,0.975616 -0.11572,1.322623 -0.51177,1.534583 -0.57161,0.305917 -0.67202,0.324824 -0.83888,0.157962 z m 0.34828,-1.819217 c -0.0931,-0.797547 -0.17103,-0.866736 -0.86188,-0.765339 -0.60069,0.08816 -0.92781,-0.07278 -1.5643,-0.769652 -0.67789,-0.742193 -0.80478,-1.09546 -0.80478,-2.240448 0,-2.914441 2.99404,-5.506056 7.48938,-6.482727 2.67437,-0.581042 3.61198,0.191439 3.61922,2.981817 0.005,1.993396 -0.25258,2.581445 -1.85876,4.240788 -1.21065,1.250716 -1.33901,1.493355 -1.21221,2.29151 0.078,0.490974 0.19491,0.945764 0.25979,1.010645 0.1735,0.173506 2.04962,-0.833602 2.81508,-1.511147 0.3638,-0.322016 0.92934,-0.764045 1.25677,-0.982281 0.50695,-0.337902 0.59531,-0.632049 0.59531,-1.981821 0,-1.497122 -0.52797,-4.199965 -1.04809,-5.365574 -0.12988,-0.291042 -0.2805,-0.695689 -0.33473,-0.899216 -0.20802,-0.780703 -2.79673,-1.217451 -7.21614,-1.217451 -4.22496,0 -4.2368,0.0017 -5.98565,0.849336 -1.20897,0.585981 -1.80264,1.037199 -1.91462,1.455208 -0.0893,0.33323 -0.16392,1.871216 -0.16591,3.417747 -0.003,2.179944 0.0856,2.885897 0.39326,3.141251 0.21829,0.181158 0.39688,0.552924 0.39688,0.826146 0,0.327787 0.18843,0.496771 0.55394,0.496771 0.30861,0 0.60848,0.20859 0.6771,0.470995 0.0895,0.342239 0.70153,0.608788 2.23887,0.975056 1.16363,0.277236 2.17565,0.60107 2.24892,0.719633 0.30429,0.492347 0.51815,0.157673 0.42255,-0.661247 z m 11.20653,67.864849 c 0.59182,-0.296418 1.24493,-0.742445 1.45135,-0.991177 0.76548,-0.922343 -2.25618,0.888214 -3.18884,1.910736 -0.77439,0.849 -0.79606,0.90096 -0.1323,0.31732 0.43657,-0.38387 1.27797,-0.940464 1.86979,-1.236879 z m 3.10611,-2.938524 c 0.70641,-1.203148 0.36865,-0.988237 -0.48781,0.310388 -0.40789,0.618464 -0.57254,0.984806 -0.36589,0.814091 0.20665,-0.170712 0.59081,-0.676727 0.8537,-1.124479 z m 9.36005,-18.326202 c -0.0845,-0.211066 -0.14715,-0.148373 -0.15985,0.159854 -0.0115,0.278913 0.051,0.435184 0.13897,0.347265 0.0879,-0.08792 0.0973,-0.316124 0.0209,-0.507119 z m -0.52916,-24.077084 c -0.0845,-0.211067 -0.14716,-0.148373 -0.15986,0.159853 -0.0115,0.278913 0.0511,0.435184 0.13897,0.347266 0.0879,-0.08792 0.0973,-0.316125 0.0209,-0.507119 z m -17.43437,-1.643497 c -0.18764,-0.203605 -0.38285,-0.330589 -0.43381,-0.282186 -0.15693,0.149082 0.24081,0.652375 0.51556,0.652375 0.14268,0 0.10588,-0.166584 -0.0817,-0.370189 z M 38.758821,39.61522 c -0.18764,-0.203605 -0.38285,-0.330589 -0.4338,-0.282186 -0.15694,0.149082 0.2408,0.652375 0.51556,0.652375 0.14267,0 0.10588,-0.166584 -0.0818,-0.370189 z m 63.822169,60.43252 c -0.67426,-0.68788 -1.09692,-1.403237 -1.21154,-2.050524 -0.0968,-0.546753 -0.367,-1.648939 -0.60041,-2.449303 -0.23341,-0.800365 -0.42764,-2.437578 -0.43163,-3.638254 l -0.007,-2.183043 -4.572359,2.3e-4 c -4.92458,2.51e-4 -5.06637,-0.04183 -4.72496,-1.402125 0.25694,-1.023739 2.74639,-3.314002 4.14039,-3.809106 1.59175,-0.565341 1.45895,-1.040117 -0.353,-1.262023 -3.60133,-0.441047 -6.22735,-1.842868 -5.89947,-3.149251 0.19741,-0.786514 2.71697,-3.308302 3.50232,-3.505414 0.42808,-0.10744 0.79879,0.04268 1.27068,0.514575 0.79566,0.79566 1.08453,0.896749 3.79496,1.328041 l 2.09292,0.333031 0.503919,-1.336767 c 0.67468,-1.789777 0.76674,-8.719091 0.11231,-8.454042 -0.599399,0.242763 -3.417329,0.670317 -4.756999,0.721763 -1.6014,0.06149 -1.68004,-0.510887 -0.27902,-2.030818 1.146,-1.243274 2.9048,-2.024716 4.55704,-2.024716 h 0.876799 l -0.19064,-2.976563 c -0.10484,-1.637109 -0.18343,-4.167188 -0.17462,-5.622396 0.009,-1.455208 -0.0671,-2.854092 -0.16879,-3.108627 -0.167969,-0.420645 -0.256369,-0.402571 -0.970629,0.198438 -0.80428,0.676756 -2.16245,0.886224 -2.47432,0.381608 -0.3359,-0.543515 0.14622,-1.507458 1.36209,-2.723338 0.67671,-0.676706 1.32127,-1.230373 1.43236,-1.230373 0.11109,0 0.24583,-0.459856 0.29943,-1.021903 0.0946,-0.991714 0.077,-1.016021 -0.59679,-0.822796 -0.38183,0.109509 -0.94113,0.33124 -1.24289,0.492736 -0.69774,0.37342 -3.14245,0.38358 -3.37086,0.014 -0.71102,-1.150442 2.2832,-4.218284 4.11707,-4.218284 0.93154,0 1.00022,-0.05582 1.09788,-0.892386 0.10217,-0.875091 0.0898,-0.887368 -0.63909,-0.633281 -0.4088,0.142508 -1.1868,0.206439 -1.72888,0.142066 -0.54208,-0.06437 -1.36873,0.04201 -1.837,0.236405 -0.46827,0.194395 -1.19787,0.353446 -1.62134,0.353446 -0.42346,0 -1.19737,0.178594 -1.71979,0.396875 -2.78287,1.162759 -3.40781,-0.267538 -1.11757,-2.55778 0.91829,-0.918289 1.64982,-1.340456 3.27816,-1.891834 1.15284,-0.390369 2.3913,-0.709761 2.75213,-0.709761 0.57413,0 2.27608,-0.459872 2.55456,-0.69025 0.0549,-0.04539 0.18252,-0.533728 0.28368,-1.085199 l 0.183929,-1.002676 -2.856279,0.08252 -2.85628,0.08252 -0.80084,-0.819248 c -0.44046,-0.450588 -0.80084,-0.993738 -0.80084,-1.207003 0,-0.213265 -0.11906,-0.387752 -0.26458,-0.387752 -0.14552,0 -0.26459,-0.156144 -0.26459,-0.346986 0,-0.190841 -0.21828,-0.581284 -0.48507,-0.867648 -0.54558,-0.58561 -0.9183,-2.069579 -0.94094,-3.746304 -0.008,-0.618464 -0.10521,-1.124479 -0.21525,-1.124479 -0.11003,0 -0.44681,0.446484 -0.74838,0.992187 -2.17152,3.92942 -4.14392,5.88698 -5.93159,5.88698 -1.01345,0 -0.85885,-0.757391 0.51603,-2.527954 0.99126,-1.276548 1.19062,-1.724911 1.19062,-2.677668 v -1.144383 h -2.09502 c -1.15227,0 -2.28336,-0.07227 -2.51355,-0.160599 -0.7372,-0.28289 -0.45178,-1.14942 0.82993,-2.519673 1.43514,-1.534283 2.53319,-2.185908 3.34412,-1.984538 0.54536,0.135424 0.56865,0.05038 0.61546,-2.247162 0.0534,-2.622841 0.23374,-3.064887 1.88654,-4.625122 1.00331,-0.947116 1.9241,-1.343547 2.4154,-1.039909 0.17633,0.108979 0.27962,1.638846 0.27962,4.141566 0,2.578459 0.0927,3.911467 0.26458,3.805229 0.14553,-0.08994 0.26459,-0.409893 0.26459,-0.711013 0,-1.633094 4.34124,-6.824914 6.35067,-7.594955 0.50895,-0.195037 1.58021,-0.602039 2.38058,-0.904448 0.800359,-0.302408 1.600699,-0.676417 1.778529,-0.83113 0.17783,-0.154713 0.5188,-1.232876 0.7577,-2.395918 0.71778,-3.494266 3.06395,-5.951079 5.68308,-5.951079 1.2907,0 1.00204,1.306567 -0.70145,3.175 -0.42402,0.4650742 -0.67349,1.191696 -0.84026,2.447396 l -0.23718,1.785938 h 3.0058 c 2.61981,0 3.02821,0.05946 3.18029,0.463021 0.096,0.254661 0.50895,0.927369 0.91774,1.494905 0.40879,0.567538 0.74325,1.186699 0.74325,1.375916 0,0.189217 0.14883,0.439243 0.33073,0.555615 0.1819,0.116371 0.5643,0.628303 0.84978,1.137626 0.4499,0.802674 0.5204,1.45476 0.52916,4.894792 0.01,3.851064 -0.0106,4.000134 -0.6868,5.027084 -2.04294,3.102393 -7.05598,7.008437 -10.151,7.90942 -0.41118,0.119698 -0.52916,0.381781 -0.52916,1.17548 v 1.02144 l 1.85208,-0.126291 c 1.01865,-0.06946 2.05262,-0.230028 2.29771,-0.356817 0.24509,-0.126788 0.8146,-0.230523 1.26557,-0.230523 0.45096,0 1.40733,-0.297657 2.12526,-0.661459 1.57582,-0.798525 2.38125,-0.856141 2.38125,-0.170338 0,0.634119 -1.53797,2.646069 -2.70052,3.532793 -1.10503,0.842843 -3.93044,2.060022 -4.76141,2.051201 -0.33432,-0.0035 -0.99481,0.07036 -1.46776,0.164245 -0.6853,0.136044 -0.85989,0.300281 -0.85989,0.808924 0,0.621575 0.0204,0.627692 0.78061,0.234553 0.42934,-0.222017 1.11394,-0.404333 1.52135,-0.405146 0.40741,-7.93e-4 1.2015,-0.12941 1.76465,-0.285776 1.87251,-0.51993 1.98306,0.664861 0.23974,2.569213 -1.24742,1.362628 -2.23197,1.994903 -3.30001,2.119259 -0.95707,0.111432 -0.89,0.06401 -1.11144,0.786009 -0.16181,0.527587 -0.0971,0.550262 1.2239,0.429125 0.76711,-0.07034 1.59527,-0.231704 1.84037,-0.358582 0.82689,-0.428059 1.80333,-0.277434 1.80333,0.278178 0,0.857028 -2.29937,3.381393 -3.79061,4.161536 -0.74769,0.391155 -0.74786,0.39184 -0.57763,2.424494 0.0936,1.118277 0.19208,3.848934 0.21873,6.068127 l 0.0485,4.034896 h 2.16262 c 1.18945,0 2.76703,-0.139513 3.50573,-0.310026 1.29691,-0.299363 1.3431,-0.341609 1.3431,-1.228423 0,-0.747853 0.2428,-1.161193 1.3075,-2.225887 2.13751,-2.137514 2.25094,-1.97063 2.33678,3.438043 0.0809,5.095527 -0.0377,5.589242 -1.63554,6.807944 -0.49624,0.378497 -1.24038,0.712074 -1.65366,0.741284 -0.6076,0.04294 -0.76841,-0.06667 -0.84023,-0.572723 -0.0488,-0.344204 0.0403,-0.75497 0.19817,-0.912812 0.23485,-0.234845 0.44143,-3.369181 0.22084,-3.35057 -0.0364,0.0031 -0.89958,0.300207 -1.91823,0.660305 -1.21836,0.430702 -2.42325,0.655121 -3.52135,0.655878 -1.08386,7.94e-4 -1.60985,0.09728 -1.49985,0.275257 0.0932,0.150757 0.26767,1.321686 0.38778,2.602066 0.18591,1.981872 0.35242,2.540976 1.12004,3.760793 0.49591,0.788056 1.12325,2.028142 1.39408,2.755746 0.2781,0.747139 0.98155,1.812568 1.61625,2.447947 0.61811,0.618768 1.25275,1.515665 1.41032,1.993109 0.18695,0.566444 0.54438,0.965417 1.02866,1.148212 0.44577,0.168257 0.92561,0.6667 1.20147,1.24804 0.25262,0.532347 0.57051,0.967901 0.70643,0.967901 0.13592,0 0.32184,0.297657 0.41315,0.661459 0.0913,0.363802 0.27216,0.661458 0.40191,0.661458 0.12974,0 0.2359,0.178594 0.2359,0.396875 0,0.218281 0.17859,0.396875 0.39688,0.396875 0.85691,0 0.26007,1.454116 -1.19343,2.907615 -1.53321,1.533202 -3.14635,2.062282 -3.63354,1.19172 -0.23919,-0.427408 -3.57516,-1.453501 -4.72553,-1.453501 -0.62722,0 -0.67751,0.07158 -0.51121,0.727604 0.10145,0.400182 0.24778,1.203854 0.32519,1.785937 0.0774,0.582084 0.27153,1.219859 0.43138,1.417281 0.15986,0.197421 0.41436,0.605398 0.56556,0.906618 0.21414,0.426609 0.53809,0.551964 1.46553,0.567095 1.72723,0.02818 1.75404,0.771814 0.0919,2.548755 -2.32515,2.485779 -3.9406,2.784609 -5.64629,1.044449 z m 4.31728,-1.31912 1.36939,-1.31721 -0.84959,-0.0057 c -1.35097,-0.0091 -2.245,-1.313479 -2.95337,-4.308983 -0.56454,-2.387354 -0.24098,-3.10505 1.39985,-3.10505 1.20943,0 4.92401,1.0052 5.45974,1.477455 0.35208,0.310359 0.54442,0.27133 1.34548,-0.273003 0.51407,-0.349318 1.11923,-0.916794 1.34479,-1.261054 0.38639,-0.589698 0.35849,-0.709552 -0.48198,-2.0706 -0.49066,-0.794571 -1.01896,-1.684163 -1.174,-1.976877 -0.15504,-0.292711 -0.63295,-0.733679 -1.06202,-0.979932 -0.42907,-0.246251 -0.92491,-0.780667 -1.10187,-1.187588 -0.17695,-0.406924 -0.86152,-1.343342 -1.52126,-2.080932 -0.65974,-0.737592 -1.36404,-1.809155 -1.56512,-2.38125 -0.20108,-0.572098 -0.83675,-1.838831 -1.41259,-2.814961 -0.9763,-1.654955 -1.06428,-1.976001 -1.30309,-4.755055 -0.30292,-3.525218 -0.22422,-3.656621 2.19004,-3.656621 0.95719,0 2.20101,-0.245234 3.35487,-0.661458 2.18206,-0.787112 2.47124,-0.812716 2.24102,-0.198438 -0.15151,0.404294 -0.1173,0.417293 0.26976,0.102495 0.63461,-0.516136 0.79799,0.06542 0.66745,2.375693 l -0.10599,1.875836 0.87008,-0.949429 0.87009,-0.949428 -0.008,-3.906488 -0.008,-3.906492 -0.78599,0.864071 c -0.4323,0.475237 -0.786,1.137092 -0.786,1.470785 0,0.978784 -0.56934,1.49008 -2.11816,1.90223 -1.81075,0.481851 -5.81353,0.520745 -6.4214,0.06239 -0.36445,-0.274802 -0.46068,-1.024224 -0.56908,-4.431771 -0.0718,-2.255573 -0.20394,-5.086062 -0.29375,-6.289975 l -0.16329,-2.188929 0.89303,-0.853779 c 0.49117,-0.469577 1.30399,-1.210964 1.80628,-1.647526 l 0.91324,-0.79375 -1.57835,-0.08105 c -1.87439,-0.09625 -2.25811,-0.354531 -2.25811,-1.51995 0,-1.047218 0.58288,-1.706292 1.50903,-1.706292 0.8692,0 2.3003,-0.885048 2.98426,-1.845572 l 0.53399,-0.749936 -1.12457,0.143055 c -0.61852,0.07868 -1.32511,0.245952 -1.57021,0.371711 -0.67889,0.34835 -1.70158,0.273182 -2.05357,-0.150934 -0.17327,-0.208775 -0.27714,-0.773494 -0.23083,-1.25493 0.0995,-1.034531 0.7804,-1.444688 2.99727,-1.805493 1.7948,-0.292113 4.25911,-1.571691 5.45399,-2.831949 0.86252,-0.909714 0.86712,-0.925541 0.13348,-0.458562 -0.80736,0.513897 -2.1045,0.781679 -5.70478,1.177697 -2.81199,0.309309 -2.97763,0.196371 -2.87345,-1.959176 l 0.0777,-1.607233 2.51354,-1.258321 c 1.38245,-0.692076 3.04865,-1.72561 3.70267,-2.296743 l 1.18913,-1.03842 -2.11517,1.02562 c -2.20712,1.070203 -4.19862,1.3697 -4.84038,0.727935 -0.87486,-0.874856 0.002,-4.268417 1.53213,-5.928191 0.94821,-1.028697 1.06078,-1.293678 1.06078,-2.497042 0,-1.782307 -0.33747,-2.369768 -1.36133,-2.369768 -1.85811,0 -6.313739,3.227901 -6.726669,4.873169 -0.2373,0.945457 0.4548,1.915754 1.5306,2.14585 0.477869,0.10221 1.017689,0.305729 1.199589,0.452265 0.42427,0.341783 0.43447,2.902482 0.0132,3.323717 -0.37889,0.378889 -3.220999,0.424783 -3.897129,0.06293 -0.26161,-0.140014 -0.99335,-1.12228 -1.62607,-2.182812 l -1.15041,-1.928241 -0.10079,-4.233334 c -0.12812,-5.38119 -0.55352,-4.822886 5.36837,-7.045507 1.044569,-0.39205 2.045519,-0.495118 4.808349,-0.495118 3.40482,0 3.50969,0.01727 4.33828,0.714487 0.46702,0.392967 0.98297,1.018046 1.14655,1.389062 0.16359,0.371017 0.63498,1.173184 1.04753,1.782593 0.71149,1.050986 0.75766,1.29887 0.89689,4.815934 0.12653,3.196287 0.0846,3.810065 -0.30351,4.448232 -0.24767,0.407175 0.0915,0.145005 0.75374,-0.582599 0.66222,-0.727605 1.46015,-1.842998 1.77318,-2.478653 0.52065,-1.057233 0.55598,-1.434481 0.41462,-4.426274 -0.14626,-3.095429 -0.19791,-3.333592 -0.96477,-4.448186 -0.44564,-0.647706 -0.81025,-1.263606 -0.81025,-1.368667 0,-0.105061 -0.38695,-0.705005 -0.85989,-1.33321 l -0.8599,-1.142191 -2.65906,-0.0082 c -1.70518,-0.0052 -2.77296,-0.122078 -2.97656,-0.325681 -0.39652,-0.396515 -0.41119,-2.515708 -0.0279,-4.0376748 0.16185,-0.642751 0.62862,-1.4747642 1.05833,-1.8864552 1.38269,-1.324694 0.62282,-1.452692 -0.95101,-0.160196 -1.32649,1.089372 -1.94868,2.207027 -2.38224,4.279236 -0.22767,1.088148 -0.57558,2.225138 -0.77313,2.526644 -0.19755,0.301506 -1.23529,0.87944 -2.30607,1.284298 -2.980709,1.126987 -3.148569,1.229919 -5.009529,3.071932 -1.2476,1.234894 -2.0335,2.320762 -2.77824,3.838675 -0.85888,1.750526 -1.15684,2.130423 -1.72251,2.196189 -0.37619,0.04374 -0.81902,-0.08318 -0.98405,-0.282031 -0.18169,-0.218925 -0.32932,-1.763738 -0.37423,-3.915981 l -0.0742,-3.554427 -1.09947,1.109325 c -1.08143,1.091129 -1.10224,1.147547 -1.2685,3.439583 -0.093,1.281642 -0.26602,2.508852 -0.38454,2.727134 -0.11852,0.218281 -0.66032,0.469264 -1.20399,0.557741 -0.69948,0.113834 -1.34757,0.519951 -2.21668,1.389062 l -1.22819,1.228197 h 2.12641 c 1.3011,0 2.24964,0.12323 2.44391,0.3175 0.17778,0.177772 0.3175,1.030111 0.3175,1.93675 0,1.476568 -0.0857,1.722533 -0.97296,2.791354 l -0.97297,1.172105 1.2312,-1.173332 c 0.67716,-0.645332 1.74007,-2.04778 2.36203,-3.116549 0.77287,-1.32811 1.33223,-1.994993 1.76709,-2.106777 0.82428,-0.211886 1.46303,0.200791 1.54741,0.99972 0.20133,1.90626 0.81817,3.710266 1.75489,5.132354 0.57513,0.873125 1.17438,1.674974 1.33169,1.781887 0.1573,0.106913 1.48258,0.19621 2.94506,0.198438 1.71034,0.0026 2.772349,0.117332 2.976559,0.32155 0.37754,0.377534 0.41761,2.030588 0.0713,2.941432 -0.25928,0.681958 -2.128269,1.503569 -3.420309,1.503569 -1.02386,0 -4.04189,1.070938 -4.99505,1.772478 -0.47098,0.346654 -0.98601,0.87258 -1.1445,1.16872 -0.26594,0.496911 -0.2432,0.514374 0.29485,0.226417 1.24441,-0.665985 8.329,-1.48313 8.881709,-1.024424 0.49041,0.407008 0.47498,2.463168 -0.0216,2.87528 -0.21258,0.176422 -0.880769,0.387062 -1.484879,0.468088 -0.81517,0.109339 -1.38065,0.424381 -2.19318,1.221864 -1.04422,1.024874 -1.06641,1.079082 -0.48007,1.17276 0.33812,0.05402 1.08467,-0.08981 1.659,-0.319608 2.12016,-0.848321 2.885619,-0.458521 2.885619,1.469461 0,1.165392 -0.0836,1.320769 -1.204419,2.239222 -1.59564,1.307502 -2.13172,2.231866 -0.75095,1.29485 1.05733,-0.717524 1.15277,-0.745001 1.585039,-0.456369 0.68671,0.45853 0.84172,1.582817 1.01811,7.384151 0.18149,5.969217 0.17235,6.138963 -0.34557,6.416146 -0.2926,0.156594 -0.81628,0.284715 -1.163719,0.284715 -1.069,0 -3.00759,0.785866 -3.66511,1.485768 l -0.62481,0.665081 0.65749,-0.247007 c 0.36161,-0.135856 1.55887,-0.330298 2.66056,-0.432094 1.519779,-0.14043 2.069659,-0.100915 2.279009,0.163769 0.15176,0.191873 0.34836,2.021015 0.4369,4.06476 0.14932,3.447253 0.11819,3.82026 -0.43068,5.159375 -0.9407,2.295081 -0.77558,2.194372 -3.266399,1.992268 -2.5032,-0.203108 -3.68622,-0.532482 -4.47854,-1.246902 -0.30041,-0.270886 -0.66258,-0.492517 -0.8048,-0.492517 -0.14222,0 -0.78112,0.532421 -1.41977,1.183161 -1.13029,1.151684 -1.14853,1.197147 -0.68543,1.708862 0.56559,0.624975 2.36943,1.229667 4.38102,1.468623 1.6981,0.201716 2.3825,0.713137 2.3825,1.780339 0,0.67034 -0.17553,0.845825 -1.38906,1.388687 -1.28316,0.574011 -3.63803,2.577304 -3.63803,3.094884 0,0.122849 1.82272,0.223361 4.05048,0.223361 2.83649,0 4.178319,0.09912 4.477029,0.33073 0.31231,0.242144 0.45972,0.933106 0.55036,2.579687 0.1708,3.102486 0.97856,6.353001 1.86879,7.52015 1.06378,1.394684 1.94827,1.305864 3.69125,-0.370692 z m -2.20249,-12.222349 c -0.3638,-0.152267 -2.05744,-0.339534 -3.76365,-0.416147 -1.753929,-0.07876 -3.037689,-0.243665 -2.953779,-0.379431 0.0816,-0.132069 0.002,-0.416383 -0.17666,-0.631807 -0.17879,-0.215423 -0.27833,-0.427656 -0.22122,-0.47163 0.0571,-0.04397 0.54201,-0.343318 1.07754,-0.66521 1.526829,-0.917739 2.559759,-2.234227 2.401699,-3.061026 -0.26437,-1.382982 1.45759,-2.303997 2.38239,-1.274254 0.22871,0.254661 0.65577,1.096838 0.94901,1.871504 0.29864,0.788921 1.06484,1.976879 1.74184,2.700644 0.66477,0.71069 1.20866,1.393341 1.20866,1.517005 0,0.123663 -0.32742,0.364887 -0.7276,0.536053 -0.57462,0.245775 -0.60236,0.289518 -0.13193,0.208042 0.32763,-0.05674 0.52896,0.0048 0.44741,0.13674 -0.19512,0.315711 -1.40198,0.27763 -2.23371,-0.07048 z m 0.4945,-1.74013 c -0.65275,-0.703921 -1.49418,-2.036927 -1.91277,-3.030268 -0.59999,-1.423776 -0.81502,-1.710735 -1.09047,-1.455208 -0.22302,0.206883 -0.24822,0.377804 -0.072,0.488328 0.50814,0.318699 -0.0692,1.532842 -1.3453,2.82928 l -1.273769,1.294037 2.408929,0.143719 c 1.3249,0.07905 2.82228,0.323718 3.3275,0.543719 0.50523,0.219998 0.96465,0.40971 1.02094,0.421582 0.0563,0.01188 -0.42208,-0.543965 -1.06306,-1.235189 z m -5.857819,0.832334 c -0.0879,-0.08792 -0.31613,-0.09732 -0.50712,-0.02088 -0.21107,0.08446 -0.14837,0.147156 0.15985,0.15985 0.27892,0.01148 0.43519,-0.05105 0.34727,-0.138964 z m -0.26459,-0.529166 c -0.0879,-0.08792 -0.31612,-0.09732 -0.50711,-0.02088 -0.21107,0.08446 -0.14838,0.147156 0.15985,0.159851 0.27891,0.01148 0.43518,-0.05105 0.34726,-0.138965 z m -0.57315,-32.979212 0.7771,-0.859896 -0.85989,0.777106 c -0.47295,0.427407 -0.8599,0.814361 -0.8599,0.859895 0,0.204407 0.21832,0.02445 0.94269,-0.777105 z m 5.616179,-2.949876 c -0.18764,-0.203605 -0.38285,-0.330589 -0.4338,-0.282187 -0.15694,0.149083 0.24081,0.652376 0.51556,0.652376 0.14267,0 0.10588,-0.166585 -0.0818,-0.370189 z m -7.732849,-2.341791 0.77711,-0.859896 -0.8599,0.777105 c -0.80154,0.724371 -0.98151,0.942687 -0.7771,0.942687 0.0455,0 0.43248,-0.386953 0.85989,-0.859896 z m -4.7625,-4.497917 0.77711,-0.859896 -0.8599,0.777106 c -0.80154,0.724371 -0.98151,0.942686 -0.7771,0.942686 0.0455,0 0.43248,-0.386953 0.85989,-0.859896 z m 12.759929,-9.829044 c -0.18764,-0.203604 -0.38284,-0.330589 -0.4338,-0.282186 -0.15693,0.149082 0.24081,0.652376 0.51556,0.652376 0.14267,0 0.10588,-0.166585 -0.0818,-0.37019 z m 3.17181,-1.11021 c 0.76796,-0.349948 1.49596,-0.636267 1.61779,-0.636267 0.12182,0 0.58908,-0.327422 1.03834,-0.727604 0.7982,-0.710987 0.81687,-0.78199 0.81766,-3.108855 5.3e-4,-1.309687 -0.0349,-2.798012 -0.0786,-3.307388 -0.0892,-1.040732 -0.83321,-2.645737 -1.22642,-2.645737 -0.14178,0 -0.25779,-0.160301 -0.25779,-0.356225 0,-0.672831 -0.78633,-1.931636 -1.41769,-2.269531 -0.95921,-0.513352 -7.48763,-0.2926 -8.371889,0.283086 -0.3638,0.236848 -1.3163,0.636136 -2.11667,0.887305 -0.80036,0.25117 -1.60404,0.644603 -1.78594,0.874297 -0.2241,0.282982 -0.32869,1.446268 -0.32441,3.6082 0.007,3.492087 0.23533,4.925231 0.88925,5.57915 0.23504,0.235043 0.42735,0.597437 0.42735,0.805326 0,0.207886 0.0908,0.377976 0.20184,0.377976 0.11102,0 0.31938,0.26789 0.46302,0.595312 0.21421,0.488257 0.50576,0.609513 1.62123,0.67428 l 1.360049,0.07896 0.10003,-1.048898 c 0.055,-0.576892 -5.3e-4,-0.9867 -0.12361,-0.91068 -0.123,0.07602 -0.740799,-0.05929 -1.372879,-0.300681 -1.16276,-0.444066 -1.72051,-1.290247 -1.72051,-2.610264 0,-2.135233 4.360519,-5.786543 7.396849,-6.193801 2.26753,-0.304139 2.93076,0.456235 2.91252,3.339102 -0.0102,1.619674 -0.24189,2.176873 -1.45946,3.51063 -0.44837,0.49116 -0.96096,1.472047 -1.15277,2.205958 -0.18996,0.726844 -0.39975,1.528429 -0.46619,1.781302 -0.10223,0.389112 0.0139,0.436065 0.7559,0.305535 0.48218,-0.08482 1.50502,-0.440547 2.27299,-0.790493 z M 91.334321,28.079158 c -0.0899,-0.145521 -0.42438,-0.252715 -0.74322,-0.238209 -0.53964,0.02455 -0.53399,0.04101 0.0818,0.238209 0.36381,0.11651 0.69826,0.223704 0.74322,0.23821 0.045,0.0145 0.008,-0.09269 -0.0818,-0.23821 z m 20.421369,-3.489193 c -0.0845,-0.211067 -0.14716,-0.148372 -0.15985,0.159853 -0.0115,0.278915 0.051,0.435184 0.13896,0.347265 0.0879,-0.08792 0.0973,-0.316122 0.0209,-0.507118 z m -25.450319,0.05264 c 0.0927,-0.149981 -0.0135,-0.194338 -0.24897,-0.103984 -0.45837,0.175893 -0.54224,0.365537 -0.16165,0.365537 0.13693,0 0.32171,-0.117699 0.41062,-0.261553 z m 4.63208,0.16012 c 0,-0.05579 -0.23829,-0.163747 -0.52953,-0.239909 -0.29125,-0.07616 -0.46281,-0.03052 -0.38126,0.101433 0.14241,0.230428 0.91079,0.347252 0.91079,0.138476 z m -3.02607,-6.84388 0.77711,-0.859896 -0.8599,0.777106 c -0.80154,0.724371 -0.98151,0.942686 -0.7771,0.942686 0.0455,0 0.43249,-0.386953 0.85989,-0.859896 z m 16.784399,-9.85573 c 0.34178,-0.363802 0.56188,-0.661458 0.48912,-0.661458 -0.0728,0 -0.41193,0.297656 -0.7537,0.661458 -0.34178,0.363802 -0.56188,0.661459 -0.48912,0.661459 0.0728,0 0.41193,-0.297657 0.7537,-0.661459 z m 55.49636,92.656365 c -0.5457,-0.1528 -0.99219,-0.37588 -0.99219,-0.49573 0,-0.11986 -0.65484,-0.21792 -1.45521,-0.21792 -1.39917,0 -1.45521,-0.0271 -1.45521,-0.703792 0,-0.50527 0.43586,-1.139645 1.54517,-2.248959 1.54306,-1.543058 1.54735,-1.545166 3.14476,-1.545166 0.90432,0 1.92899,0.171793 2.35743,0.395245 0.41682,0.217384 1.02948,0.395978 1.36147,0.396875 1.33391,0.0036 0.87532,1.544449 -0.96622,3.246453 -0.8762,0.809814 -2.27235,1.639074 -2.49889,1.484244 -0.0269,-0.0184 -0.49541,-0.15845 -1.04111,-0.31125 z m 2.88136,-2.099001 1.21588,-1.120765 -1.02336,-0.459795 c -0.56285,-0.252889 -1.53631,-0.462918 -2.16324,-0.466736 -0.99324,-0.0061 -1.29958,0.145442 -2.38125,1.177555 -1.19942,1.144461 -1.21781,1.184698 -0.54414,1.190625 0.38347,0.0034 1.09785,0.180067 1.5875,0.392652 1.42311,0.617855 1.99894,0.493673 3.30861,-0.713536 z m -31.12563,0.454051 c 0,-0.716825 1.27054,-2.43922 2.56592,-3.478464 1.72106,-1.380746 3.2851,-3.040298 3.17542,-3.369328 -0.0497,-0.149038 -0.85579,-0.668049 -1.79136,-1.153367 -0.93556,-0.485314 -2.11774,-1.282277 -2.62707,-1.771028 -0.50932,-0.488752 -1.16416,-0.930767 -1.45521,-0.982258 -0.31526,-0.05578 -0.56446,-0.341717 -0.61648,-0.70739 -0.0651,-0.457615 0.31117,-1.012264 1.47902,-2.180109 1.35237,-1.352372 1.7012,-1.566341 2.55361,-1.566341 0.91513,0 1.74096,0.460637 1.7449,0.973288 0.002,0.220644 0.59233,0.593932 3.13537,1.981579 1.65527,0.903224 1.51844,0.994278 3.05681,-2.034138 1.55442,-3.059991 4.15002,-5.291985 5.03361,-4.32847 0.18411,0.200769 0.90501,1.793783 1.602,3.540033 1.30591,3.271877 2.00877,4.639154 2.85621,5.55625 0.26894,0.291042 0.74453,0.945886 1.05686,1.455209 0.31233,0.509322 0.72194,1.084154 0.91024,1.277403 0.1883,0.193246 0.461,0.573034 0.606,0.84397 0.16921,0.31618 0.61871,0.522005 1.25504,0.574681 1.50422,0.124523 1.47138,0.923657 -0.10731,2.611403 -2.05422,2.196134 -1.73175,2.13188 -10.48888,2.089991 -5.36958,-0.02569 -7.96916,0.05782 -8.52075,0.273699 -0.43912,0.171865 -1.32569,0.245366 -1.98437,0.164515 -0.82719,-0.101534 -1.3474,-0.02754 -1.70422,0.24243 -0.67989,0.514397 -1.73536,0.506153 -1.73536,-0.01356 z m 5.09204,-1.484717 c 0.38238,-0.204645 3.05737,-0.282289 8.57538,-0.248912 l 8.01964,0.04851 1.35263,-1.265237 1.35264,-1.265235 -0.78952,-0.204587 c -1.31688,-0.341235 -4.90391,-5.648238 -6.48699,-9.597483 -0.7,-1.74625 -1.3851,-3.288602 -1.52245,-3.42745 -0.40707,-0.411503 -2.48722,1.85447 -3.37628,3.677889 -0.92403,1.895123 -2.03661,3.321436 -2.59086,3.321436 -0.67504,0 -3.63635,-1.611968 -4.9112,-2.673368 -0.68095,-0.566939 -1.40031,-1.030799 -1.59856,-1.030799 -0.19826,0 -0.8558,0.506016 -1.46121,1.12448 l -1.10075,1.124479 1.36788,1.150178 c 0.75233,0.632595 2.18478,1.561563 3.18323,2.064372 1.6086,0.81008 1.7753,0.963602 1.46372,1.348007 -0.29555,0.364615 -0.29276,0.398336 0.0175,0.211408 0.29016,-0.174848 0.33972,-0.0688 0.23177,0.495945 l -0.13733,0.718349 0.7432,-0.71203 c 0.57944,-0.555133 0.89799,-0.67318 1.44568,-0.535718 0.59105,0.148344 0.88755,-0.0088 1.8693,-0.990516 1.12097,-1.120971 1.45343,-1.76562 0.91055,-1.76562 -0.14095,0 -0.18025,-0.198125 -0.0873,-0.440277 0.1136,-0.29604 0.0675,-0.377606 -0.1406,-0.24897 -0.73726,0.455657 0.0764,-1.55492 0.90666,-2.240439 0.36416,-0.300662 0.48078,-0.307965 0.57235,-0.03583 0.0884,0.262628 0.20098,0.27041 0.48631,0.03361 0.30371,-0.252057 0.49729,-0.02524 1.06324,1.245728 0.38055,0.854641 0.85159,2.000798 1.04675,2.547011 0.19516,0.546217 0.78366,1.554745 1.30779,2.241169 0.86039,1.126827 0.91033,1.279221 0.51408,1.568966 -0.24138,0.176501 -0.3604,0.447898 -0.26448,0.603102 0.12055,0.195049 -1.04596,0.282186 -3.77765,0.282186 -2.96454,0 -4.19637,0.102085 -4.92983,0.408541 -1.15895,0.48424 -2.2086,0.297204 -1.70919,-0.304557 0.25686,-0.309493 0.23473,-0.349517 -0.11836,-0.214024 -0.52311,0.200734 -0.59003,-0.407056 -0.10357,-0.94066 0.1819,-0.19953 -0.26458,0.187942 -0.99219,0.86105 -0.7276,0.673108 -1.83405,1.675749 -2.45877,2.228096 l -1.13585,1.004263 1.35349,0.06518 c 0.74441,0.03585 1.60356,-0.06866 1.90922,-0.232241 z m 3.23421,-3.550767 c 0.76482,-0.319561 1.79319,-0.39285 4.64075,-0.330729 3.96373,0.08647 3.781,0.178819 2.54314,-1.285309 -0.5016,-0.59328 -1.32047,-2.44679 -2.00011,-4.527219 l -0.3691,-1.129835 -0.46411,0.707501 c -0.4495,0.685221 -0.44632,0.721906 0.10075,1.164897 0.49049,0.397177 0.52381,0.547479 0.25312,1.141596 -0.79668,1.74852 -3.07294,3.512695 -4.17533,3.236013 -0.3593,-0.09018 -0.65328,-0.06508 -0.65328,0.05577 0,0.120854 -0.24276,0.480309 -0.53948,0.798791 -0.64251,0.689655 -0.60587,0.69896 0.66365,0.168524 z m -23.05756,1.813825 c -0.31686,-0.06168 -0.71839,-0.283588 -0.89229,-0.493133 -0.17391,-0.209547 -0.56951,-0.382815 -0.87911,-0.385043 -1.5871,-0.01143 -1.5589,-1.097793 0.0739,-2.848176 1.68114,-1.802154 3.76082,-2.421369 4.71064,-1.402572 0.26034,0.279236 0.81037,0.592211 1.2223,0.695505 1.31944,0.330845 1.1812,1.248373 -0.44999,2.986556 -1.35025,1.438825 -2.18594,1.758235 -3.78549,1.446863 z m 2.69867,-1.966156 c 1.22264,-1.126985 1.44885,-1.553803 0.82352,-1.553803 -0.19865,0 -0.67901,-0.249999 -1.06747,-0.555556 -0.93451,-0.735092 -1.69685,-0.522679 -3.12746,0.871411 -0.99844,0.972949 -1.06981,1.116684 -0.60325,1.214892 0.29104,0.06126 0.70776,0.262149 0.92604,0.446419 1.09069,0.920739 1.67909,0.839028 3.04862,-0.423363 z M 63.446671,84.395931 c -0.15976,-0.45828 -0.29047,-2.229052 -0.29047,-3.935053 v -3.101822 l 1.18471,-1.092031 c 2.00242,-1.845762 2.51946,-1.370129 2.51946,2.317711 0,1.312405 0.13418,2.680697 0.29818,3.040645 0.24812,0.544565 0.20057,0.812411 -0.28323,1.595215 -0.68042,1.100944 -1.85964,2.008566 -2.6096,2.008566 -0.35501,0 -0.62397,-0.273622 -0.81905,-0.833231 z m 2.11233,-1.283436 c 0.41466,-0.57804 0.45491,-1.04253 0.31916,-3.683132 l -0.15534,-3.021675 -0.91123,0.994328 c -0.66068,0.720924 -0.86904,1.151644 -0.75776,1.566466 0.0844,0.314674 0.1551,1.563135 0.15709,2.77435 0.003,1.900436 0.0632,2.190491 0.43859,2.116667 0.23924,-0.04705 0.64851,-0.383202 0.90949,-0.747004 z m -1.95748,-4.547526 c -0.0845,-0.211066 -0.14715,-0.148373 -0.15985,0.159853 -0.0115,0.278913 0.051,0.435184 0.13897,0.347266 0.0879,-0.08792 0.0973,-0.316124 0.0209,-0.507119 z m -14.07967,-5.638933 c -0.0682,-0.218281 -0.17133,-0.545703 -0.2292,-0.727604 -0.14241,-0.447667 -2.18387,-1.438963 -3.37367,-1.638197 -2.47619,-0.414639 -3.02401,-2.062745 -1.27339,-3.83095 1.20156,-1.213628 2.28926,-1.430057 2.83061,-0.563229 0.18554,0.2971 0.74578,0.58297 1.32041,0.673753 1.17061,0.184936 2.50769,0.780624 3.71011,1.6529 1.30967,0.950082 1.19245,1.927416 -0.42522,3.545084 -1.2952,1.295201 -2.32127,1.651264 -2.55965,0.888243 z m 2.56451,-2.5966 c 0.1793,-0.332697 0.15698,-0.602432 -0.0727,-0.879234 -0.47822,-0.576226 -2.05254,-1.317173 -3.26827,-1.5382 -0.57717,-0.104931 -1.38336,-0.428583 -1.79153,-0.719228 l -0.74212,-0.528442 -0.78816,0.84373 c -0.43349,0.46405 -0.78816,0.947455 -0.78816,1.07423 0,0.359185 1.09555,0.965348 2.11666,1.171141 1.2065,0.243155 3.36598,1.40852 3.5634,1.922997 0.12792,0.33337 0.27164,0.293344 0.83343,-0.232114 0.37336,-0.349221 0.79524,-0.850918 0.9375,-1.11488 z m 95.263599,-0.141155 c -0.26506,-0.168174 -0.32374,-1.537621 -0.26458,-6.173936 l 0.076,-5.957824 -1.19063,0.116964 c -0.65484,0.06433 -1.60734,0.224385 -2.11666,0.355677 -0.50932,0.131294 -2.74175,0.239379 -4.96094,0.240188 -3.5558,0.0013 -4.0349,-0.04979 -4.0349,-0.430315 0,-0.694621 1.00003,-2.117746 2.27962,-3.244086 0.65317,-0.574945 1.52916,-1.516883 1.94664,-2.093195 l 0.75905,-1.047838 -0.70672,-0.794163 c -0.4973,-0.558829 -1.29474,-0.974201 -2.69109,-1.401733 -1.90139,-0.582168 -3.16069,-1.374127 -3.17043,-1.99385 -0.009,-0.561274 1.58933,-2.483821 2.64598,-3.183078 l 1.06712,-0.706186 1.38231,0.667618 c 0.76027,0.367191 1.99425,0.820883 2.74218,1.008205 0.97862,0.2451 1.56804,0.590259 2.1024,1.231133 l 0.74253,0.890548 0.3471,-1.263812 c 0.1909,-0.695097 0.42237,-1.680532 0.51437,-2.189855 0.22195,-1.228792 1.52705,-4.114351 2.34719,-5.189601 0.72739,-0.95367 0.84997,-2.458388 0.4178,-5.12915 -0.12951,-0.800365 -0.3213,-2.965702 -0.4262,-4.811859 l -0.19072,-3.35665 1.39784,-1.478017 c 1.41004,-1.490911 2.44287,-2.026139 2.94359,-1.525417 0.14973,0.149727 0.31755,0.849432 0.37294,1.554899 0.0554,0.705468 0.24081,2.592356 0.41205,4.193085 0.17124,1.60073 0.33698,4.671529 0.36832,6.823996 0.0313,2.152471 0.13141,3.988018 0.22239,4.078995 0.091,0.09098 0.16541,0.345773 0.16541,0.566211 0,0.697725 2.31788,5.165966 3.109,5.993299 0.41745,0.436563 1.04769,1.27 1.40053,1.852084 0.92079,1.519031 3.35559,3.847627 3.83197,3.664821 0.21502,-0.08251 0.68833,-0.07537 1.0518,0.01585 1.83305,0.460062 -0.42094,4.135554 -3.17924,5.184254 -0.40382,0.153532 -1.63976,0.399015 -2.74653,0.545514 -1.10678,0.1465 -2.60763,0.39314 -3.33524,0.548088 l -1.32291,0.281723 0.0797,4.134488 c 0.0438,2.273966 0.0168,4.375224 -0.0601,4.669456 -0.2406,0.920555 -2.99242,3.58325 -3.69326,3.573627 -0.16227,-0.0021 -0.44832,-0.101301 -0.63566,-0.220162 z m 2.79223,-2.937513 c 0.37727,-0.554826 0.48231,-1.49746 0.59109,-5.304327 l 0.1323,-4.629595 1.0292,-0.33664 c 0.56607,-0.185155 2.19088,-0.511122 3.61069,-0.724376 1.41981,-0.213252 2.89394,-0.506529 3.27583,-0.651724 0.72295,-0.274866 3.06448,-2.523557 3.06448,-2.94298 0,-0.132164 -0.4142,-0.240299 -0.92045,-0.240299 -0.77011,0 -1.16396,-0.247423 -2.41123,-1.514783 -0.81993,-0.833133 -1.87429,-2.113055 -2.34304,-2.844271 -0.46874,-0.731218 -1.05556,-1.497039 -1.30403,-1.701821 -0.51125,-0.421357 -2.88042,-5.031687 -3.20779,-6.242251 -0.11805,-0.436563 -0.23016,-2.460625 -0.24912,-4.497917 -0.0379,-4.069128 -0.61017,-11.255986 -0.92257,-11.585523 -0.10868,-0.114641 -0.704,0.34094 -1.32293,1.012403 l -1.12533,1.220842 0.17703,2.824055 c 0.0974,1.55323 0.2859,3.538431 0.41896,4.411556 0.13306,0.873125 0.24282,2.399115 0.24392,3.391091 0.002,1.503146 -0.10492,1.943894 -0.63985,2.645833 -0.75289,0.987957 -2.26654,4.105307 -2.27177,4.678702 -0.007,0.741931 -1.07443,3.81713 -1.39625,4.021651 -0.61423,0.39035 -1.30353,0.20651 -2.00012,-0.533451 -0.60382,-0.641408 -2.26764,-1.364636 -5.39804,-2.346412 -0.54818,-0.171926 -2.68813,1.827723 -2.52251,2.357131 0.0581,0.185647 1.11082,0.66481 2.33942,1.06481 1.7811,0.579877 2.40958,0.928428 3.10101,1.719792 0.55754,0.638117 0.83185,1.197769 0.76822,1.567323 -0.0941,0.546737 -0.0684,0.554776 0.52706,0.164613 0.44049,-0.288623 0.99649,-0.368435 1.87601,-0.269301 1.40532,0.158401 1.93435,-0.04431 3.17143,-1.215223 0.97396,-0.92187 1.07222,-1.239266 0.38364,-1.239266 -1.23554,0 -1.45269,-1.377678 -0.44979,-2.853582 0.3638,-0.535382 0.66146,-1.050306 0.66146,-1.144275 0,-0.09397 0.19101,-0.628015 0.42448,-1.186771 0.38333,-0.917442 0.45724,-0.971116 0.76245,-0.553704 0.3211,0.439127 0.3471,0.438698 0.52046,-0.0086 0.1709,-0.440917 0.20786,-0.437213 0.58227,0.05837 0.21988,0.291042 0.86908,1.422136 1.44268,2.513542 0.5736,1.091406 1.42699,2.4755 1.89643,3.075763 2.13624,2.73158 2.86827,3.885695 2.57829,4.064913 -0.16363,0.101124 -0.26144,0.341506 -0.21738,0.534183 0.12338,0.539528 -1.5054,0.794375 -4.02093,0.629137 -1.4977,-0.09838 -2.77926,-0.0231 -3.83646,0.225343 -1.04684,0.246012 -2.50392,0.333732 -4.27831,0.257569 -2.64359,-0.113477 -2.69386,-0.127679 -2.86497,-0.809445 -0.16576,-0.660442 -0.18811,-0.668575 -0.46282,-0.168515 -0.15875,0.288985 -1.01264,1.210778 -1.89752,2.048428 l -1.60888,1.522992 3.83646,-0.128286 c 2.11005,-0.07056 4.70296,-0.200258 5.76202,-0.288227 1.52683,-0.126822 1.91034,-0.0869 1.85208,0.192784 -0.0404,0.194 0.0754,0.322963 0.25725,0.286583 0.25639,-0.05128 0.33073,1.214258 0.33073,5.630318 v 5.696461 l 0.79797,-0.58996 c 0.43887,-0.324477 1.00442,-0.893588 1.25677,-1.26469 z M 146.97842,53.84093 c 1.1304,-0.328615 2.05812,-0.392705 3.87718,-0.267848 1.31518,0.09027 2.6524,0.09394 2.97161,0.0082 l 0.58039,-0.15598 -0.64808,-0.648079 c -0.35645,-0.356444 -0.87851,-1.088453 -1.16016,-1.62669 -0.28164,-0.538239 -0.85441,-1.335802 -1.27282,-1.772364 -0.41841,-0.436563 -1.21644,-1.728603 -1.77341,-2.871203 l -1.01267,-2.07745 -0.33192,0.965493 c -0.18256,0.531022 -0.64336,1.436108 -1.02401,2.011305 l -0.69209,1.045813 h 0.91418 c 1.6541,0 1.58748,1.122738 -0.17644,2.9738 -1.53283,1.608543 -2.10185,1.868046 -3.63408,1.657311 -0.8638,-0.118803 -1.44899,-0.06304 -1.82901,0.174284 -0.902,0.563305 -0.66558,0.721145 1.22713,0.819237 0.98227,0.05091 1.94621,0.11588 2.14209,0.14438 0.19589,0.0285 1.02484,-0.142568 1.84211,-0.380159 z m 14.26654,-1.84454 c -0.0879,-0.08792 -0.31612,-0.09732 -0.50712,-0.02088 -0.21106,0.08446 -0.14837,0.147156 0.15986,0.15985 0.27891,0.01148 0.43518,-0.05105 0.34726,-0.138964 z m -0.98668,-0.196014 c 0,-0.05021 -0.26789,-0.318098 -0.59531,-0.595313 l -0.59531,-0.504028 0.50403,0.595312 c 0.47366,0.559446 0.68659,0.715762 0.68659,0.504029 z M 158.4062,49.93968 c 0,-0.05494 -0.20836,-0.2633 -0.46302,-0.463021 -0.41964,-0.329107 -0.429,-0.319749 -0.0999,0.0999 0.34564,0.44073 0.56292,0.580888 0.56292,0.363125 z m -7.22759,-24.820548 c -0.0845,-0.211067 -0.14716,-0.148372 -0.15985,0.159853 -0.0115,0.278914 0.0511,0.435184 0.13896,0.347265 0.0879,-0.08792 0.0973,-0.316122 0.0209,-0.507118 z m -56.762639,36.411984 0.0934,-3.325127 1.26104,-1.191369 c 1.96045,-1.852152 2.16395,-1.651508 2.25283,2.221278 l 0.0743,3.236752 -1.1918,1.191797 c -0.80827,0.80827 -1.41565,1.191797 -1.88742,1.191797 h -0.69563 z m 2.59914,-1.904568 -0.008,-2.31093 -0.78599,0.864071 c -0.74736,0.821595 -0.78562,0.977665 -0.77824,3.175001 l 0.008,2.310929 0.78599,-0.864071 c 0.74736,-0.821595 0.78561,-0.977665 0.77824,-3.175 z m 66.389939,-0.722612 c -0.93806,-0.509857 -1.63896,-1.639647 -1.45222,-2.340843 0.28702,-1.077777 2.72394,-3.348516 3.59356,-3.348516 0.24984,0 0.81148,0.341397 1.24811,0.758658 0.43662,0.417264 0.94934,0.810485 1.13936,0.873826 0.82276,0.274251 -0.52985,2.380798 -2.48574,3.871273 -0.8846,0.67411 -1.10711,0.694324 -2.04307,0.185602 z m 2.40948,-1.985193 c 0.58209,-0.582083 1.05175,-1.14763 1.0437,-1.25677 -0.008,-0.109141 -0.362,-0.472702 -0.78655,-0.807911 l -0.77191,-0.609476 -1.20427,1.204265 c -1.18122,1.181224 -1.19596,1.216932 -0.77052,1.866246 0.60998,0.930939 1.26684,0.82636 2.48955,-0.396354 z m -1.96773,-1.918229 0.77711,-0.859896 -0.8599,0.777105 c -0.80154,0.724371 -0.98151,0.942687 -0.7771,0.942687 0.0455,0 0.43249,-0.386953 0.85989,-0.859896 z M 62.891621,39.736442 c 0,-0.282454 -0.11907,-0.587137 -0.26459,-0.677074 -0.15175,-0.09379 -0.26458,-1.470555 -0.26458,-3.228412 v -3.064892 l 1.30749,-1.307491 c 1.95888,-1.958883 2.24657,-1.764043 2.33978,1.584627 0.0421,1.511972 0.18822,2.708875 0.33073,2.708875 0.3929,0 0.30256,1.522442 -0.14127,2.380714 -0.8349,1.614524 -3.30756,2.813381 -3.30756,1.603653 z m 1.98034,-1.646582 c 0.49915,-0.593198 0.65181,-0.998059 0.52379,-1.389063 -0.0994,-0.303517 -0.25697,-1.557957 -0.35022,-2.787645 l -0.16954,-2.235795 -0.7276,0.867034 c -0.67351,0.802577 -0.72761,1.04095 -0.72761,3.206346 0,3.406376 0.23475,3.784767 1.45118,2.339123 z"
       id="path23"
       inkscape:connector-curvature="0" />
  </g>
</svg>
