<?xml version="1.0" encoding="UTF-8" standalone="no"?>
<svg
   xmlns:dc="http://purl.org/dc/elements/1.1/"
   xmlns:cc="http://creativecommons.org/ns#"
   xmlns:rdf="http://www.w3.org/1999/02/22-rdf-syntax-ns#"
   xmlns:svg="http://www.w3.org/2000/svg"
   xmlns="http://www.w3.org/2000/svg"
   xmlns:sodipodi="http://sodipodi.sourceforge.net/DTD/sodipodi-0.dtd"
   xmlns:inkscape="http://www.inkscape.org/namespaces/inkscape"
   width="284.27985mm"
   height="62.352375mm"
   viewBox="0 0 28427.985 6235.2375"
   version="1.1"
   xml:space="preserve"
   id="svg4"
   sodipodi:docname="dragon_de_brume_logo.svg"
   style="stroke-width:28.22200012;stroke-linejoin:round"
   inkscape:version="0.92.4 (5da689c313, 2019-01-14)"><metadata
   id="metadata10"><rdf:RDF><cc:Work
       rdf:about=""><dc:format>image/svg+xml</dc:format><dc:type
         rdf:resource="http://purl.org/dc/dcmitype/StillImage" /><dc:title></dc:title></cc:Work></rdf:RDF></metadata><defs
   id="defs8" /><sodipodi:namedview
   pagecolor="#ffffff"
   bordercolor="#666666"
   borderopacity="1"
   objecttolerance="10"
   gridtolerance="10"
   guidetolerance="10"
   inkscape:pageopacity="0"
   inkscape:pageshadow="2"
   inkscape:window-width="1130"
   inkscape:window-height="480"
   id="namedview6"
   showgrid="false"
   fit-margin-top="0"
   fit-margin-left="0"
   fit-margin-right="0"
   fit-margin-bottom="0"
   inkscape:zoom="0.23046217"
   inkscape:cx="1145.7276"
   inkscape:cy="235.63029"
   inkscape:window-x="287"
   inkscape:window-y="150"
   inkscape:window-maximized="0"
   inkscape:current-layer="svg4" />
 <path
   style="fill:#000000;stroke-width:747.21411133"
   d="m 16112.441,6211.046 c -99.455,-12.791 -350.957,-64.919 -558.894,-115.839 -207.937,-50.921 -426.7,-92.583 -486.14,-92.583 -59.44,0 -165.23,-11.26 -235.089,-25.024 -1292.482,-254.631 -1716.291,-290.469 -2666.06,-225.445 -859.765,58.863 -1385.02,36.864 -1644.734,-68.884 -73.057,-29.747 -90.931,-26.626 -172.029,30.035 -49.776,34.777 -114.321,83.419 -143.434,108.095 -29.112,24.675 -87.407,53.432 -129.544,63.904 -73.783,18.337 -75.934,16.209 -58.255,-57.631 10.096,-42.17 54.247,-135.275 98.113,-206.901 128.868,-210.42 188.005,-416.217 129.927,-452.139 -14.259,-8.819 -142.289,-33.369 -284.5113,-54.556 -290.124,-43.219 -494.711,-130.482 -708.51,-302.201 -177.339,-142.433 -238.696,-168.256 -602.833,-253.7 -275.0129,-64.5318 -345.1113,-71.324 -595.4877,-57.7009 -156.0802,8.4919 -438.6089,45.4199 -627.8416,82.0619 -321.4683,62.246 -404.8824,67.05 -1270.3737,73.174 l -926.3141,6.554 -215.819,-72.776 c -292.2275,-98.5409 -397.9689,-174.6259 -756.9026,-544.621 -250.5598,-258.2811 -326.2899,-321.0254 -408.4826,-338.4377 -144.4735,-30.6062 -477.567,-20.611 -616.9876,18.5141 -65.5037,18.3819 -165.3704,37.9074 -221.9261,43.3899 -111.5473,10.8134 -123.0957,16.0651 -437.7882,199.088 -116.7423,67.8966 -275.1017,143.9668 -351.9101,169.0453 -76.8085,25.0784 -151.5615,54.7478 -166.1178,65.932 -60.3784,46.3913 -539.1628,208.2166 -661.653,223.6333 -72.7818,9.1607 -269.2927,41.3206 -436.69089,71.4667 -285.4342,51.4024 -377.9672,77.8244 -739.2136,211.0714 -93.3397,34.429 -161.0286,45.288 -193.0814,30.974 -43.2086,-19.295 -33.5491001,-34.046 77.5607,-118.443 334.1861,-253.8418 675.2151,-406.9678 1024.42159,-459.9774 254.608,-38.6496 506.6502,-115.1741 603.9301,-183.3638 32.2355,-22.5961 75.2441,-41.0837 95.5748,-41.0837 20.3306,0 109.6041,-44.1601 198.3856,-98.1335 225.1361,-136.8681 709.6964,-378.6233 758.8913,-378.6233 22.466,0 64.8568,-16.8297 94.2014,-37.3991 64.5548,-45.2509 256.8634,-102.4543 653.2835,-194.3232 362.9924,-84.1219 753.0897,-98.0744 830.8082,-29.7149 26.9865,23.7367 90.7502,64.1362 141.6975,89.7767 50.9473,25.6408 98.5863,54.2746 105.8645,63.6306 7.2782,9.3561 92.9416,55.7795 190.3628,103.1628 99.0743,48.1874 226.9684,138.4851 290.2275,204.9106 136.7046,143.548 547.5175,362.0999 822.9941,437.8317 588.3052,161.7325 594.9831,162.7343 977.477,146.6276 199.2473,-8.3902 449.3521,-32.3925 555.7885,-53.3388 106.4361,-20.946 280.1907,-45.7941 386.1211,-55.2177 105.9303,-9.4236 254.8557,-38.5694 330.9453,-64.7682 216.0482,-74.3886 468.9335,-210.7302 468.9335,-252.8228 0,-20.9985 -78.8992,-121.6087 -175.3314,-223.5777 -295.134,-312.0797 -297.2942,-328.4984 -48.8623,-371.3697 562.9547,-97.1474 539.2957,-96.5779 824.5917,-19.8524 332.605,89.448 401.955,88.8855 601.248,-4.877 88.748,-41.7538 191.1343,-84.9993 227.5253,-96.1011 126.991,-38.7413 264.661,-120.6937 264.661,-157.548 0,-34.9148 -78.229,-68.7213 -243.666,-105.3 -103.3663,-22.8544 -259.1903,-120.5201 -259.1903,-162.4519 0,-39.8423 155.149,-90.8542 277.8943,-91.3694 108.338,-0.4556 500.303,-96.3782 595.827,-145.8137 150.361,-77.8141 362.314,-78.677 665.481,-2.709 258.698,64.8246 285.499,67.009 373.048,30.4007 51.879,-21.6933 98.394,-48.6774 103.366,-59.9654 22.861,-51.8918 557.636,-279.6499 743.476,-316.6426 40.03,-7.9683 72.782,-25.3094 72.782,-38.5359 0,-35.1559 -135.81,-234.8043 -159.724,-234.8043 -29.81,0 -76.009,-146.7781 -55.918,-177.6568 17.054,-26.211 395.676,1.2234 480.303,34.8019 21.835,8.6636 134.978,38.7163 251.429,66.7839 296.547,71.4751 402.713,127.6494 564.147,298.5008 l 140.688,148.8964 399.199,17.292 399.2,17.292 -18.794,-77.1443 c -10.336,-42.4294 -47.842,-121.5847 -83.347,-175.9008 -35.505,-54.316 -64.554,-110.0795 -64.554,-123.9189 0,-13.8393 -18.435,-43.6108 -40.965,-66.1587 -64.254,-64.3037 -3.455,-158.408 90.229,-139.6567 92.229,18.4599 679.718,296.949 782.913,371.1266 43.893,31.5503 99.188,69.2831 122.879,83.8507 65.625,40.3537 260.268,183.9235 408.291,301.1572 131.166,103.8831 136.879,105.5563 502.856,147.2786 396.052,45.1507 607.178,73.9489 894.915,122.0693 99.37,16.6182 185.923,24.9598 192.341,18.5366 18.124,-18.1374 -263.071,-333.3467 -299.3,-335.5049 -38.679,-2.3043 -91.977,-93.9971 -68.371,-117.6219 29.165,-29.1872 199.817,-18.7967 404.883,24.6522 180.31,38.2039 313.068,70.9854 774.329,191.2023 151.745,39.5488 153.308,39.3518 378.165,-47.646 124.184,-48.0476 231.987,-97.3945 239.562,-109.6602 7.574,-12.2656 31.982,-22.3011 54.238,-22.3011 49.821,0 440.381,-169.9312 560.227,-243.7526 l 87.727,-54.0374 -74.494,-46.5644 c -40.972,-25.6105 -101.064,-72.0899 -133.539,-103.2878 -32.474,-31.1977 -93.945,-63.7089 -136.602,-72.247 -83.464,-16.7056 -116.645,-81.7016 -77.472,-151.7542 35.141,-62.8417 798.414,-63.0345 974.47,-0.2463 65.504,23.361 198.642,48.5662 295.862,56.0116 174.842,13.3899 179.169,12.0878 398.134,-119.7971 221.93,-133.671 500.19,-231.7049 839.544,-295.7791 93.793,-17.7095 224.182,-59.4848 289.752,-92.834 l 119.218,-60.6349 -263.286,-253.17541 c -189.147,-181.883 -255.284,-261.3545 -234.869,-282.2213 32.415,-33.1313 302.639,-89.1011 421.507,-87.3038 294.563,4.4536 563.66,28.8113 608.72,55.0991 29.113,16.984 82.707,42.7755 119.098,57.3146 36.391,14.5391 86.704,41.1096 111.808,59.0456 36.289,25.9286 63.406,25.5172 132.33,-2.0079 47.679,-19.0404 164.102,-62.4925 258.718,-96.5604 94.617,-34.0679 175.381,-78.2155 179.477,-98.1057 8.353,-40.5661 -242.924,-267.8747 -350.189,-316.7858 -40.326,-18.3881 -66.103,-49.202595 -61.35,-73.341195 12.566,-63.8182 640.932,-58.4397 838.095,7.1737 99.275,33.0379 148.303,38.7576 160.663,18.7435 18.834,-30.4969 132.666,1.1296 437.513,121.555395 164.341,64.921 279.313,58.8177 374.036,-19.8556 26.566,-22.0649 170.743,-30.4971 476.848,-27.8887 334.174,2.8477 455.397,-5.2198 508.527,-33.8428 323.906,-174.499995 665.247,-101.1972951 665.247,142.8613 0,98.8759 1.376,100.1792 122.792,116.8347 67.533,9.2638 177.699,17.1347 244.811,17.4909 67.11,0.3559 175.614,13.4108 241.117,29.0105 65.504,15.5997 172.692,31.4615 238.195,35.2486 206.396,11.9324 463.456,98.2521 817.483,274.5073 108.63,54.0827 294.094,221.0057 294.094,264.6934 0,17.56881 -35.983,31.56841 -81.137,31.56841 -44.627,0 -103.054,11.7374 -129.84,26.0832 -45.951,24.6119 -235.988,58.5967 -821.201,146.8585 -138.286,20.8561 -348.615,38.152 -467.397,38.4352 -184.377,0.4397 -240.514,12.1355 -383.759,79.9535 -107.01,50.6632 -209.866,79.4462 -283.947,79.4595 -176.188,0.032 -701.307,-96.6039 -968.954,-178.3129 -228.524,-69.7653 -260.941,-72.6615 -798.44,-71.3339 -595.205,1.47 -632.239,7.0699 -988.023,149.3977 -109.172,43.6735 -295.408,117.3844 -413.857,163.802 -118.45,46.4176 -261.367,114.78 -317.594,151.9165 -135.864,89.7344 -406.397,186.8668 -407.18,146.1945 -0.323,-16.8091 -22.509,-2.0302 -49.301,32.842 -26.791,34.8721 -61.524,55.4795 -77.183,45.7942 -15.659,-9.6852 -38.136,-2.3114 -49.947,16.3864 -11.812,18.6977 -137.477,80.3618 -279.255,137.0314 -141.778,56.6695 -320.425,145.5072 -396.992,197.4171 -76.567,51.9099 -323.814,188.4968 -549.438,303.5266 -225.624,115.0294 -442.238,231.9291 -481.364,259.777 -66.213,47.1261 -186.706,91.6324 -882.761,326.0633 -146.179,49.233 -540.094,224.6374 -875.365,389.787 -335.271,165.1499 -712.901,346.5476 -839.179,403.1058 -204.389,91.5434 -282.179,148.7884 -202.189,148.7884 15.074,0 51.108,55.3363 80.077,122.9693 50.034,116.8128 51.185,146.0807 23,584.5901 -16.318,253.891 -24.987,466.307 -19.263,472.035 5.724,5.728 176.575,18.408 379.668,28.176 203.093,9.768 382.431,28.103 398.528,40.745 34.558,27.14 510.331,101.914 649.89,102.139 237.245,0.381 766.359,315.978 722.319,430.834 -18.605,48.52 -201.365,85.751 -328.949,67.011 -43.316,-6.362 -83.212,1.224 -88.657,16.858 -6.487,18.625 -54.617,11.497 -139.593,-20.672 -71.331,-27.005 -195.196,-72.329 -275.256,-100.721 -80.06,-28.392 -186.878,-70.67 -237.372,-93.95 -84.353,-38.89 -105.123,-38.776 -255.772,1.396 -188.41,50.243 -258.124,55.208 -234.337,16.691 9.182,-14.867 -28.822,-9.863 -84.453,11.123 -173.59,65.481 -418.055,77.978 -525.671,26.872 -94.276,-44.771 -107.814,-44.654 -488.557,4.236 -104.275,13.389 -130.152,5.911 -207.923,-60.086 -82.149,-69.713 -88.689,-86.712 -87.024,-226.198 0.99,-82.951 -10.157,-158.216 -24.771,-167.255 -14.615,-9.039 -45.884,-64.738 -69.488,-123.776 -23.604,-59.038 -101.342,-180.193 -172.752,-269.234 -71.409,-89.041 -165.612,-224.467 -209.339,-300.946 -90.975,-159.1172 -125.796,-167.672 -406.446,-99.8545 -87.338,21.105 -196.404,38.7975 -242.369,39.3165 -45.965,0.519 -143.632,32.127 -217.038,70.241 -112.178,58.244 -189.515,73.536 -484.863,95.872 -249.739,18.887 -412.818,17.985 -563.712,-3.115 -116.773,-16.33 -402.871,-29.461 -635.773,-29.18 -447.664,0.54 -804.231,58.793 -1067.323,174.372 l -114.543,50.321 57.6,52.972 c 167.871,154.384 237.651,232.709 237.651,266.751 0,20.814 8.932,38.235 19.85,38.713 10.917,0.476 240.18,4.511 509.472,8.963 384.028,6.349 511.725,17.586 592.104,52.104 56.364,24.206 130.657,44.01 165.097,44.01 113.221,0 551.463,155.831 659.109,234.367 89.778,65.5 536.433,249.066 753.912,309.842 36.391,10.17 78.297,28.122 93.125,39.893 14.828,11.771 107.808,35.492 206.623,52.714 194.288,33.859 335.439,123.534 335.439,213.106 0,55.754 -0.379,55.782 -273.459,20.662 z m -1223.2,-470.031 c -64.83,-59.9 -521.708,-169.304 -832.359,-199.317 -154.785,-14.954 -167.029,-12.707 -122.141,22.418 27.439,21.47 104.853,45.806 172.03,54.078 67.177,8.273 157.87,26.006 201.539,39.406 43.669,13.401 156.811,32.652 251.428,42.781 94.616,10.128 195.849,27.886 224.962,39.461 73.588,29.259 135.693,29.956 104.541,1.173 z m -3280.475,-280.267 c 622.751,-48.637 769.141,-51.245 886.44,-15.795 151.585,45.811 162.879,39.717 153.877,-83.031 -7.425,-101.238 -20.906,-119.835 -153.702,-212.027 -172.184,-119.536 -237.679,-144.477 -264.662,-100.785 -11.823,19.146 -42.603,24.931 -76.074,14.299 -48.029,-15.255 -51.932,-26.275 -26.798,-75.672 16.181,-31.799 107.062,-137.168 201.959,-234.155 150.447,-153.759 170.261,-185.423 154.746,-247.288 -23.331,-93.0292 -239.637,-322.9136 -363.201,-385.9994 -272.105,-138.9245 -290.197,-141.584 -975.742,-143.4256 -356.631,-0.9589 -661.322,-9.8681 -677.09,-19.8003 -50.636,-31.8942 -9.091,-179.367 63.995,-227.1645 60.27,-39.4153 152.046,-44.537 757.677,-42.2838 635.718,2.3652 701.21,6.9821 845.424,59.5946 85.978,31.3668 178.244,57.0307 205.036,57.0307 67.261,0 243.684,165.1173 325.25,304.407 50.675,86.5364 67.675,152.6382 67.675,263.1473 0,139.17 3.714,147.581 65.185,147.581 35.852,0 123.372,-22.9526 194.488,-51.0058 194.368,-76.6714 445.076,-102.6335 1288.595,-133.4402 884.564,-32.3058 1102.206,-55.0601 1521.801,-159.1041 167.398,-41.5085 352.998,-83.2144 412.443,-92.6796 122.543,-19.5121 275.676,-103.3702 275.676,-150.9648 0,-17.466 24.964,-83.3638 55.475,-146.4393 52.848,-109.2535 227.207,-246.3664 313.291,-246.3664 18.308,0 68.821,-25.3211 112.25,-56.2692 90.729,-64.6541 141.506,-51.2747 308.305,81.2362 142.734,113.3931 260.363,127.183 375.325,44.0004 120.511,-87.1988 327.29,-201.4136 473.897,-261.7586 64.208,-26.4282 147.702,-70.1147 185.544,-97.0811 37.841,-26.9662 169.909,-90.7944 293.483,-141.8407 559.227,-231.0048 751.953,-313.3148 816.719,-348.8061 38.288,-20.9818 158.939,-75.5983 268.111,-121.3696 109.173,-45.7716 272.964,-117.8281 363.98,-160.1254 91.016,-42.2976 182.976,-76.9048 204.355,-76.9048 21.38,0 280.385,-117.881 575.568,-261.9578 717.089,-350.0065 965.916,-465.2761 1092.484,-506.0959 58.226,-18.7784 132.635,-60.5773 165.354,-92.8864 62.637,-61.8529 547.655,-266.5257 698.809,-294.8911 48.74,-9.1464 236.59,-81.5883 417.445,-160.982 219.987,-96.57191 351.233,-140.06591 396.517,-131.40271 37.229,7.1222 100.41,-3.9846 140.404,-24.6819 46.641,-24.1376 108.991,-31.8262 173.881,-21.4418 66.354,10.6186 136.562,1.3889 204.029,-26.8222 103.819,-43.4119 496.529,-121.0004 612.437,-121.0004 34.484,0 85.616,22.9357 113.627,50.9681 79.955,80.0166 128.277,98.1604 438.694,164.7182 258.212,55.36431 359.951,62.39981 899.848,62.22741 520.496,-0.1668 1010.54,-29.8667 1358.088,-82.31091 179.535,-27.0914 20.535,-143.5346 -287.282,-210.388 -108.582,-23.583 -354.029,-49.4268 -545.435,-57.4306 -318.498,-13.3183 -357.922,-9.7503 -464.896,42.075 -96.897,46.9436 -164.934,56.6273 -397.855,56.6273 -280.078,0 -281.143,-0.2437 -335.834,-77.1105 -30.176,-42.4108 -58.057,-116.9041 -61.958,-165.5406 l -7.093,-88.43 -210.107,-7.8367 c -240.977,-8.9881 -413.459,36.6196 -590.606,156.168 -131.795,88.9427 -123.533,86.8527 -168.812,42.7044 -19.236,-18.7546 -79.635,-61.443 -134.221,-94.8629 -54.587,-33.42 -99.248,-71.8607 -99.248,-85.4238 0,-50.8436 -285.497,-149.6731 -486.949,-168.5651 l -205.308,-19.2537 121.167,111.7731 c 76.513,70.5822 121.166,134.2552 121.166,172.7794 0,83.9292 -107.603,247.0332 -172.03,260.7623 -29.113,6.2038 -118.436,23.3635 -198.496,38.1326 -80.06,14.7691 -224.001,41.424 -319.868,59.2332 -188.809,35.0747 -237.488,24.9957 -699.077,-144.745 -203.582,-74.8632 -251.429,-82.8764 -251.429,-42.1085 0,34.1809 212.984,376.76781 250.241,402.51581 54.829,37.8913 -30.947,113.2922 -200.182,175.97 -93.036,34.4567 -285.248,115.526 -427.138,180.154 -141.89,64.628 -336.424,133.9304 -432.298,154.0054 -217.946,45.6353 -388.971,101.9967 -659.718,217.4114 l -211.954,90.3523 -124.366,-55.0552 c -76.07,-33.6752 -209.594,-61.1199 -343.834,-70.6721 l -219.468,-15.6167 92.381,70.2365 c 148.373,112.8057 152.692,165.1044 24.436,295.8884 -60.458,61.6494 -165.068,132.4558 -232.468,157.3475 -67.399,24.892 -188.048,72.3852 -268.108,105.541 -80.06,33.1555 -304.366,116.7161 -498.458,185.6904 -418.014,148.5487 -449.08,148.2065 -916.114,-10.0908 -295.538,-100.1698 -418.102,-116.0913 -362.154,-47.0448 57.572,71.049 135.827,234.5039 135.827,283.7071 0,29.3876 -32.752,83.9563 -72.782,121.2641 -67.509,62.9182 -86.203,66.8281 -258.045,53.9708 -101.894,-7.6239 -328.179,-31.9494 -502.856,-54.0566 -174.676,-22.1072 -504.822,-48.3905 -733.657,-58.4074 -379.753,-16.6235 -417.485,-22.6945 -432.35,-69.5644 -44.141,-139.1833 -560.07,-630.9526 -661.95,-630.9526 -50.581,0 -58.68,18.3351 -71.733,162.3984 -21.352,235.6551 -27.094,238.6099 -403.227,207.502 -297.685,-24.6197 -954.421,-122.9221 -999.109,-149.5498 -11.125,-6.629 -43.355,-57.4206 -71.621,-112.8701 -87.215,-171.0863 -249.699,-282.4351 -493.491,-338.1848 l -108.949,-24.9143 49.531,112.0594 c 27.242,61.6327 41.897,131.9692 32.566,156.3034 -21.234,55.3766 -284.825,178.3401 -362.339,169.0286 -31.706,-3.8088 -83.007,7.0189 -114.002,24.0613 -30.996,17.0425 -142.233,45.1799 -247.194,62.5272 -104.961,17.3471 -204.653,44.6544 -221.539,60.6822 -16.886,16.028 -63.218,43.539 -102.961,61.1353 -43.309,19.1751 -66.735,46.4043 -58.469,67.9614 7.585,19.7825 1.22,69.0558 -14.143,109.4967 -30.757,80.9599 -56.439,82.0761 -365.234,15.8739 -151.094,-32.3927 -877.571,-78.6895 -916.227,-58.3892 -12.995,6.8245 6.47,28.1906 43.257,47.4797 36.786,19.2893 75.02,68.1897 84.963,108.6674 9.943,40.478 61.679,118.603 114.969,173.6115 116.473,120.2293 97.886,181.3755 -63.518,208.9545 -246.787,42.1689 -413.247,78.7939 -698.598,153.7077 -354.1203,92.9681 -490.0143,98.9943 -689.0373,30.5549 -79.555,-27.3574 -239.447,-57.8783 -355.315,-67.8245 l -210.669,-18.0842 51.873,61.2029 c 28.529,33.6616 66.759,70.7348 84.955,82.3843 60.227,38.5604 112.929,173.9927 129.519,332.8369 15.383,147.2964 12.31,159.357 -51.229,201.0213 -37.177,24.3779 -147.299,55.6198 -244.716,69.4264 -185.0507,26.2264 -223.9501,39.4479 -223.9501,76.1179 0,29.1923 97.1002,52.8366 376.0821,91.5778 l 230.519,32.0113 103.774,-82.1828 c 57.076,-45.2008 152.191,-104.0323 211.366,-130.737 197.299,-89.038 257.751,14.3716 98.628,168.7171 -102.371,99.2986 -104.063,164.7885 -9.161,354.5578 61.662,123.301 206.561,195.092 497.3613,246.42 292.604,51.648 408.752,45.941 523.232,-25.706 128.413,-80.367 256.939,-123.62 367.332,-123.62 126.986,0 115.312,66.52 -34.599,197.16 -117.572,102.458 -338.55,319.069 -427.608,419.158 -38.014,42.722 -37.761,50.794 2.864,91.451 53.476,53.517 247.092,85.753 428.928,71.414 72.782,-5.74 358.616,-28.108 635.187,-49.708 z m 6669.461,-15.559 c -187.728,-29.262 -360.325,-28.54 -291.127,1.219 29.113,12.519 136.3,22.008 238.195,21.085 l 185.263,-1.676 -132.331,-20.627 z m -785.201,-680.808 -8.782,-602.5678 -81.434,-132.4324 c -141.061,-229.4029 -297.202,-293.2054 -547.387,-223.6733 -114.936,31.9435 -191.102,129.6728 -169.182,217.0787 19.364,77.2113 -14.845,131.7954 -78.351,125.0165 -98.001,-10.4609 -92.724,2.2248 48.986,117.7494 186.881,152.35 409.8,448.7309 549.499,730.5859 95.794,193.273 107.759,235.443 84.545,297.972 -26.978,72.671 -26.767,72.838 91.924,72.838 h 118.965 z M 5720.0538,4399.9742 c 0,-18.7821 -594.1027,-350.5513 -979.2463,-546.8477 -109.1728,-55.6423 -210.4057,-114.1059 -224.962,-129.9194 -111.1011,-120.6958 -163.2414,-153.9932 -309.8092,-197.848 -252.6461,-75.5948 -256.9733,-74.913 -100.4156,15.8241 80.06,46.4009 228.9319,164.271 330.8264,261.9336 166.0011,159.1067 521.6972,398.4262 592.1736,398.4262 14.9324,0 36.6741,15.7472 48.3147,34.9942 54.8745,90.7305 643.1184,240.2223 643.1184,163.437 z m 2805.4084,-171.9448 c 0,-14.5675 -11.2068,-26.4864 -24.9041,-26.4864 -13.6972,0 -32.2648,11.9189 -41.2612,26.4864 -8.9963,14.5676 2.21,26.4865 24.9041,26.4865 22.6937,0 41.2612,-11.9189 41.2612,-26.4865 z M 25994.706,557.71519 c 19.004,-22.9161 82.988,-66.0974 142.187,-95.9584 137.251,-69.2316 134.374,-65.7968 94.934,-113.3576 -74.366,-89.6731 -388.323,-12.6713 -433.996,106.4426 -17.133,44.6832 69.82,144.539 125.864,144.539 20.052,0 52.007,-18.7496 71.011,-41.6656 z"
   id="path3715"
   inkscape:connector-curvature="0" />
</svg>