<?xml version="1.0" encoding="UTF-8" standalone="no"?>
<svg
   version="1.1"
   id="Layer_1"
   x="0px"
   y="0px"
   viewBox="0 0 1601.2977 1601.2977"
   enable-background="new 0 0 1692.096 1692.096"
   xml:space="preserve"
   sodipodi:docname="Cyberscooty-Floral-Border-Extended.svg"
   width="1601.2976"
   height="1601.2976"
   inkscape:version="1.1 (ce6663b3b7, 2021-05-25)"
   xmlns:inkscape="http://www.inkscape.org/namespaces/inkscape"
   xmlns:sodipodi="http://sodipodi.sourceforge.net/DTD/sodipodi-0.dtd"
   xmlns="http://www.w3.org/2000/svg"
   xmlns:svg="http://www.w3.org/2000/svg"><defs
   id="defs203" /><sodipodi:namedview
   id="namedview201"
   pagecolor="#ffffff"
   bordercolor="#666666"
   borderopacity="1.0"
   inkscape:pageshadow="2"
   inkscape:pageopacity="0.0"
   inkscape:pagecheckerboard="0"
   showgrid="false"
   fit-margin-top="0"
   fit-margin-left="0"
   fit-margin-right="0"
   fit-margin-bottom="0"
   inkscape:zoom="0.49878968"
   inkscape:cx="798.93393"
   inkscape:cy="798.93393"
   inkscape:window-width="1848"
   inkscape:window-height="1016"
   inkscape:window-x="72"
   inkscape:window-y="27"
   inkscape:window-maximized="1"
   inkscape:current-layer="Layer_1" />
<g
   id="g198"
   transform="translate(-45.399187,-45.399187)">
	<path
   id="path3272"
   stroke="#000000"
   stroke-width="1.3011"
   stroke-linecap="round"
   stroke-linejoin="round"
   d="m 1323.717,108.511 c -10.32,-5.826 -25.103,-8.596 -25.326,-25.485 -0.24,-18.16 21.436,-12.86 17.202,2.389 -3.399,12.247 1.61,16.109 8.124,23.096 z" />
	<path
   id="path3272_6_"
   stroke="#000000"
   stroke-width="1.3011"
   stroke-linecap="round"
   stroke-linejoin="round"
   d="m 108.511,368.379 c -5.826,10.32 -8.596,25.103 -25.485,25.326 -18.16,0.24 -12.86,-21.436 2.389,-17.202 12.247,3.4 16.109,-1.61 23.096,-8.124 z" />
	<path
   id="path3272_4_"
   stroke="#000000"
   stroke-width="1.3011"
   stroke-linecap="round"
   stroke-linejoin="round"
   d="m 368.379,1583.585 c 10.32,5.826 25.103,8.596 25.326,25.485 0.24,18.16 -21.436,12.86 -17.202,-2.389 3.4,-12.247 -1.61,-16.109 -8.124,-23.096 z" />
	<path
   id="path3272_2_"
   stroke="#000000"
   stroke-width="1.3011"
   stroke-linecap="round"
   stroke-linejoin="round"
   d="m 1583.585,1323.717 c 5.826,-10.32 8.596,-25.103 25.485,-25.326 18.16,-0.24 12.86,21.436 -2.389,17.202 -12.247,-3.399 -16.109,1.61 -23.096,8.124 z" />
	<path
   id="path3272_1_"
   stroke="#000000"
   stroke-width="1.3011"
   stroke-linecap="round"
   stroke-linejoin="round"
   d="m 1583.585,368.379 c 5.826,10.32 8.596,25.103 25.485,25.326 18.16,0.24 12.86,-21.436 -2.389,-17.202 -12.247,3.4 -16.109,-1.61 -23.096,-8.124 z" />
	<path
   id="path3272_7_"
   stroke="#000000"
   stroke-width="1.3011"
   stroke-linecap="round"
   stroke-linejoin="round"
   d="m 368.379,108.511 c 10.32,-5.826 25.103,-8.596 25.326,-25.485 0.24,-18.16 -21.436,-12.86 -17.202,2.389 3.4,12.247 -1.61,16.109 -8.124,23.096 z" />
	<path
   id="path3272_5_"
   stroke="#000000"
   stroke-width="1.3011"
   stroke-linecap="round"
   stroke-linejoin="round"
   d="m 108.511,1323.717 c -5.826,-10.32 -8.596,-25.103 -25.485,-25.326 -18.16,-0.24 -12.86,21.436 2.389,17.202 12.247,-3.399 16.109,1.61 23.096,8.124 z" />
	<path
   id="path3272_3_"
   stroke="#000000"
   stroke-width="1.3011"
   stroke-linecap="round"
   stroke-linejoin="round"
   d="m 1323.717,1583.585 c -10.32,5.826 -25.103,8.596 -25.326,25.485 -0.24,18.16 21.436,12.86 17.202,-2.389 -3.399,-12.247 1.61,-16.109 8.124,-23.096 z" />
	<path
   id="path4042"
   stroke="#000000"
   stroke-width="1.3011"
   stroke-linecap="round"
   stroke-linejoin="round"
   d="m 1294.405,89.073 c -12.011,-6.778 -29.216,-10 -29.476,-29.649 -0.28,-21.127 24.949,-14.961 20.022,2.779 -3.958,14.248 1.872,18.741 9.454,26.87 z" />
	<path
   id="path4042_6_"
   stroke="#000000"
   stroke-width="1.3011"
   stroke-linecap="round"
   stroke-linejoin="round"
   d="m 89.073,397.692 c -6.778,12.011 -10,29.216 -29.649,29.476 -21.127,0.28 -14.961,-24.949 2.779,-20.022 14.248,3.957 18.741,-1.873 26.87,-9.454 z" />
	<path
   id="path4042_4_"
   stroke="#000000"
   stroke-width="1.3011"
   stroke-linecap="round"
   stroke-linejoin="round"
   d="m 397.692,1603.023 c 12.011,6.778 29.216,10 29.476,29.649 0.28,21.127 -24.949,14.961 -20.022,-2.779 3.957,-14.248 -1.873,-18.741 -9.454,-26.87 z" />
	<path
   id="path4042_2_"
   stroke="#000000"
   stroke-width="1.3011"
   stroke-linecap="round"
   stroke-linejoin="round"
   d="m 1603.023,1294.405 c 6.778,-12.011 10,-29.216 29.649,-29.476 21.127,-0.28 14.961,24.949 -2.779,20.022 -14.248,-3.958 -18.741,1.872 -26.87,9.454 z" />
	<path
   id="path4042_1_"
   stroke="#000000"
   stroke-width="1.3011"
   stroke-linecap="round"
   stroke-linejoin="round"
   d="m 1603.023,397.692 c 6.778,12.011 10,29.216 29.649,29.476 21.127,0.28 14.961,-24.949 -2.779,-20.022 -14.248,3.957 -18.741,-1.873 -26.87,-9.454 z" />
	<path
   id="path4042_7_"
   stroke="#000000"
   stroke-width="1.3011"
   stroke-linecap="round"
   stroke-linejoin="round"
   d="m 397.692,89.073 c 12.011,-6.778 29.216,-10 29.476,-29.649 0.28,-21.127 -24.949,-14.961 -20.022,2.779 3.957,14.248 -1.873,18.741 -9.454,26.87 z" />
	<path
   id="path4042_5_"
   stroke="#000000"
   stroke-width="1.3011"
   stroke-linecap="round"
   stroke-linejoin="round"
   d="m 89.073,1294.405 c -6.778,-12.011 -10,-29.216 -29.649,-29.476 -21.127,-0.28 -14.961,24.949 2.779,20.022 14.248,-3.958 18.741,1.872 26.87,9.454 z" />
	<path
   id="path4042_3_"
   stroke="#000000"
   stroke-width="1.3011"
   stroke-linecap="round"
   stroke-linejoin="round"
   d="m 1294.405,1603.023 c -12.011,6.778 -29.216,10 -29.476,29.649 -0.28,21.127 24.949,14.961 20.022,-2.779 -3.958,-14.248 1.872,-18.741 9.454,-26.87 z" />
	<path
   id="path4046"
   fill="none"
   stroke="#000000"
   stroke-width="1.3011"
   stroke-linecap="round"
   stroke-linejoin="round"
   d="m 1394.684,278.685 c 2.527,-10.678 12.216,-29.307 -41.741,-96.819 -12.333,-14.404 -23.888,-45.655 -8.183,-67.998 11.918,-16.954 37.657,-26.125 54.453,-15.336 12.627,8.11 16.431,27.931 5.362,39.633 -6.323,6.684 -14.379,7.624 -21.161,6.401 -14.93,-2.695 -15.735,-31.199 -0.552,-32.045 18.33,-1.022 13.7,16.759 11.895,18.45" />
	<path
   id="path4046_6_"
   fill="none"
   stroke="#000000"
   stroke-width="1.3011"
   stroke-linecap="round"
   stroke-linejoin="round"
   d="m 278.685,297.412 c -10.678,-2.527 -29.307,-12.216 -96.819,41.741 -14.404,12.333 -45.655,23.888 -67.998,8.183 -16.954,-11.918 -26.125,-37.657 -15.336,-54.453 8.11,-12.627 27.931,-16.431 39.633,-5.362 6.684,6.323 7.624,14.379 6.401,21.161 -2.695,14.93 -31.199,15.735 -32.045,0.552 -1.022,-18.33 16.759,-13.7 18.45,-11.895" />
	<path
   id="path4046_4_"
   fill="none"
   stroke="#000000"
   stroke-width="1.3011"
   stroke-linecap="round"
   stroke-linejoin="round"
   d="m 297.412,1413.411 c -2.527,10.678 -12.216,29.307 41.741,96.819 12.333,14.404 23.888,45.655 8.183,67.998 -11.918,16.954 -37.657,26.125 -54.453,15.336 -12.627,-8.11 -16.431,-27.931 -5.362,-39.633 6.323,-6.684 14.379,-7.624 21.161,-6.401 14.93,2.695 15.735,31.198 0.552,32.045 -18.33,1.022 -13.7,-16.759 -11.895,-18.45" />
	<path
   id="path4046_2_"
   fill="none"
   stroke="#000000"
   stroke-width="1.3011"
   stroke-linecap="round"
   stroke-linejoin="round"
   d="m 1413.411,1394.684 c 10.678,2.527 29.307,12.216 96.819,-41.741 14.404,-12.333 45.655,-23.888 67.998,-8.183 16.954,11.918 26.125,37.657 15.336,54.453 -8.11,12.627 -27.931,16.431 -39.633,5.362 -6.684,-6.323 -7.624,-14.379 -6.401,-21.161 2.695,-14.93 31.198,-15.735 32.045,-0.552 1.022,18.33 -16.759,13.7 -18.45,11.895" />
	<path
   id="path4046_1_"
   fill="none"
   stroke="#000000"
   stroke-width="1.3011"
   stroke-linecap="round"
   stroke-linejoin="round"
   d="m 1413.411,297.412 c 10.678,-2.527 29.307,-12.216 96.819,41.741 14.404,12.333 45.655,23.888 67.998,8.183 16.954,-11.918 26.125,-37.657 15.336,-54.453 -8.11,-12.627 -27.931,-16.431 -39.633,-5.362 -6.684,6.323 -7.624,14.379 -6.401,21.161 2.695,14.93 31.198,15.735 32.045,0.552 1.022,-18.33 -16.759,-13.7 -18.45,-11.895" />
	<path
   id="path4046_7_"
   fill="none"
   stroke="#000000"
   stroke-width="1.3011"
   stroke-linecap="round"
   stroke-linejoin="round"
   d="m 297.412,278.685 c -2.527,-10.678 -12.216,-29.307 41.741,-96.819 12.333,-14.404 23.888,-45.655 8.183,-67.998 -11.918,-16.954 -37.657,-26.125 -54.453,-15.336 -12.627,8.11 -16.431,27.931 -5.362,39.633 6.323,6.684 14.379,7.624 21.161,6.401 14.93,-2.695 15.735,-31.199 0.552,-32.045 -18.33,-1.022 -13.7,16.759 -11.895,18.45" />
	<path
   id="path4046_5_"
   fill="none"
   stroke="#000000"
   stroke-width="1.3011"
   stroke-linecap="round"
   stroke-linejoin="round"
   d="m 278.685,1394.684 c -10.678,2.527 -29.307,12.216 -96.819,-41.741 -14.404,-12.333 -45.655,-23.888 -67.998,-8.183 -16.954,11.918 -26.125,37.657 -15.336,54.453 8.11,12.627 27.931,16.431 39.633,5.362 6.684,-6.323 7.624,-14.379 6.401,-21.161 -2.695,-14.93 -31.199,-15.735 -32.045,-0.552 -1.022,18.33 16.759,13.7 18.45,11.895" />
	<path
   id="path4046_3_"
   fill="none"
   stroke="#000000"
   stroke-width="1.3011"
   stroke-linecap="round"
   stroke-linejoin="round"
   d="m 1394.684,1413.411 c 2.527,10.678 12.216,29.307 -41.741,96.819 -12.333,14.404 -23.888,45.655 -8.183,67.998 11.918,16.954 37.657,26.125 54.453,15.336 12.627,-8.11 16.431,-27.931 5.362,-39.633 -6.323,-6.684 -14.379,-7.624 -21.161,-6.401 -14.93,2.695 -15.735,31.198 -0.552,32.045 18.33,1.022 13.7,-16.759 11.895,-18.45" />
	<path
   id="path4051"
   fill="none"
   stroke="#000000"
   stroke-width="1.3011"
   stroke-linecap="round"
   stroke-linejoin="round"
   d="m 1318.957,157.923 c -25.933,0.072 -46.241,7.629 -63.021,13.291 -7.253,2.471 -62.123,9.177 -83.552,-19.508 -17.761,-23.786 -23.217,-52.443 0.368,-71.902 15.157,-12.506 41.492,-8.597 51.309,10.11 5.607,10.685 3.375,21.094 -0.998,29.003 -9.624,17.412 -45.239,6.35 -39.887,-12.875 6.461,-23.209 26.514,-9.932 27.846,-6.973" />
	<path
   id="path4051_6_"
   fill="none"
   stroke="#000000"
   stroke-width="1.3011"
   stroke-linecap="round"
   stroke-linejoin="round"
   d="m 157.923,373.139 c 0.072,25.933 7.629,46.241 13.291,63.021 2.471,7.253 9.177,62.123 -19.508,83.552 -23.786,17.761 -52.443,23.217 -71.902,-0.368 -12.506,-15.157 -8.597,-41.492 10.11,-51.309 10.685,-5.607 21.094,-3.375 29.003,0.998 17.412,9.624 6.35,45.239 -12.875,39.887 -23.209,-6.461 -9.932,-26.514 -6.973,-27.846" />
	<path
   id="path4051_4_"
   fill="none"
   stroke="#000000"
   stroke-width="1.3011"
   stroke-linecap="round"
   stroke-linejoin="round"
   d="m 373.139,1534.174 c 25.933,-0.072 46.241,-7.629 63.021,-13.291 7.253,-2.471 62.123,-9.177 83.552,19.508 17.761,23.786 23.217,52.443 -0.368,71.901 -15.157,12.506 -41.492,8.597 -51.309,-10.11 -5.607,-10.685 -3.375,-21.094 0.998,-29.003 9.624,-17.412 45.239,-6.35 39.887,12.875 -6.461,23.209 -26.514,9.932 -27.846,6.973" />
	<path
   id="path4051_2_"
   fill="none"
   stroke="#000000"
   stroke-width="1.3011"
   stroke-linecap="round"
   stroke-linejoin="round"
   d="m 1534.174,1318.957 c -0.072,-25.933 -7.629,-46.241 -13.291,-63.021 -2.471,-7.253 -9.177,-62.123 19.508,-83.552 23.786,-17.761 52.443,-23.217 71.901,0.368 12.506,15.157 8.597,41.492 -10.11,51.309 -10.685,5.607 -21.094,3.375 -29.003,-0.998 -17.412,-9.624 -6.35,-45.239 12.875,-39.887 23.209,6.461 9.932,26.514 6.973,27.846" />
	<path
   id="path4051_1_"
   fill="none"
   stroke="#000000"
   stroke-width="1.3011"
   stroke-linecap="round"
   stroke-linejoin="round"
   d="m 1534.174,373.139 c -0.072,25.933 -7.629,46.241 -13.291,63.021 -2.471,7.253 -9.177,62.123 19.508,83.552 23.786,17.761 52.443,23.217 71.901,-0.368 12.506,-15.157 8.597,-41.492 -10.11,-51.309 -10.685,-5.607 -21.094,-3.375 -29.003,0.998 -17.412,9.624 -6.35,45.239 12.875,39.887 23.209,-6.461 9.932,-26.514 6.973,-27.846" />
	<path
   id="path4051_7_"
   fill="none"
   stroke="#000000"
   stroke-width="1.3011"
   stroke-linecap="round"
   stroke-linejoin="round"
   d="m 373.139,157.923 c 25.933,0.072 46.241,7.629 63.021,13.291 7.253,2.471 62.123,9.177 83.552,-19.508 17.761,-23.786 23.217,-52.443 -0.368,-71.902 -15.157,-12.506 -41.492,-8.597 -51.309,10.11 -5.607,10.685 -3.375,21.094 0.998,29.003 9.624,17.412 45.239,6.35 39.887,-12.875 -6.461,-23.209 -26.514,-9.932 -27.846,-6.973" />
	<path
   id="path4051_5_"
   fill="none"
   stroke="#000000"
   stroke-width="1.3011"
   stroke-linecap="round"
   stroke-linejoin="round"
   d="m 157.923,1318.957 c 0.072,-25.933 7.629,-46.241 13.291,-63.021 2.471,-7.253 9.177,-62.123 -19.508,-83.552 -23.786,-17.761 -52.443,-23.217 -71.902,0.368 -12.506,15.157 -8.597,41.492 10.11,51.309 10.685,5.607 21.094,3.375 29.003,-0.998 17.412,-9.624 6.35,-45.239 -12.875,-39.887 -23.209,6.461 -9.932,26.514 -6.973,27.846" />
	<path
   id="path4051_3_"
   fill="none"
   stroke="#000000"
   stroke-width="1.3011"
   stroke-linecap="round"
   stroke-linejoin="round"
   d="m 1318.957,1534.174 c -25.933,-0.072 -46.241,-7.629 -63.021,-13.291 -7.253,-2.471 -62.123,-9.177 -83.552,19.508 -17.761,23.786 -23.217,52.443 0.368,71.901 15.157,12.506 41.492,8.597 51.309,-10.11 5.607,-10.685 3.375,-21.094 -0.998,-29.003 -9.624,-17.412 -45.239,-6.35 -39.887,12.875 6.461,23.209 26.514,9.932 27.846,6.973" />
	<path
   id="path4053"
   fill="none"
   stroke="#000000"
   stroke-width="1.3011"
   stroke-linecap="round"
   stroke-linejoin="round"
   d="m 1335.688,159.675 c -7.444,-0.664 -14.445,-0.843 -21.148,0.718 -15.617,5.083 -24.929,9.562 -33.524,20.213 -13.577,16.823 -8.693,45.492 9.858,54.939 13.945,7.102 33.752,0.075 38.422,-16.075 2.667,-9.225 -0.739,-16.982 -5.415,-22.45 -10.295,-12.036 -36.317,2.275 -29.068,16.406 8.752,17.061 22.277,3.508 22.844,0.988" />
	<path
   id="path4053_6_"
   fill="none"
   stroke="#000000"
   stroke-width="1.3011"
   stroke-linecap="round"
   stroke-linejoin="round"
   d="m 159.675,356.409 c -0.664,7.444 -0.843,14.445 0.718,21.148 5.083,15.617 9.562,24.929 20.213,33.524 16.823,13.577 45.492,8.693 54.939,-9.858 7.102,-13.945 0.075,-33.752 -16.075,-38.422 -9.225,-2.667 -16.982,0.739 -22.45,5.415 -12.036,10.295 2.275,36.317 16.406,29.068 17.061,-8.752 3.508,-22.277 0.988,-22.844" />
	<path
   id="path4053_4_"
   fill="none"
   stroke="#000000"
   stroke-width="1.3011"
   stroke-linecap="round"
   stroke-linejoin="round"
   d="m 356.409,1532.421 c 7.444,0.664 14.445,0.843 21.148,-0.718 15.617,-5.083 24.929,-9.562 33.524,-20.213 13.577,-16.823 8.693,-45.492 -9.858,-54.939 -13.945,-7.102 -33.752,-0.075 -38.422,16.075 -2.667,9.225 0.739,16.982 5.415,22.45 10.295,12.036 36.317,-2.275 29.068,-16.406 -8.752,-17.06 -22.277,-3.508 -22.844,-0.988" />
	<path
   id="path4053_2_"
   fill="none"
   stroke="#000000"
   stroke-width="1.3011"
   stroke-linecap="round"
   stroke-linejoin="round"
   d="m 1532.421,1335.688 c 0.664,-7.444 0.843,-14.445 -0.718,-21.148 -5.083,-15.617 -9.562,-24.929 -20.213,-33.524 -16.823,-13.577 -45.492,-8.693 -54.939,9.858 -7.102,13.945 -0.075,33.752 16.075,38.422 9.225,2.667 16.982,-0.739 22.45,-5.415 12.036,-10.295 -2.275,-36.317 -16.406,-29.068 -17.06,8.752 -3.508,22.277 -0.988,22.844" />
	<path
   id="path4053_1_"
   fill="none"
   stroke="#000000"
   stroke-width="1.3011"
   stroke-linecap="round"
   stroke-linejoin="round"
   d="m 1532.421,356.409 c 0.664,7.444 0.843,14.445 -0.718,21.148 -5.083,15.617 -9.562,24.929 -20.213,33.524 -16.823,13.577 -45.492,8.693 -54.939,-9.858 -7.102,-13.945 -0.075,-33.752 16.075,-38.422 9.225,-2.667 16.982,0.739 22.45,5.415 12.036,10.295 -2.275,36.317 -16.406,29.068 -17.06,-8.752 -3.508,-22.277 -0.988,-22.844" />
	<path
   id="path4053_7_"
   fill="none"
   stroke="#000000"
   stroke-width="1.3011"
   stroke-linecap="round"
   stroke-linejoin="round"
   d="m 356.409,159.675 c 7.444,-0.664 14.445,-0.843 21.148,0.718 15.617,5.083 24.929,9.562 33.524,20.213 13.577,16.823 8.693,45.492 -9.858,54.939 -13.945,7.102 -33.752,0.075 -38.422,-16.075 -2.667,-9.225 0.739,-16.982 5.415,-22.45 10.295,-12.036 36.317,2.275 29.068,16.406 -8.752,17.061 -22.277,3.508 -22.844,0.988" />
	<path
   id="path4053_5_"
   fill="none"
   stroke="#000000"
   stroke-width="1.3011"
   stroke-linecap="round"
   stroke-linejoin="round"
   d="m 159.675,1335.688 c -0.664,-7.444 -0.843,-14.445 0.718,-21.148 5.083,-15.617 9.562,-24.929 20.213,-33.524 16.823,-13.577 45.492,-8.693 54.939,9.858 7.102,13.945 0.075,33.752 -16.075,38.422 -9.225,2.667 -16.982,-0.739 -22.45,-5.415 -12.036,-10.295 2.275,-36.317 16.406,-29.068 17.061,8.752 3.508,22.277 0.988,22.844" />
	<path
   id="path4053_3_"
   fill="none"
   stroke="#000000"
   stroke-width="1.3011"
   stroke-linecap="round"
   stroke-linejoin="round"
   d="m 1335.688,1532.421 c -7.444,0.664 -14.445,0.843 -21.148,-0.718 -15.617,-5.083 -24.929,-9.562 -33.524,-20.213 -13.577,-16.823 -8.693,-45.492 9.858,-54.939 13.945,-7.102 33.752,-0.075 38.422,16.075 2.667,9.225 -0.739,16.982 -5.415,22.45 -10.295,12.036 -36.317,-2.275 -29.068,-16.406 8.752,-17.06 22.277,-3.508 22.844,-0.988" />
	<path
   fill="none"
   stroke="#000000"
   stroke-width="1.3011"
   stroke-linecap="round"
   stroke-linejoin="round"
   d="m 1548.431,782.497 c 1.191,-1.477 2.844,-15.505 -10.931,-12.806 -11.41,2.236 -7.83,23.861 3.758,24.348 5.264,0.221 11.267,-1.339 15.359,-7.093 7.164,-10.073 2.217,-24.77 -8.191,-29.626 -13.845,-6.457 -34.154,1.957 -38.049,17.386 -4.15,16.433 18.529,41.186 27.62,52.525 5.407,6.745 9.165,13.036 11.562,18.816 -2.397,5.779 -6.155,12.071 -11.562,18.816 -9.091,11.339 -31.77,36.091 -27.62,52.525 3.895,15.429 24.204,23.844 38.049,17.386 10.408,-4.855 15.355,-19.553 8.191,-29.626 -4.092,-5.754 -10.096,-7.314 -15.359,-7.093 -11.588,0.487 -15.168,22.112 -3.758,24.348 13.776,2.699 12.122,-11.328 10.931,-12.806"
   id="path42" />
	<path
   fill="none"
   stroke="#000000"
   stroke-width="1.3011"
   stroke-linecap="round"
   stroke-linejoin="round"
   d="m 909.599,1548.431 c 1.477,1.191 15.505,2.844 12.806,-10.931 -2.236,-11.41 -23.861,-7.83 -24.348,3.758 -0.221,5.264 1.339,11.267 7.093,15.359 10.073,7.164 24.77,2.217 29.626,-8.191 6.457,-13.845 -1.957,-34.154 -17.386,-38.049 -16.433,-4.15 -41.186,18.529 -52.525,27.62 -6.745,5.407 -13.036,9.165 -18.816,11.562 -5.779,-2.397 -12.071,-6.155 -18.816,-11.562 -11.339,-9.091 -36.091,-31.77 -52.525,-27.62 -15.429,3.895 -23.844,24.204 -17.386,38.049 4.856,10.408 19.553,15.355 29.626,8.191 5.754,-4.092 7.314,-10.096 7.093,-15.359 -0.487,-11.588 -22.112,-15.168 -24.348,-3.758 -2.699,13.776 11.328,12.122 12.806,10.931"
   id="path44" />
	<path
   fill="none"
   stroke="#000000"
   stroke-width="1.3011"
   stroke-linecap="round"
   stroke-linejoin="round"
   d="m 143.665,909.599 c -1.191,1.477 -2.844,15.505 10.931,12.806 11.41,-2.236 7.83,-23.861 -3.758,-24.348 -5.264,-0.221 -11.267,1.339 -15.359,7.093 -7.164,10.073 -2.217,24.77 8.191,29.626 13.845,6.457 34.153,-1.957 38.049,-17.386 4.15,-16.433 -18.529,-41.186 -27.62,-52.525 -5.407,-6.745 -9.165,-13.036 -11.562,-18.816 2.397,-5.779 6.155,-12.071 11.562,-18.816 9.091,-11.339 31.77,-36.091 27.62,-52.525 -3.895,-15.429 -24.204,-23.844 -38.049,-17.386 -10.408,4.856 -15.355,19.553 -8.191,29.626 4.092,5.754 10.096,7.314 15.359,7.093 11.588,-0.487 15.168,-22.112 3.758,-24.348 -13.776,-2.699 -12.122,11.328 -10.931,12.806"
   id="path46" />
	<path
   fill="none"
   stroke="#000000"
   stroke-width="1.3011"
   stroke-linecap="round"
   stroke-linejoin="round"
   d="m 782.497,143.665 c -1.477,-1.191 -15.505,-2.844 -12.806,10.931 2.236,11.41 23.861,7.83 24.348,-3.758 0.221,-5.264 -1.339,-11.267 -7.093,-15.359 -10.073,-7.164 -24.77,-2.217 -29.626,8.191 -6.457,13.845 1.957,34.153 17.386,38.049 16.433,4.15 41.186,-18.529 52.525,-27.62 6.745,-5.407 13.036,-9.165 18.816,-11.562 5.779,2.397 12.071,6.155 18.816,11.562 11.339,9.091 36.091,31.77 52.525,27.62 15.429,-3.895 23.844,-24.204 17.386,-38.049 -4.855,-10.408 -19.553,-15.355 -29.626,-8.191 -5.754,4.092 -7.314,10.096 -7.093,15.359 0.487,11.588 22.112,15.168 24.348,3.758 2.699,-13.776 -11.328,-12.122 -12.806,-10.931"
   id="path48" />
	<path
   fill="none"
   stroke="#000000"
   stroke-width="1.3011"
   stroke-linecap="round"
   stroke-linejoin="round"
   d="m 1489.991,900.136 c -1.959,-20.102 -1.697,-38.784 0.805,-54.088 -2.502,-15.303 -2.764,-33.986 -0.805,-54.088"
   id="path50" />
	<path
   fill="none"
   stroke="#000000"
   stroke-width="1.3011"
   stroke-linecap="round"
   stroke-linejoin="round"
   d="m 791.96,1489.991 c 20.102,-1.959 38.784,-1.697 54.088,0.805 15.303,-2.502 33.986,-2.764 54.088,-0.805"
   id="path52" />
	<path
   fill="none"
   stroke="#000000"
   stroke-width="1.3011"
   stroke-linecap="round"
   stroke-linejoin="round"
   d="m 202.105,791.96 c 1.959,20.102 1.697,38.784 -0.805,54.088 2.502,15.303 2.764,33.986 0.805,54.088"
   id="path54" />
	<path
   id="path4059"
   fill="none"
   stroke="#000000"
   stroke-width="1.3011"
   stroke-linecap="round"
   stroke-linejoin="round"
   d="m 900.136,202.105 c -20.102,1.959 -38.784,1.697 -54.088,-0.805 -15.303,2.502 -33.986,2.764 -54.088,0.805" />
	<path
   id="path4063"
   fill="none"
   stroke="#000000"
   stroke-width="1.3011"
   stroke-linecap="round"
   stroke-linejoin="round"
   d="m 1396.091,276.83 c -3.361,7.076 -34.246,36.902 -56.958,32.994 -12.025,-2.07 -18.711,-18.254 -14.479,-27.81 3.172,-7.164 15.088,-11.565 22.733,-5.976 4.367,3.193 5.509,7.808 5.295,11.838 -0.471,8.872 -17.046,11.396 -18.659,2.632 -1.948,-10.58 8.77,-9.172 9.89,-8.245" />
	<path
   id="path4063_6_"
   fill="none"
   stroke="#000000"
   stroke-width="1.3011"
   stroke-linecap="round"
   stroke-linejoin="round"
   d="m 276.83,296.005 c 7.076,3.361 36.902,34.246 32.994,56.958 -2.07,12.025 -18.254,18.711 -27.81,14.479 -7.164,-3.172 -11.565,-15.088 -5.976,-22.733 3.193,-4.367 7.808,-5.509 11.838,-5.295 8.872,0.471 11.396,17.046 2.632,18.659 -10.58,1.948 -9.172,-8.77 -8.245,-9.89" />
	<path
   id="path4063_4_"
   fill="none"
   stroke="#000000"
   stroke-width="1.3011"
   stroke-linecap="round"
   stroke-linejoin="round"
   d="m 296.005,1415.266 c 3.361,-7.076 34.246,-36.902 56.958,-32.994 12.025,2.07 18.711,18.254 14.479,27.81 -3.172,7.164 -15.088,11.565 -22.733,5.976 -4.367,-3.193 -5.509,-7.808 -5.295,-11.838 0.471,-8.872 17.046,-11.396 18.659,-2.632 1.948,10.58 -8.77,9.172 -9.89,8.245" />
	<path
   id="path4063_2_"
   fill="none"
   stroke="#000000"
   stroke-width="1.3011"
   stroke-linecap="round"
   stroke-linejoin="round"
   d="m 1415.266,1396.091 c -7.076,-3.361 -36.902,-34.246 -32.994,-56.958 2.07,-12.025 18.254,-18.711 27.81,-14.479 7.164,3.172 11.565,15.088 5.976,22.733 -3.193,4.367 -7.808,5.509 -11.838,5.295 -8.872,-0.471 -11.396,-17.046 -2.632,-18.659 10.58,-1.948 9.172,8.77 8.245,9.89" />
	<path
   id="path4063_1_"
   fill="none"
   stroke="#000000"
   stroke-width="1.3011"
   stroke-linecap="round"
   stroke-linejoin="round"
   d="m 1415.266,296.005 c -7.076,3.361 -36.902,34.246 -32.994,56.958 2.07,12.025 18.254,18.711 27.81,14.479 7.164,-3.172 11.565,-15.088 5.976,-22.733 -3.193,-4.367 -7.808,-5.509 -11.838,-5.295 -8.872,0.471 -11.396,17.046 -2.632,18.659 10.58,1.948 9.172,-8.77 8.245,-9.89" />
	<path
   id="path4063_7_"
   fill="none"
   stroke="#000000"
   stroke-width="1.3011"
   stroke-linecap="round"
   stroke-linejoin="round"
   d="m 296.005,276.83 c 3.361,7.076 34.246,36.902 56.958,32.994 12.025,-2.07 18.711,-18.254 14.479,-27.81 -3.172,-7.164 -15.088,-11.565 -22.733,-5.976 -4.367,3.193 -5.509,7.808 -5.295,11.838 0.471,8.872 17.046,11.396 18.659,2.632 1.948,-10.58 -8.77,-9.172 -9.89,-8.245" />
	<path
   id="path4063_5_"
   fill="none"
   stroke="#000000"
   stroke-width="1.3011"
   stroke-linecap="round"
   stroke-linejoin="round"
   d="m 276.83,1396.091 c 7.076,-3.361 36.902,-34.246 32.994,-56.958 -2.07,-12.025 -18.254,-18.711 -27.81,-14.479 -7.164,3.172 -11.565,15.088 -5.976,22.733 3.193,4.367 7.808,5.509 11.838,5.295 8.872,-0.471 11.396,-17.046 2.632,-18.659 -10.58,-1.948 -9.172,8.77 -8.245,9.89" />
	<path
   id="path4063_3_"
   fill="none"
   stroke="#000000"
   stroke-width="1.3011"
   stroke-linecap="round"
   stroke-linejoin="round"
   d="m 1396.091,1415.266 c -3.361,-7.076 -34.246,-36.902 -56.958,-32.994 -12.025,2.07 -18.711,18.254 -14.479,27.81 3.172,7.164 15.088,11.565 22.733,5.976 4.367,-3.193 5.509,-7.808 5.295,-11.838 -0.471,-8.872 -17.046,-11.396 -18.659,-2.632 -1.948,10.58 8.77,9.172 9.89,8.245" />
	<path
   id="path4067"
   stroke="#000000"
   stroke-width="1.3011"
   stroke-linecap="round"
   stroke-linejoin="round"
   d="m 1426.098,223.992 c -2.304,-11.625 -9.835,-24.644 2.832,-35.817 13.62,-12.016 23.722,7.882 9.396,14.607 -11.505,5.4 -11.171,11.716 -12.228,21.21 z" />
	<path
   id="path4067_6_"
   stroke="#000000"
   stroke-width="1.3011"
   stroke-linecap="round"
   stroke-linejoin="round"
   d="m 223.992,265.998 c -11.625,2.304 -24.644,9.835 -35.817,-2.832 -12.016,-13.62 7.882,-23.722 14.607,-9.396 5.4,11.506 11.716,11.171 21.21,12.228 z" />
	<path
   id="path4067_4_"
   stroke="#000000"
   stroke-width="1.3011"
   stroke-linecap="round"
   stroke-linejoin="round"
   d="m 265.998,1468.104 c 2.304,11.625 9.835,24.644 -2.832,35.817 -13.62,12.016 -23.722,-7.882 -9.396,-14.607 11.506,-5.4 11.171,-11.716 12.228,-21.21 z" />
	<path
   id="path4067_2_"
   stroke="#000000"
   stroke-width="1.3011"
   stroke-linecap="round"
   stroke-linejoin="round"
   d="m 1468.104,1426.098 c 11.625,-2.304 24.644,-9.835 35.817,2.832 12.016,13.62 -7.882,23.722 -14.607,9.396 -5.4,-11.505 -11.716,-11.171 -21.21,-12.228 z" />
	<path
   id="path4067_1_"
   stroke="#000000"
   stroke-width="1.3011"
   stroke-linecap="round"
   stroke-linejoin="round"
   d="m 1468.104,265.998 c 11.625,2.304 24.644,9.835 35.817,-2.832 12.016,-13.62 -7.882,-23.722 -14.607,-9.396 -5.4,11.506 -11.716,11.171 -21.21,12.228 z" />
	<path
   id="path4067_7_"
   stroke="#000000"
   stroke-width="1.3011"
   stroke-linecap="round"
   stroke-linejoin="round"
   d="m 265.998,223.992 c 2.304,-11.625 9.835,-24.644 -2.832,-35.817 -13.62,-12.016 -23.722,7.882 -9.396,14.607 11.506,5.4 11.171,11.716 12.228,21.21 z" />
	<path
   id="path4067_5_"
   stroke="#000000"
   stroke-width="1.3011"
   stroke-linecap="round"
   stroke-linejoin="round"
   d="m 223.992,1426.098 c -11.625,-2.304 -24.644,-9.835 -35.817,2.832 -12.016,13.62 7.882,23.722 14.607,9.396 5.4,-11.505 11.716,-11.171 21.21,-12.228 z" />
	<path
   id="path4067_3_"
   stroke="#000000"
   stroke-width="1.3011"
   stroke-linecap="round"
   stroke-linejoin="round"
   d="m 1426.098,1468.104 c -2.304,11.625 -9.835,24.644 2.832,35.817 13.62,12.016 23.722,-7.882 9.396,-14.607 -11.505,-5.4 -11.171,-11.716 -12.228,-21.21 z" />
	<path
   id="path4069"
   stroke="#000000"
   stroke-width="1.3011"
   stroke-linecap="round"
   stroke-linejoin="round"
   d="m 1421.745,189.091 c -2.684,-13.53 -11.45,-28.68 3.286,-41.679 15.845,-13.978 27.605,9.178 10.937,17 -13.387,6.281 -12.997,13.631 -14.223,24.679 z" />
	<path
   id="path4069_6_"
   stroke="#000000"
   stroke-width="1.3011"
   stroke-linecap="round"
   stroke-linejoin="round"
   d="m 189.091,270.352 c -13.53,2.684 -28.68,11.45 -41.679,-3.286 -13.978,-15.845 9.178,-27.605 17,-10.937 6.281,13.387 13.631,12.996 24.679,14.223 z" />
	<path
   id="path4069_4_"
   stroke="#000000"
   stroke-width="1.3011"
   stroke-linecap="round"
   stroke-linejoin="round"
   d="m 270.352,1503.005 c 2.684,13.53 11.45,28.68 -3.286,41.679 -15.845,13.978 -27.605,-9.178 -10.937,-17 13.387,-6.281 12.996,-13.631 14.223,-24.679 z" />
	<path
   id="path4069_2_"
   stroke="#000000"
   stroke-width="1.3011"
   stroke-linecap="round"
   stroke-linejoin="round"
   d="m 1503.005,1421.745 c 13.53,-2.684 28.68,-11.45 41.679,3.286 13.978,15.845 -9.178,27.605 -17,10.937 -6.281,-13.387 -13.631,-12.997 -24.679,-14.223 z" />
	<path
   id="path4069_1_"
   stroke="#000000"
   stroke-width="1.3011"
   stroke-linecap="round"
   stroke-linejoin="round"
   d="m 1503.005,270.352 c 13.53,2.684 28.68,11.45 41.679,-3.286 13.978,-15.845 -9.178,-27.605 -17,-10.937 -6.281,13.387 -13.631,12.996 -24.679,14.223 z" />
	<path
   id="path4069_7_"
   stroke="#000000"
   stroke-width="1.3011"
   stroke-linecap="round"
   stroke-linejoin="round"
   d="m 270.352,189.091 c 2.684,-13.53 11.45,-28.68 -3.286,-41.679 -15.845,-13.978 -27.605,9.178 -10.937,17 13.387,6.281 12.996,13.631 14.223,24.679 z" />
	<path
   id="path4069_5_"
   stroke="#000000"
   stroke-width="1.3011"
   stroke-linecap="round"
   stroke-linejoin="round"
   d="m 189.091,1421.745 c -13.53,-2.684 -28.68,-11.45 -41.679,3.286 -13.978,15.845 9.178,27.605 17,10.937 6.281,-13.387 13.631,-12.997 24.679,-14.223 z" />
	<path
   id="path4069_3_"
   stroke="#000000"
   stroke-width="1.3011"
   stroke-linecap="round"
   stroke-linejoin="round"
   d="m 1421.745,1503.005 c -2.684,13.53 -11.45,28.68 3.286,41.679 15.845,13.978 27.605,-9.178 10.937,-17 -13.387,-6.281 -12.997,-13.631 -14.223,-24.679 z" />
	<path
   id="path4085"
   stroke="#000000"
   stroke-width="1.3011"
   stroke-linejoin="round"
   d="m 1366.485,325.611 c -3.633,-1.646 -7.685,-3.14 -12.186,-4.468 l -10e-4,0.011 c 4.534,1.246 8.657,2.667 12.392,4.252 1.585,3.735 3.007,7.858 4.252,12.392 l 0.011,-10e-4 c -1.328,-4.501 -2.822,-8.553 -4.468,-12.186 z" />
	<path
   stroke="#000000"
   stroke-width="1.3011"
   stroke-linejoin="round"
   d="m 1366.485,1366.485 c 1.646,-3.633 3.14,-7.685 4.468,-12.186 l -0.011,-10e-4 c -1.245,4.534 -2.667,8.657 -4.252,12.392 -3.735,1.585 -7.858,3.007 -12.392,4.252 l 10e-4,0.011 c 4.501,-1.328 8.554,-2.822 12.186,-4.468 z"
   id="path82" />
	<path
   stroke="#000000"
   stroke-width="1.3011"
   stroke-linejoin="round"
   d="m 325.611,1366.485 c 3.633,1.646 7.685,3.14 12.186,4.468 l 10e-4,-0.011 c -4.534,-1.245 -8.657,-2.667 -12.392,-4.252 -1.585,-3.735 -3.007,-7.858 -4.252,-12.392 l -0.011,10e-4 c 1.328,4.501 2.822,8.554 4.468,12.186 z"
   id="path84" />
	<path
   stroke="#000000"
   stroke-width="1.3011"
   stroke-linejoin="round"
   d="m 325.611,325.611 c -1.646,3.633 -3.14,7.685 -4.468,12.186 l 0.011,10e-4 c 1.246,-4.534 2.667,-8.657 4.252,-12.392 3.735,-1.585 7.858,-3.007 12.392,-4.252 l -10e-4,-0.011 c -4.501,1.328 -8.553,2.822 -12.186,4.468 z"
   id="path86" />
	<path
   id="path4093"
   fill="none"
   stroke="#000000"
   stroke-width="1.3011"
   stroke-linecap="round"
   d="m 1303.638,334.694 c 179.677,1.311 183.636,-361.616 -331.61,-179.831 -14.188,5.815 -64.248,14.288 -125.98,21.518 C 784.316,169.15 734.256,160.678 720.068,154.863 204.822,-26.922 208.781,336.005 388.458,334.694" />
	<path
   fill="none"
   stroke="#000000"
   stroke-width="1.3011"
   stroke-linecap="round"
   d="m 1357.403,1303.638 c -1.311,179.677 361.616,183.636 179.831,-331.61 -5.815,-14.188 -14.288,-64.248 -21.518,-125.98 7.231,-61.732 15.703,-111.792 21.518,-125.98 181.785,-515.246 -181.142,-511.287 -179.831,-331.61"
   id="path89" />
	<path
   fill="none"
   stroke="#000000"
   stroke-width="1.3011"
   stroke-linecap="round"
   d="m 388.458,1357.403 c -179.677,-1.311 -183.636,361.616 331.61,179.831 14.188,-5.815 64.248,-14.288 125.98,-21.518 61.732,7.231 111.792,15.703 125.98,21.518 515.247,181.785 511.287,-181.142 331.61,-179.831"
   id="path91" />
	<path
   fill="none"
   stroke="#000000"
   stroke-width="1.3011"
   stroke-linecap="round"
   d="m 334.694,388.458 c 1.311,-179.677 -361.616,-183.636 -179.831,331.61 5.815,14.188 14.288,64.248 21.518,125.98 -7.231,61.732 -15.703,111.792 -21.518,125.98 -181.785,515.247 181.142,511.287 179.831,331.61"
   id="path93" />
	<path
   id="path4095"
   fill="none"
   stroke="#000000"
   stroke-width="1.3011"
   stroke-linecap="round"
   d="m 1276.535,188.227 c -8.277,10.344 -20.372,19.271 -29.06,21.174" />
	<path
   id="path4095_6_"
   fill="none"
   stroke="#000000"
   stroke-width="1.3011"
   stroke-linecap="round"
   d="m 188.227,415.561 c 10.344,8.277 19.271,20.372 21.174,29.06" />
	<path
   id="path4095_4_"
   fill="none"
   stroke="#000000"
   stroke-width="1.3011"
   stroke-linecap="round"
   d="m 415.561,1503.87 c 8.277,-10.344 20.372,-19.271 29.06,-21.174" />
	<path
   id="path4095_2_"
   fill="none"
   stroke="#000000"
   stroke-width="1.3011"
   stroke-linecap="round"
   d="m 1503.87,1276.535 c -10.344,-8.277 -19.271,-20.372 -21.174,-29.06" />
	<path
   id="path4095_1_"
   fill="none"
   stroke="#000000"
   stroke-width="1.3011"
   stroke-linecap="round"
   d="m 1503.87,415.561 c -10.344,8.277 -19.271,20.372 -21.174,29.06" />
	<path
   id="path4095_7_"
   fill="none"
   stroke="#000000"
   stroke-width="1.3011"
   stroke-linecap="round"
   d="m 415.561,188.227 c 8.277,10.344 20.372,19.271 29.06,21.174" />
	<path
   id="path4095_5_"
   fill="none"
   stroke="#000000"
   stroke-width="1.3011"
   stroke-linecap="round"
   d="m 188.227,1276.535 c 10.344,-8.277 19.271,-20.372 21.174,-29.06" />
	<path
   id="path4095_3_"
   fill="none"
   stroke="#000000"
   stroke-width="1.3011"
   stroke-linecap="round"
   d="m 1276.535,1503.87 c -8.277,-10.344 -20.372,-19.271 -29.06,-21.174" />
	<path
   id="path4097"
   fill="none"
   stroke="#000000"
   stroke-width="1.3011"
   d="m 1318.713,157.928 c 65.594,2.682 99.758,64.031 77.435,118.6" />
	<path
   id="path4097_6_"
   fill="none"
   stroke="#000000"
   stroke-width="1.3011"
   d="m 157.928,373.383 c 2.682,-65.594 64.031,-99.758 118.6,-77.435" />
	<path
   id="path4097_4_"
   fill="none"
   stroke="#000000"
   stroke-width="1.3011"
   d="m 373.383,1534.169 c -65.594,-2.682 -99.758,-64.031 -77.435,-118.6" />
	<path
   id="path4097_2_"
   fill="none"
   stroke="#000000"
   stroke-width="1.3011"
   d="m 1534.169,1318.713 c -2.682,65.594 -64.031,99.758 -118.6,77.435" />
	<path
   id="path4097_1_"
   fill="none"
   stroke="#000000"
   stroke-width="1.3011"
   d="m 1534.169,373.383 c -2.682,-65.594 -64.031,-99.758 -118.6,-77.435" />
	<path
   id="path4097_7_"
   fill="none"
   stroke="#000000"
   stroke-width="1.3011"
   d="m 373.383,157.928 c -65.594,2.682 -99.758,64.031 -77.435,118.6" />
	<path
   id="path4097_5_"
   fill="none"
   stroke="#000000"
   stroke-width="1.3011"
   d="m 157.928,1318.713 c 2.682,65.594 64.031,99.758 118.6,77.435" />
	<path
   id="path4097_3_"
   fill="none"
   stroke="#000000"
   stroke-width="1.3011"
   d="m 1318.713,1534.169 c 65.594,-2.682 99.758,-64.031 77.435,-118.6" />
	<path
   id="path4099"
   fill="none"
   stroke="#000000"
   stroke-width="1.3011"
   stroke-linecap="round"
   d="m 1134.629,234.63 c 37.157,-142.237 258.266,-136.56 277.512,-5.407" />
	<path
   id="path4099_6_"
   fill="none"
   stroke="#000000"
   stroke-width="1.3011"
   stroke-linecap="round"
   d="M 234.63,557.467 C 92.392,520.31 98.07,299.201 229.222,279.955" />
	<path
   id="path4099_4_"
   fill="none"
   stroke="#000000"
   stroke-width="1.3011"
   stroke-linecap="round"
   d="m 557.467,1457.467 c -37.157,142.237 -258.266,136.56 -277.512,5.407" />
	<path
   id="path4099_2_"
   fill="none"
   stroke="#000000"
   stroke-width="1.3011"
   stroke-linecap="round"
   d="m 1457.467,1134.629 c 142.237,37.157 136.56,258.266 5.407,277.512" />
	<path
   id="path4099_1_"
   fill="none"
   stroke="#000000"
   stroke-width="1.3011"
   stroke-linecap="round"
   d="m 1457.467,557.467 c 142.237,-37.157 136.56,-258.266 5.407,-277.512" />
	<path
   id="path4099_7_"
   fill="none"
   stroke="#000000"
   stroke-width="1.3011"
   stroke-linecap="round"
   d="M 557.467,234.63 C 520.31,92.392 299.201,98.07 279.955,229.222" />
	<path
   id="path4099_5_"
   fill="none"
   stroke="#000000"
   stroke-width="1.3011"
   stroke-linecap="round"
   d="m 234.63,1134.629 c -142.237,37.157 -136.56,258.266 -5.407,277.512" />
	<path
   id="path4099_3_"
   fill="none"
   stroke="#000000"
   stroke-width="1.3011"
   stroke-linecap="round"
   d="m 1134.629,1457.467 c 37.157,142.237 258.266,136.56 277.512,5.407" />
	<path
   id="path4101"
   stroke="#000000"
   stroke-width="1.3011"
   d="m 1413.031,228.437 c -54.353,-166.733 -238.324,-82.091 -249.123,-48.995 -57.51,35.227 -139.452,25.917 -150.414,-23.638 -6.518,-29.472 21.063,-91.497 75.177,-50.473 -35.668,-45.253 -85.31,1.247 -84.218,31.158 1.99,54.509 63.491,92.993 157.202,45.431 14.836,-23.743 208.189,-112.969 250.822,52.597 z" />
	<path
   id="path4101_6_"
   stroke="#000000"
   stroke-width="1.3011"
   d="m 228.437,279.066 c -166.733,54.353 -82.091,238.324 -48.995,249.123 35.227,57.51 25.917,139.452 -23.638,150.414 -29.472,6.518 -91.497,-21.063 -50.473,-75.177 -45.253,35.668 1.247,85.31 31.158,84.218 54.509,-1.99 92.993,-63.491 45.431,-157.202 C 158.177,515.606 68.951,322.253 234.517,279.62 Z" />
	<path
   id="path4101_4_"
   stroke="#000000"
   stroke-width="1.3011"
   d="m 279.066,1463.66 c 54.353,166.733 238.324,82.091 249.123,48.995 57.51,-35.227 139.452,-25.917 150.414,23.638 6.518,29.472 -21.063,91.497 -75.177,50.473 35.668,45.253 85.31,-1.247 84.218,-31.158 -1.99,-54.509 -63.491,-92.993 -157.202,-45.431 -14.836,23.743 -208.189,112.969 -250.822,-52.597 z" />
	<path
   id="path4101_2_"
   stroke="#000000"
   stroke-width="1.3011"
   d="m 1463.66,1413.031 c 166.733,-54.353 82.091,-238.324 48.995,-249.123 -35.227,-57.51 -25.917,-139.452 23.638,-150.414 29.472,-6.518 91.497,21.063 50.473,75.177 45.253,-35.668 -1.247,-85.31 -31.158,-84.218 -54.509,1.99 -92.993,63.491 -45.431,157.202 23.743,14.836 112.969,208.189 -52.597,250.822 z" />
	<path
   id="path4101_1_"
   stroke="#000000"
   stroke-width="1.3011"
   d="m 1463.66,279.066 c 166.733,54.353 82.091,238.324 48.995,249.123 -35.227,57.51 -25.917,139.452 23.638,150.414 29.472,6.518 91.497,-21.063 50.473,-75.177 45.253,35.668 -1.247,85.31 -31.158,84.218 -54.509,-1.99 -92.993,-63.491 -45.431,-157.202 23.743,-14.836 112.969,-208.189 -52.597,-250.822 z" />
	<path
   id="path4101_7_"
   stroke="#000000"
   stroke-width="1.3011"
   d="m 279.066,228.437 c 54.353,-166.733 238.324,-82.091 249.123,-48.995 57.51,35.227 139.452,25.917 150.414,-23.638 6.518,-29.472 -21.063,-91.497 -75.177,-50.473 35.668,-45.253 85.31,1.247 84.218,31.158 -1.99,54.509 -63.491,92.993 -157.202,45.431 C 515.606,158.177 322.253,68.951 279.62,234.517 Z" />
	<path
   id="path4101_5_"
   stroke="#000000"
   stroke-width="1.3011"
   d="m 228.437,1413.031 c -166.733,-54.353 -82.091,-238.324 -48.995,-249.123 35.227,-57.51 25.917,-139.452 -23.638,-150.414 -29.472,-6.518 -91.497,21.063 -50.473,75.177 -45.253,-35.668 1.247,-85.31 31.158,-84.218 54.509,1.99 92.993,63.491 45.431,157.202 -23.743,14.836 -112.969,208.189 52.597,250.822 z" />
	<path
   id="path4101_3_"
   stroke="#000000"
   stroke-width="1.3011"
   d="m 1413.031,1463.66 c -54.353,166.733 -238.324,82.091 -249.123,48.995 -57.51,-35.227 -139.452,-25.917 -150.414,23.638 -6.518,29.472 21.063,91.497 75.177,50.473 -35.668,45.253 -85.31,-1.247 -84.218,-31.158 1.99,-54.509 63.491,-92.993 157.202,-45.431 14.836,23.743 208.189,112.969 250.822,-52.597 z" />
	<path
   id="path4103"
   fill="none"
   stroke="#000000"
   stroke-width="1.3011"
   d="m 1299.961,113.44 c -59.225,-4.53 -135.04,-2.51 -316.183,66.721 -41.74,15.952 -102.636,22.478 -137.73,38.254 -35.094,-15.776 -95.99,-22.302 -137.73,-38.254 C 527.176,110.931 451.361,108.91 392.135,113.44" />
	<path
   fill="none"
   stroke="#000000"
   stroke-width="1.3011"
   d="m 1578.656,1299.961 c 4.531,-59.225 2.51,-135.04 -66.721,-316.183 -15.952,-41.74 -22.478,-102.636 -38.254,-137.73 15.776,-35.094 22.302,-95.99 38.254,-137.73 69.23,-181.142 71.251,-256.957 66.721,-316.183"
   id="path128" />
	<path
   fill="none"
   stroke="#000000"
   stroke-width="1.3011"
   d="m 392.135,1578.656 c 59.225,4.531 135.04,2.51 316.183,-66.721 41.74,-15.952 102.636,-22.478 137.73,-38.254 35.094,15.776 95.99,22.302 137.73,38.254 181.142,69.23 256.957,71.251 316.183,66.721"
   id="path130" />
	<path
   fill="none"
   stroke="#000000"
   stroke-width="1.3011"
   d="m 113.44,392.135 c -4.53,59.225 -2.51,135.04 66.721,316.183 15.952,41.74 22.478,102.636 38.254,137.73 -15.776,35.094 -22.302,95.99 -38.254,137.73 -69.23,181.142 -71.251,256.957 -66.721,316.183"
   id="path132" />
	<path
   id="path4105"
   fill="none"
   stroke="#000000"
   stroke-width="1.3011"
   stroke-linecap="round"
   d="m 1146.048,127.865 c -72.406,34.49 -113.057,63.075 -133.575,90.072" />
	<path
   id="path4105_6_"
   fill="none"
   stroke="#000000"
   stroke-width="1.3011"
   stroke-linecap="round"
   d="m 127.865,546.048 c 34.49,72.406 63.075,113.057 90.072,133.575" />
	<path
   id="path4105_4_"
   fill="none"
   stroke="#000000"
   stroke-width="1.3011"
   stroke-linecap="round"
   d="m 546.048,1564.231 c 72.406,-34.49 113.057,-63.075 133.575,-90.072" />
	<path
   id="path4105_2_"
   fill="none"
   stroke="#000000"
   stroke-width="1.3011"
   stroke-linecap="round"
   d="m 1564.231,1146.048 c -34.49,-72.406 -63.075,-113.057 -90.072,-133.575" />
	<path
   id="path4105_1_"
   fill="none"
   stroke="#000000"
   stroke-width="1.3011"
   stroke-linecap="round"
   d="m 1564.231,546.048 c -34.49,72.406 -63.075,113.057 -90.072,133.575" />
	<path
   id="path4105_7_"
   fill="none"
   stroke="#000000"
   stroke-width="1.3011"
   stroke-linecap="round"
   d="m 546.048,127.865 c 72.406,34.49 113.057,63.075 133.575,90.072" />
	<path
   id="path4105_5_"
   fill="none"
   stroke="#000000"
   stroke-width="1.3011"
   stroke-linecap="round"
   d="m 127.865,1146.048 c 34.49,-72.406 63.075,-113.057 90.072,-133.575" />
	<path
   id="path4105_3_"
   fill="none"
   stroke="#000000"
   stroke-width="1.3011"
   stroke-linecap="round"
   d="m 1146.048,1564.231 c -72.406,-34.49 -113.057,-63.075 -133.575,-90.072" />
	<g
   id="g4113"
   transform="matrix(0.99727,-0.073871,0.073871,0.99727,-13.873,-1.5805)">
		<path
   id="path4107"
   stroke="#000000"
   stroke-width="1.3011"
   stroke-linecap="round"
   stroke-linejoin="round"
   d="m 1154.577,352.063 c 1.088,-8.581 -3.336,-18.66 -25.254,-26.147 2.482,24.162 19.482,29.066 25.254,26.147 z" />
		<path
   id="path4107_6_"
   stroke="#000000"
   stroke-width="1.3011"
   stroke-linecap="round"
   stroke-linejoin="round"
   d="m 238.184,549.212 c -8.581,-1.088 -18.66,3.336 -26.147,25.254 24.162,-2.482 29.066,-19.482 26.147,-25.254 z" />
		<path
   id="path4107_4_"
   stroke="#000000"
   stroke-width="1.3011"
   stroke-linecap="round"
   stroke-linejoin="round"
   d="m 435.333,1465.605 c -1.088,8.581 3.336,18.66 25.254,26.147 -2.482,-24.163 -19.482,-29.066 -25.254,-26.147 z" />
		<path
   id="path4107_2_"
   stroke="#000000"
   stroke-width="1.3011"
   stroke-linecap="round"
   stroke-linejoin="round"
   d="m 1351.726,1268.455 c 8.581,1.089 18.66,-3.336 26.146,-25.254 -24.161,2.483 -29.065,19.483 -26.146,25.254 z" />
		<path
   id="path4107_1_"
   stroke="#000000"
   stroke-width="1.3011"
   stroke-linecap="round"
   stroke-linejoin="round"
   d="m 1398.635,635.171 c 8.648,0.188 17.965,6.049 22.14,28.831 -23.532,-6.016 -25.877,-23.553 -22.14,-28.831 z" />
		<path
   id="path4107_7_"
   stroke="#000000"
   stroke-width="1.3011"
   stroke-linecap="round"
   stroke-linejoin="round"
   d="m 521.292,305.154 c 0.188,-8.648 6.049,-17.965 28.831,-22.14 -6.016,23.532 -23.553,25.877 -28.831,22.14 z" />
		<path
   id="path4107_5_"
   stroke="#000000"
   stroke-width="1.3011"
   stroke-linecap="round"
   stroke-linejoin="round"
   d="m 191.275,1182.497 c -8.648,-0.188 -17.965,-6.049 -22.14,-28.831 23.532,6.016 25.877,23.553 22.14,28.831 z" />
		<path
   id="path4107_3_"
   stroke="#000000"
   stroke-width="1.3011"
   stroke-linecap="round"
   stroke-linejoin="round"
   d="m 1068.618,1512.514 c -0.188,8.647 -6.049,17.964 -28.831,22.14 6.016,-23.532 23.553,-25.877 28.831,-22.14 z" />
		<path
   id="path4109"
   stroke="#000000"
   stroke-width="1.3011"
   d="m 1124.694,344.069 c 12.417,27.39 8.222,48.546 -4.175,46.402 -14.589,-2.036 -10.768,-24.618 4.175,-46.402 z" />
		<path
   id="path4109_6_"
   stroke="#000000"
   stroke-width="1.3011"
   d="m 230.19,579.094 c 27.39,-12.417 48.546,-8.222 46.402,4.175 -2.035,14.59 -24.618,10.769 -46.402,-4.175 z" />
		<path
   id="path4109_4_"
   stroke="#000000"
   stroke-width="1.3011"
   d="m 465.215,1473.599 c -12.417,-27.39 -8.222,-48.546 4.175,-46.402 14.59,2.035 10.769,24.618 -4.175,46.402 z" />
		<path
   id="path4109_2_"
   stroke="#000000"
   stroke-width="1.3011"
   d="m 1359.72,1238.573 c -27.39,12.417 -48.546,8.222 -46.402,-4.175 2.035,-14.589 24.618,-10.768 46.402,4.175 z" />
		<path
   id="path4109_1_"
   stroke="#000000"
   stroke-width="1.3011"
   d="m 1402.139,665.904 c -25.262,-16.317 -46.804,-15.285 -46.511,-2.708 -0.136,14.731 22.763,14.279 46.511,2.708 z" />
		<path
   id="path4109_7_"
   stroke="#000000"
   stroke-width="1.3011"
   d="m 552.025,301.649 c -16.317,25.262 -15.285,46.804 -2.708,46.511 14.731,0.137 14.279,-22.762 2.708,-46.511 z" />
		<path
   id="path4109_5_"
   stroke="#000000"
   stroke-width="1.3011"
   d="m 187.77,1151.763 c 25.262,16.317 46.804,15.285 46.511,2.708 0.137,-14.73 -22.762,-14.279 -46.511,-2.708 z" />
		<path
   id="path4109_3_"
   stroke="#000000"
   stroke-width="1.3011"
   d="m 1037.884,1516.018 c 16.317,-25.262 15.285,-46.804 2.708,-46.511 -14.73,-0.136 -14.279,22.763 -2.708,46.511 z" />
		<path
   id="path4111"
   stroke="#000000"
   stroke-width="1.3011"
   stroke-linecap="round"
   stroke-linejoin="round"
   d="m 1093.45,347.892 c 0.186,-8.647 6.046,-17.965 28.827,-22.144 -6.012,23.533 -23.548,25.88 -28.827,22.144 z" />
		<path
   id="path4111_6_"
   stroke="#000000"
   stroke-width="1.3011"
   stroke-linecap="round"
   stroke-linejoin="round"
   d="m 234.013,610.339 c -8.647,-0.186 -17.965,-6.046 -22.144,-28.827 23.533,6.012 25.88,23.548 22.144,28.827 z" />
		<path
   id="path4111_4_"
   stroke="#000000"
   stroke-width="1.3011"
   stroke-linecap="round"
   stroke-linejoin="round"
   d="m 496.46,1469.776 c -0.186,8.647 -6.046,17.965 -28.827,22.144 6.012,-23.533 23.548,-25.881 28.827,-22.144 z" />
		<path
   id="path4111_2_"
   stroke="#000000"
   stroke-width="1.3011"
   stroke-linecap="round"
   stroke-linejoin="round"
   d="m 1355.897,1207.328 c 8.647,0.186 17.965,6.046 22.144,28.827 -23.533,-6.011 -25.881,-23.548 -22.144,-28.827 z" />
		<path
   id="path4111_1_"
   stroke="#000000"
   stroke-width="1.3011"
   stroke-linecap="round"
   stroke-linejoin="round"
   d="m 1393.755,696.245 c 8.58,1.09 18.659,-3.333 26.149,-25.25 -24.161,2.479 -29.067,19.478 -26.149,25.25 z" />
		<path
   id="path4111_7_"
   stroke="#000000"
   stroke-width="1.3011"
   stroke-linecap="round"
   stroke-linejoin="round"
   d="m 582.366,310.034 c 1.09,-8.58 -3.333,-18.659 -25.25,-26.149 2.479,24.161 19.478,29.067 25.25,26.149 z" />
		<path
   id="path4111_5_"
   stroke="#000000"
   stroke-width="1.3011"
   stroke-linecap="round"
   stroke-linejoin="round"
   d="m 196.155,1121.423 c -8.58,-1.09 -18.659,3.333 -26.149,25.25 24.161,-2.479 29.067,-19.478 26.149,-25.25 z" />
		<path
   id="path4111_3_"
   stroke="#000000"
   stroke-width="1.3011"
   stroke-linecap="round"
   stroke-linejoin="round"
   d="m 1007.544,1507.634 c -1.09,8.58 3.333,18.659 25.25,26.149 -2.479,-24.162 -19.478,-29.068 -25.25,-26.149 z" />
	</g>
	<path
   id="path4140"
   stroke="#000000"
   stroke-width="1.3011"
   d="m 1347.135,344.961 c 9.455,-20.772 22.189,-39.677 17.835,-64.102 -10.267,-30.012 -55.523,-21.896 -54.314,3.345 0.159,16.619 7.4,24.591 18.795,31.22 6.321,3.676 22.124,3.383 31.06,2.071 l -1.289,5.042 c -8.842,-0.348 -1.625,3.337 -31.364,-5.36 -9.363,-2.738 -22.105,-14.334 -20.388,-32.971 1.972,-7.515 1.972,-25.935 28.034,-25.167 1.854,0.055 26.147,1.241 31.857,21.822 4.889,17.778 5.217,30.719 2.713,41.162 10.444,-2.504 23.385,-2.176 41.162,2.713 20.581,5.71 21.767,30.004 21.822,31.857 0.768,26.062 -17.651,26.062 -25.167,28.034 -18.637,1.716 -30.232,-11.026 -32.971,-20.388 -8.698,-29.739 -5.013,-22.522 -5.36,-31.364 l 5.042,-1.289 c -1.312,8.937 -1.606,24.74 2.071,31.06 6.628,11.395 14.601,18.636 31.22,18.795 25.241,1.208 33.356,-44.048 3.345,-54.314 -24.426,-4.355 -43.331,8.379 -64.103,17.834 z" />
	<path
   stroke="#000000"
   stroke-width="1.3011"
   d="m 1347.135,1347.135 c 20.772,9.455 39.677,22.189 64.102,17.835 30.012,-10.267 21.896,-55.523 -3.345,-54.314 -16.619,0.159 -24.591,7.4 -31.22,18.795 -3.676,6.321 -3.383,22.124 -2.071,31.06 l -5.042,-1.289 c 0.348,-8.842 -3.337,-1.625 5.36,-31.364 2.738,-9.363 14.334,-22.105 32.971,-20.388 7.515,1.972 25.935,1.972 25.167,28.034 -0.055,1.854 -1.241,26.147 -21.822,31.857 -17.778,4.889 -30.719,5.217 -41.162,2.713 2.504,10.444 2.176,23.385 -2.713,41.162 -5.71,20.581 -30.004,21.767 -31.857,21.822 -26.062,0.768 -26.062,-17.651 -28.034,-25.167 -1.716,-18.637 11.026,-30.232 20.388,-32.971 29.739,-8.698 22.522,-5.013 31.364,-5.36 l 1.289,5.042 c -8.937,-1.312 -24.74,-1.606 -31.06,2.071 -11.395,6.628 -18.636,14.601 -18.795,31.22 -1.208,25.241 44.047,33.356 54.314,3.345 4.355,-24.426 -8.379,-43.331 -17.834,-64.103 z"
   id="path168" />
	<path
   stroke="#000000"
   stroke-width="1.3011"
   d="m 344.961,1347.135 c -9.455,20.772 -22.189,39.677 -17.835,64.102 10.267,30.012 55.523,21.896 54.314,-3.345 -0.159,-16.619 -7.4,-24.591 -18.795,-31.22 -6.321,-3.676 -22.124,-3.383 -31.06,-2.071 l 1.289,-5.042 c 8.842,0.348 1.625,-3.337 31.364,5.36 9.363,2.738 22.105,14.334 20.388,32.971 -1.972,7.515 -1.972,25.935 -28.034,25.167 -1.854,-0.055 -26.147,-1.241 -31.857,-21.822 -4.889,-17.778 -5.217,-30.719 -2.713,-41.162 -10.444,2.504 -23.385,2.176 -41.162,-2.713 -20.581,-5.71 -21.767,-30.004 -21.822,-31.857 -0.768,-26.062 17.651,-26.062 25.167,-28.034 18.637,-1.716 30.232,11.026 32.971,20.388 8.698,29.739 5.013,22.522 5.36,31.364 l -5.042,1.289 c 1.312,-8.937 1.606,-24.74 -2.071,-31.06 -6.628,-11.395 -14.601,-18.636 -31.22,-18.795 -25.241,-1.208 -33.356,44.047 -3.345,54.314 24.426,4.355 43.331,-8.379 64.103,-17.834 z"
   id="path170" />
	<path
   stroke="#000000"
   stroke-width="1.3011"
   d="m 344.961,344.961 c -20.772,-9.455 -39.677,-22.189 -64.102,-17.835 -30.012,10.267 -21.896,55.523 3.345,54.314 16.619,-0.159 24.591,-7.4 31.22,-18.795 3.676,-6.321 3.383,-22.124 2.071,-31.06 l 5.042,1.289 c -0.348,8.842 3.337,1.625 -5.36,31.364 -2.738,9.363 -14.334,22.105 -32.971,20.388 -7.515,-1.972 -25.935,-1.972 -25.167,-28.034 0.055,-1.854 1.241,-26.147 21.822,-31.857 17.778,-4.889 30.719,-5.217 41.162,-2.713 -2.504,-10.444 -2.176,-23.385 2.713,-41.162 5.71,-20.581 30.004,-21.767 31.857,-21.822 26.062,-0.768 26.062,17.651 28.034,25.167 1.716,18.637 -11.026,30.232 -20.388,32.971 -29.739,8.698 -22.522,5.013 -31.364,5.36 l -1.289,-5.042 c 8.937,1.312 24.74,1.606 31.06,-2.071 11.395,-6.628 18.636,-14.601 18.795,-31.22 1.208,-25.241 -44.048,-33.356 -54.314,-3.345 -4.355,24.426 8.379,43.331 17.834,64.103 z"
   id="path172" />
	<path
   id="path4144"
   stroke="#000000"
   stroke-width="1.3011"
   d="m 1248.295,209.624 c -5.006,10.052 -17.313,15.32 -24.517,6.179 -1.532,0.474 -2.889,1.847 -3.789,2.649 13.239,11.367 0.042,21.059 -8.433,19.279 -4.876,-1.37 -13.125,9.812 -18.974,15.049 -4.685,-18.144 4.446,-20.459 11.084,-26.304 3.387,-3.839 -0.686,-8.783 -5.932,-4.865 -7.238,6.418 -14.35,13.295 -26.077,3.556 -4.722,-4.317 -9.295,-8.881 -15.43,-10.857 3.59,-2.344 6.402,-2.281 13.288,-11.187 3.85,-4.786 18.695,-12.128 25.683,0.055 3.129,3.116 10.506,0.635 7.581,-5.073 -7.409,-6.63 -16.953,-12.069 -12.108,-25.496 5.234,5.455 8.601,14.584 22.309,14.976 13.266,-1.511 14.625,14.224 5.451,17.488 0.802,1.097 2.372,2.533 3.768,3.321 9.266,-11.476 20.022,-6.943 26.096,1.23 z" />
	<path
   id="path4144_6_"
   stroke="#000000"
   stroke-width="1.3011"
   d="m 209.624,443.801 c 10.052,5.006 15.32,17.313 6.179,24.517 0.474,1.532 1.847,2.889 2.649,3.789 11.367,-13.239 21.059,-0.042 19.279,8.433 -1.37,4.876 9.812,13.125 15.049,18.974 -18.144,4.685 -20.459,-4.446 -26.304,-11.084 -3.839,-3.387 -8.783,0.686 -4.865,5.932 6.418,7.238 13.295,14.35 3.556,26.077 -4.317,4.722 -8.881,9.295 -10.857,15.43 -2.344,-3.59 -2.281,-6.402 -11.187,-13.288 -4.786,-3.85 -12.128,-18.695 0.055,-25.683 3.116,-3.129 0.635,-10.507 -5.073,-7.581 -6.63,7.409 -12.069,16.953 -25.496,12.108 5.455,-5.234 14.584,-8.601 14.976,-22.309 -1.511,-13.266 14.224,-14.625 17.488,-5.451 1.097,-0.802 2.533,-2.372 3.321,-3.768 -11.476,-9.266 -6.943,-20.021 1.23,-26.096 z" />
	<path
   id="path4144_4_"
   stroke="#000000"
   stroke-width="1.3011"
   d="m 443.801,1482.472 c 5.006,-10.052 17.313,-15.32 24.517,-6.179 1.532,-0.474 2.889,-1.847 3.789,-2.649 -13.239,-11.367 -0.042,-21.059 8.433,-19.279 4.876,1.37 13.125,-9.812 18.974,-15.049 4.685,18.144 -4.446,20.459 -11.084,26.304 -3.387,3.839 0.686,8.783 5.932,4.865 7.238,-6.418 14.35,-13.295 26.077,-3.556 4.722,4.317 9.295,8.881 15.43,10.857 -3.59,2.344 -6.402,2.281 -13.288,11.187 -3.85,4.786 -18.695,12.128 -25.683,-0.055 -3.129,-3.116 -10.507,-0.635 -7.581,5.073 7.409,6.63 16.953,12.069 12.108,25.496 -5.234,-5.455 -8.601,-14.584 -22.309,-14.976 -13.266,1.511 -14.625,-14.224 -5.451,-17.488 -0.802,-1.097 -2.372,-2.533 -3.768,-3.321 -9.266,11.477 -20.021,6.944 -26.096,-1.23 z" />
	<path
   id="path4144_2_"
   stroke="#000000"
   stroke-width="1.3011"
   d="m 1482.472,1248.295 c -10.052,-5.006 -15.32,-17.313 -6.179,-24.517 -0.474,-1.532 -1.847,-2.889 -2.649,-3.789 -11.367,13.239 -21.059,0.042 -19.279,-8.433 1.37,-4.876 -9.812,-13.125 -15.049,-18.974 18.144,-4.685 20.459,4.446 26.304,11.084 3.839,3.387 8.783,-0.686 4.865,-5.932 -6.418,-7.238 -13.295,-14.35 -3.556,-26.077 4.317,-4.722 8.881,-9.295 10.857,-15.43 2.344,3.59 2.281,6.402 11.187,13.288 4.786,3.85 12.128,18.695 -0.055,25.683 -3.116,3.129 -0.635,10.506 5.073,7.581 6.63,-7.409 12.069,-16.953 25.496,-12.108 -5.455,5.234 -14.584,8.601 -14.976,22.309 1.511,13.266 -14.224,14.625 -17.488,5.451 -1.097,0.802 -2.533,2.372 -3.321,3.768 11.477,9.266 6.944,20.022 -1.23,26.096 z" />
	<path
   id="path4144_1_"
   stroke="#000000"
   stroke-width="1.3011"
   d="m 1482.472,443.801 c -10.052,5.006 -15.32,17.313 -6.179,24.517 -0.474,1.532 -1.847,2.889 -2.649,3.789 -11.367,-13.239 -21.059,-0.042 -19.279,8.433 1.37,4.876 -9.812,13.125 -15.049,18.974 18.144,4.685 20.459,-4.446 26.304,-11.084 3.839,-3.387 8.783,0.686 4.865,5.932 -6.418,7.238 -13.295,14.35 -3.556,26.077 4.317,4.722 8.881,9.295 10.857,15.43 2.344,-3.59 2.281,-6.402 11.187,-13.288 4.786,-3.85 12.128,-18.695 -0.055,-25.683 -3.116,-3.129 -0.635,-10.507 5.073,-7.581 6.63,7.409 12.069,16.953 25.496,12.108 -5.455,-5.234 -14.584,-8.601 -14.976,-22.309 1.511,-13.266 -14.224,-14.625 -17.488,-5.451 -1.097,-0.802 -2.533,-2.372 -3.321,-3.768 11.477,-9.266 6.944,-20.021 -1.23,-26.096 z" />
	<path
   id="path4144_7_"
   stroke="#000000"
   stroke-width="1.3011"
   d="m 443.801,209.624 c 5.006,10.052 17.313,15.32 24.517,6.179 1.532,0.474 2.889,1.847 3.789,2.649 -13.239,11.367 -0.042,21.059 8.433,19.279 4.876,-1.37 13.125,9.812 18.974,15.049 4.685,-18.144 -4.446,-20.459 -11.084,-26.304 -3.387,-3.839 0.686,-8.783 5.932,-4.865 7.238,6.418 14.35,13.295 26.077,3.556 4.722,-4.317 9.295,-8.881 15.43,-10.857 -3.59,-2.344 -6.402,-2.281 -13.288,-11.187 -3.85,-4.786 -18.695,-12.128 -25.683,0.055 -3.129,3.116 -10.507,0.635 -7.581,-5.073 7.409,-6.63 16.953,-12.069 12.108,-25.496 -5.234,5.455 -8.601,14.584 -22.309,14.976 -13.266,-1.511 -14.625,14.224 -5.451,17.488 -0.802,1.097 -2.372,2.533 -3.768,3.321 -9.266,-11.476 -20.021,-6.943 -26.096,1.23 z" />
	<path
   id="path4144_5_"
   stroke="#000000"
   stroke-width="1.3011"
   d="m 209.624,1248.295 c 10.052,-5.006 15.32,-17.313 6.179,-24.517 0.474,-1.532 1.847,-2.889 2.649,-3.789 11.367,13.239 21.059,0.042 19.279,-8.433 -1.37,-4.876 9.812,-13.125 15.049,-18.974 -18.144,-4.685 -20.459,4.446 -26.304,11.084 -3.839,3.387 -8.783,-0.686 -4.865,-5.932 6.418,-7.238 13.295,-14.35 3.556,-26.077 -4.317,-4.722 -8.881,-9.295 -10.857,-15.43 -2.344,3.59 -2.281,6.402 -11.187,13.288 -4.786,3.85 -12.128,18.695 0.055,25.683 3.116,3.129 0.635,10.506 -5.073,7.581 -6.63,-7.409 -12.069,-16.953 -25.496,-12.108 5.455,5.234 14.584,8.601 14.976,22.309 -1.511,13.266 14.224,14.625 17.488,5.451 1.097,0.802 2.533,2.372 3.321,3.768 -11.476,9.266 -6.943,20.022 1.23,26.096 z" />
	<path
   id="path4144_3_"
   stroke="#000000"
   stroke-width="1.3011"
   d="m 1248.295,1482.472 c -5.006,-10.052 -17.313,-15.32 -24.517,-6.179 -1.532,-0.474 -2.889,-1.847 -3.789,-2.649 13.239,-11.367 0.042,-21.059 -8.433,-19.279 -4.876,1.37 -13.125,-9.812 -18.974,-15.049 -4.685,18.144 4.446,20.459 11.084,26.304 3.387,3.839 -0.686,8.783 -5.932,4.865 -7.238,-6.418 -14.35,-13.295 -26.077,-3.556 -4.722,4.317 -9.295,8.881 -15.43,10.857 3.59,2.344 6.402,2.281 13.288,11.187 3.85,4.786 18.695,12.128 25.683,-0.055 3.129,-3.116 10.506,-0.635 7.581,5.073 -7.409,6.63 -16.953,12.069 -12.108,25.496 5.234,-5.455 8.601,-14.584 22.309,-14.976 13.266,1.511 14.625,-14.224 5.451,-17.488 0.802,-1.097 2.372,-2.533 3.768,-3.321 9.266,11.477 20.022,6.944 26.096,-1.23 z" />
	<path
   id="path4160"
   stroke="#000000"
   stroke-width="1.3011"
   stroke-linecap="round"
   stroke-linejoin="round"
   d="m 1297.634,328.365 c 8.916,4.704 9.282,6.311 3.285,12.774 -25.252,7.01 -54.758,8.657 -71.04,28.487 -0.219,-7.111 -4.191,-17.221 27.376,-26.543 -11.467,-1.817 -24.655,2.925 -36.414,2.567 -4.406,-0.134 -16.552,-7.391 -21.259,-9.56 5.541,-2.746 20.26,-8.135 24.163,-8.033 10.58,0.277 22.155,3.275 31.312,1.569 -30.658,-8.558 -27.671,-22.573 -26.131,-26.795 11.105,12.661 29.698,23.374 68.708,25.537 z" />
	<path
   id="path4160_6_"
   stroke="#000000"
   stroke-width="1.3011"
   stroke-linecap="round"
   stroke-linejoin="round"
   d="m 328.365,394.462 c 4.704,-8.916 6.311,-9.282 12.774,-3.285 7.01,25.252 8.657,54.758 28.487,71.04 -7.111,0.219 -17.221,4.191 -26.543,-27.376 -1.817,11.467 2.925,24.655 2.567,36.414 -0.134,4.405 -7.391,16.552 -9.56,21.259 -2.746,-5.541 -8.135,-20.26 -8.033,-24.163 0.277,-10.58 3.275,-22.155 1.569,-31.312 -8.558,30.658 -22.573,27.671 -26.795,26.131 12.661,-11.105 23.374,-29.698 25.537,-68.708 z" />
	<path
   id="path4160_4_"
   stroke="#000000"
   stroke-width="1.3011"
   stroke-linecap="round"
   stroke-linejoin="round"
   d="m 394.462,1363.731 c -8.916,-4.704 -9.282,-6.311 -3.285,-12.774 25.252,-7.01 54.758,-8.657 71.04,-28.487 0.219,7.111 4.191,17.221 -27.376,26.543 11.467,1.817 24.655,-2.925 36.414,-2.567 4.405,0.134 16.552,7.391 21.259,9.56 -5.541,2.746 -20.26,8.135 -24.163,8.033 -10.58,-0.277 -22.155,-3.275 -31.312,-1.569 30.658,8.558 27.671,22.573 26.131,26.795 -11.105,-12.661 -29.698,-23.374 -68.708,-25.537 z" />
	<path
   id="path4160_2_"
   stroke="#000000"
   stroke-width="1.3011"
   stroke-linecap="round"
   stroke-linejoin="round"
   d="m 1363.731,1297.634 c -4.704,8.916 -6.311,9.282 -12.774,3.285 -7.01,-25.252 -8.657,-54.758 -28.487,-71.04 7.111,-0.219 17.221,-4.191 26.543,27.376 1.817,-11.467 -2.925,-24.655 -2.567,-36.414 0.134,-4.406 7.391,-16.552 9.56,-21.259 2.746,5.541 8.135,20.26 8.033,24.163 -0.277,10.58 -3.275,22.155 -1.569,31.312 8.558,-30.658 22.573,-27.671 26.795,-26.131 -12.661,11.105 -23.374,29.698 -25.537,68.708 z" />
	<path
   id="path4160_1_"
   stroke="#000000"
   stroke-width="1.3011"
   stroke-linecap="round"
   stroke-linejoin="round"
   d="m 1363.731,394.462 c -4.704,-8.916 -6.311,-9.282 -12.774,-3.285 -7.01,25.252 -8.657,54.758 -28.487,71.04 7.111,0.219 17.221,4.191 26.543,-27.376 1.817,11.467 -2.925,24.655 -2.567,36.414 0.134,4.405 7.391,16.552 9.56,21.259 2.746,-5.541 8.135,-20.26 8.033,-24.163 -0.277,-10.58 -3.275,-22.155 -1.569,-31.312 8.558,30.658 22.573,27.671 26.795,26.131 -12.661,-11.105 -23.374,-29.698 -25.537,-68.708 z" />
	<path
   id="path4160_7_"
   stroke="#000000"
   stroke-width="1.3011"
   stroke-linecap="round"
   stroke-linejoin="round"
   d="m 394.462,328.365 c -8.916,4.704 -9.282,6.311 -3.285,12.774 25.252,7.01 54.758,8.657 71.04,28.487 0.219,-7.111 4.191,-17.221 -27.376,-26.543 11.467,-1.817 24.655,2.925 36.414,2.567 4.405,-0.134 16.552,-7.391 21.259,-9.56 -5.541,-2.746 -20.26,-8.135 -24.163,-8.033 -10.58,0.277 -22.155,3.275 -31.312,1.569 30.658,-8.558 27.671,-22.573 26.131,-26.795 -11.105,12.661 -29.698,23.374 -68.708,25.537 z" />
	<path
   id="path4160_5_"
   stroke="#000000"
   stroke-width="1.3011"
   stroke-linecap="round"
   stroke-linejoin="round"
   d="m 328.365,1297.634 c 4.704,8.916 6.311,9.282 12.774,3.285 7.01,-25.252 8.657,-54.758 28.487,-71.04 -7.111,-0.219 -17.221,-4.191 -26.543,27.376 -1.817,-11.467 2.925,-24.655 2.567,-36.414 -0.134,-4.406 -7.391,-16.552 -9.56,-21.259 -2.746,5.541 -8.135,20.26 -8.033,24.163 0.277,10.58 3.275,22.155 1.569,31.312 -8.558,-30.658 -22.573,-27.671 -26.795,-26.131 12.661,11.105 23.374,29.698 25.537,68.708 z" />
	<path
   id="path4160_3_"
   stroke="#000000"
   stroke-width="1.3011"
   stroke-linecap="round"
   stroke-linejoin="round"
   d="m 1297.634,1363.731 c 8.916,-4.704 9.282,-6.311 3.285,-12.774 -25.252,-7.01 -54.758,-8.657 -71.04,-28.487 -0.219,7.111 -4.191,17.221 27.376,26.543 -11.467,1.817 -24.655,-2.925 -36.414,-2.567 -4.406,0.134 -16.552,7.391 -21.259,9.56 5.541,2.746 20.26,8.135 24.163,8.033 10.58,-0.277 22.155,-3.275 31.312,-1.569 -30.658,8.558 -27.671,22.573 -26.131,26.795 11.105,-12.661 29.698,-23.374 68.708,-25.537 z" />
	<path
   id="path4180"
   stroke="#000000"
   stroke-width="1.3011"
   stroke-linecap="round"
   stroke-linejoin="round"
   d="m 1003.243,217.458 c 9.493,-3.39 10.925,-2.574 11.634,6.215 -11.906,23.347 -30.639,46.203 -27.034,71.606 -5.388,-4.649 -15.523,-8.554 -1.053,-38.118 -9.091,7.222 -14.512,20.146 -22.723,28.569 -3.076,3.156 -16.636,7.2 -21.416,9.203 1.722,-5.939 7.701,-20.429 10.415,-23.236 7.356,-7.608 17.389,-14.112 22.323,-22.013 -27.033,16.806 -35.342,5.131 -37.411,1.143 16.836,0.375 37.301,-6.083 65.265,-33.367 z" />
	<path
   id="path4180_6_"
   stroke="#000000"
   stroke-width="1.3011"
   stroke-linecap="round"
   stroke-linejoin="round"
   d="m 217.458,688.853 c -3.39,-9.493 -2.574,-10.925 6.215,-11.634 23.347,11.906 46.203,30.639 71.606,27.034 -4.649,5.388 -8.554,15.523 -38.118,1.053 7.222,9.091 20.146,14.512 28.569,22.723 3.156,3.076 7.2,16.636 9.203,21.416 -5.939,-1.722 -20.429,-7.701 -23.236,-10.415 -7.608,-7.356 -14.112,-17.389 -22.013,-22.323 16.806,27.033 5.131,35.342 1.143,37.411 0.375,-16.836 -6.083,-37.301 -33.367,-65.265 z" />
	<path
   id="path4180_4_"
   stroke="#000000"
   stroke-width="1.3011"
   stroke-linecap="round"
   stroke-linejoin="round"
   d="m 688.853,1474.639 c -9.493,3.39 -10.925,2.574 -11.634,-6.215 11.906,-23.347 30.639,-46.203 27.034,-71.606 5.388,4.649 15.523,8.554 1.053,38.118 9.091,-7.222 14.512,-20.146 22.723,-28.569 3.076,-3.156 16.636,-7.2 21.416,-9.203 -1.722,5.939 -7.701,20.429 -10.415,23.236 -7.356,7.609 -17.389,14.112 -22.323,22.013 27.033,-16.806 35.342,-5.131 37.411,-1.143 -16.836,-0.375 -37.301,6.083 -65.265,33.367 z" />
	<path
   id="path4180_2_"
   stroke="#000000"
   stroke-width="1.3011"
   stroke-linecap="round"
   stroke-linejoin="round"
   d="m 1474.639,1003.243 c 3.39,9.493 2.574,10.925 -6.215,11.634 -23.347,-11.906 -46.203,-30.639 -71.606,-27.034 4.649,-5.388 8.554,-15.523 38.118,-1.053 -7.222,-9.091 -20.146,-14.512 -28.569,-22.723 -3.156,-3.076 -7.2,-16.636 -9.203,-21.416 5.939,1.722 20.429,7.701 23.236,10.415 7.609,7.356 14.112,17.389 22.013,22.323 -16.806,-27.033 -5.131,-35.342 -1.143,-37.411 -0.375,16.836 6.083,37.301 33.367,65.265 z" />
	<path
   id="path4180_1_"
   stroke="#000000"
   stroke-width="1.3011"
   stroke-linecap="round"
   stroke-linejoin="round"
   d="m 1474.639,688.853 c 3.39,-9.493 2.574,-10.925 -6.215,-11.634 -23.347,11.906 -46.203,30.639 -71.606,27.034 4.649,5.388 8.554,15.523 38.118,1.053 -7.222,9.091 -20.146,14.512 -28.569,22.723 -3.156,3.076 -7.2,16.636 -9.203,21.416 5.939,-1.722 20.429,-7.701 23.236,-10.415 7.609,-7.356 14.112,-17.389 22.013,-22.323 -16.806,27.033 -5.131,35.342 -1.143,37.411 -0.375,-16.836 6.083,-37.301 33.367,-65.265 z" />
	<path
   id="path4180_7_"
   stroke="#000000"
   stroke-width="1.3011"
   stroke-linecap="round"
   stroke-linejoin="round"
   d="m 688.853,217.458 c -9.493,-3.39 -10.925,-2.574 -11.634,6.215 11.906,23.347 30.639,46.203 27.034,71.606 5.388,-4.649 15.523,-8.554 1.053,-38.118 9.091,7.222 14.512,20.146 22.723,28.569 3.076,3.156 16.636,7.2 21.416,9.203 -1.722,-5.939 -7.701,-20.429 -10.415,-23.236 -7.356,-7.608 -17.389,-14.112 -22.323,-22.013 27.033,16.806 35.342,5.131 37.411,1.143 -16.836,0.375 -37.301,-6.083 -65.265,-33.367 z" />
	<path
   id="path4180_5_"
   stroke="#000000"
   stroke-width="1.3011"
   stroke-linecap="round"
   stroke-linejoin="round"
   d="m 217.458,1003.243 c -3.39,9.493 -2.574,10.925 6.215,11.634 23.347,-11.906 46.203,-30.639 71.606,-27.034 -4.649,-5.388 -8.554,-15.523 -38.118,-1.053 7.222,-9.091 20.146,-14.512 28.569,-22.723 3.156,-3.076 7.2,-16.636 9.203,-21.416 -5.939,1.722 -20.429,7.701 -23.236,10.415 -7.608,7.356 -14.112,17.389 -22.013,22.323 16.806,-27.033 5.131,-35.342 1.143,-37.411 0.375,16.836 -6.083,37.301 -33.367,65.265 z" />
	<path
   id="path4180_3_"
   stroke="#000000"
   stroke-width="1.3011"
   stroke-linecap="round"
   stroke-linejoin="round"
   d="m 1003.243,1474.639 c 9.493,3.39 10.925,2.574 11.634,-6.215 -11.906,-23.347 -30.639,-46.203 -27.034,-71.606 -5.388,4.649 -15.523,8.554 -1.053,38.118 -9.091,-7.222 -14.512,-20.146 -22.723,-28.569 -3.076,-3.156 -16.636,-7.2 -21.416,-9.203 1.722,5.939 7.701,20.429 10.415,23.236 7.356,7.609 17.389,14.112 22.323,22.013 -27.033,-16.806 -35.342,-5.131 -37.411,-1.143 16.836,-0.375 37.301,6.083 65.265,33.367 z" />
</g>
</svg>
