<?xml version="1.0" encoding="UTF-8" standalone="no"?>
<svg
   version="1.1"
   id="Layer_1"
   x="0px"
   y="0px"
   viewBox="0 0 1599.9996 1599.9988"
   enable-background="new 0 0 1625.869 1625.869"
   xml:space="preserve"
   sodipodi:docname="15916331801591631879159163111615916269721545769933.svg"
   width="1599.9996"
   height="1599.9988"
   inkscape:version="1.1 (ce6663b3b7, 2021-05-25)"
   xmlns:inkscape="http://www.inkscape.org/namespaces/inkscape"
   xmlns:sodipodi="http://sodipodi.sourceforge.net/DTD/sodipodi-0.dtd"
   xmlns="http://www.w3.org/2000/svg"
   xmlns:svg="http://www.w3.org/2000/svg"><defs
   id="defs231" /><sodipodi:namedview
   id="namedview229"
   pagecolor="#ffffff"
   bordercolor="#666666"
   borderopacity="1.0"
   inkscape:pageshadow="2"
   inkscape:pageopacity="0.0"
   inkscape:pagecheckerboard="0"
   showgrid="false"
   fit-margin-top="0"
   fit-margin-left="0"
   fit-margin-right="0"
   fit-margin-bottom="0"
   inkscape:zoom="0.51910701"
   inkscape:cx="798.48662"
   inkscape:cy="952.59743"
   inkscape:window-width="1848"
   inkscape:window-height="1016"
   inkscape:window-x="72"
   inkscape:window-y="27"
   inkscape:window-maximized="1"
   inkscape:current-layer="Layer_1" />
<g
   id="g226"
   transform="translate(-12.934704,-12.935576)">
	<path
   d="m 249.412,216.252 c 4.409,-3.527 8.197,-7.75 11.637,-12.183 -2.844,-5.787 -7.327,-10.569 -9.985,-16.456 -4.309,-9.501 -8.097,-19.362 -9.762,-29.695 -3.501,-31.481 4.745,-58.656 20.243,-77.161 6.607,-7.774 13.376,-15.636 21.784,-21.547 22.168,-16.021 49.553,-23.572 76.615,-25.062 16.459,-0.253 203.233,-0.984 333.284,-1.005 143.001,0.021 556.238,0.753 572.698,1.005 27.062,1.49 54.446,9.041 76.615,25.062 8.408,5.912 15.176,13.773 21.783,21.547 15.499,18.505 23.744,45.681 20.243,77.161 -1.664,10.333 -5.452,20.194 -9.761,29.695 -2.658,5.887 -7.141,10.668 -9.985,16.456 3.44,4.434 7.228,8.656 11.637,12.183 7.909,-7.32 34.652,-50.602 24.69,-97.665 -9.51,-40.728 -31.966,-67.677 -67.164,-86.972 -42.466,-21.065 -90.867,-18.135 -109.116,-18.331 -0.876,-0.003 -405.114,-0.399 -531.542,-0.343 -111.542,-0.056 -291.448,0.34 -292.324,0.343 -18.249,0.195 -66.65,-2.734 -109.116,18.331 -35.198,19.296 -57.654,46.244 -67.164,86.972 -9.962,47.063 16.78,90.344 24.69,97.665 z"
   id="path2" />
	<path
   d="m 31.614,1333.984 c 19.296,35.198 46.244,57.654 86.972,67.163 47.064,9.962 90.345,-16.78 97.665,-24.69 -3.527,-4.409 -7.75,-8.197 -12.183,-11.637 -5.787,2.844 -10.569,7.328 -16.456,9.985 -9.501,4.309 -19.362,8.097 -29.695,9.762 -31.481,3.501 -58.656,-4.745 -77.161,-20.243 -7.775,-6.607 -15.636,-13.376 -21.547,-21.783 -16.021,-22.168 -23.572,-49.553 -25.062,-76.615 -0.256,-16.663 -1.003,-207.883 -1.006,-338.087 0.003,-137.575 0.75,-551.232 1.006,-567.895 1.49,-27.062 9.041,-54.446 25.062,-76.615 5.912,-8.408 13.773,-15.176 21.547,-21.784 18.505,-15.499 45.68,-23.744 77.161,-20.243 10.333,1.664 20.194,5.452 29.695,9.762 5.887,2.658 10.668,7.141 16.456,9.985 4.434,-3.44 8.656,-7.228 12.183,-11.637 -7.32,-7.909 -50.602,-34.652 -97.665,-24.69 -40.728,9.509 -67.677,31.966 -86.972,67.164 -21.065,42.466 -18.135,90.867 -18.331,109.116 -0.003,0.889 -0.411,407.137 -0.34,526.8 -0.07,111.103 0.337,296.177 0.34,297.066 0.195,18.248 -2.734,66.649 18.331,109.116 z"
   id="path4" />
	<path
   d="m 1376.457,1409.617 c -4.409,3.527 -8.197,7.75 -11.637,12.183 2.844,5.787 7.327,10.569 9.985,16.455 4.309,9.501 8.097,19.362 9.761,29.695 3.501,31.481 -4.745,58.656 -20.243,77.161 -6.607,7.775 -13.375,15.636 -21.783,21.548 -22.168,16.021 -49.553,23.572 -76.615,25.062 -16.663,0.256 -207.883,1.003 -338.087,1.006 -137.575,0 -551.232,-0.75 -567.895,-1.006 -27.062,-1.49 -54.446,-9.041 -76.615,-25.062 -8.408,-5.912 -15.176,-13.773 -21.784,-21.548 -15.499,-18.505 -23.744,-45.68 -20.243,-77.161 1.664,-10.333 5.452,-20.194 9.762,-29.695 2.658,-5.887 7.141,-10.668 9.985,-16.455 -3.44,-4.434 -7.228,-8.656 -11.637,-12.183 -7.909,7.32 -34.652,50.602 -24.69,97.666 9.509,40.728 31.966,67.677 67.164,86.972 42.466,21.065 90.867,18.135 109.116,18.331 0.889,0 407.137,0.411 526.8,0.34 111.103,0.071 296.177,-0.337 297.066,-0.34 18.249,-0.195 66.65,2.734 109.116,-18.331 35.198,-19.296 57.654,-46.244 67.164,-86.972 9.962,-47.064 -16.78,-90.345 -24.69,-97.666 z"
   id="path6" />
	<path
   d="m 1612.926,698.067 c 0.071,-111.103 -0.337,-296.176 -0.34,-297.066 -0.196,-18.249 2.734,-66.65 -18.331,-109.116 -19.296,-35.198 -46.244,-57.654 -86.972,-67.164 -47.064,-9.962 -90.345,16.78 -97.665,24.69 3.527,4.409 7.75,8.197 12.183,11.637 5.787,-2.844 10.569,-7.327 16.455,-9.985 9.501,-4.309 19.362,-8.097 29.695,-9.762 31.481,-3.501 58.656,4.745 77.161,20.243 7.775,6.607 15.636,13.376 21.547,21.784 16.021,22.168 23.572,49.553 25.062,76.615 0.256,16.663 1.003,207.883 1.006,338.087 0,137.575 -0.75,551.232 -1.006,567.895 -1.49,27.062 -9.041,54.446 -25.062,76.615 -5.912,8.408 -13.773,15.176 -21.547,21.783 -18.505,15.499 -45.681,23.744 -77.161,20.243 -10.333,-1.664 -20.194,-5.452 -29.695,-9.762 -5.887,-2.658 -10.668,-7.141 -16.455,-9.985 -4.434,3.44 -8.656,7.228 -12.183,11.637 7.32,7.909 50.602,34.652 97.665,24.69 40.728,-9.509 67.677,-31.966 86.972,-67.163 21.065,-42.466 18.135,-90.867 18.331,-109.116 0,-0.888 0.411,-407.136 0.34,-526.8 z"
   id="path8" />
	<path
   d="m 1555.134,637.751 c -9.915,-19.63 -16.28,-29.269 -89.096,-113.326 -8.308,-9.041 -15.735,-18.89 -24.491,-27.509 -1.49,1.875 -4.794,3.962 -3.279,6.706 0,0 54.259,73.503 66.394,93.964 10.569,16.418 19.56,33.954 25.584,52.546 7.668,34.454 -9.609,43.457 -16.158,48.025 7.961,7.154 19.995,4.98 28.664,0.335 9.153,-3.987 14.506,-13.202 17.76,-22.206 3.49,-12.927 -0.248,-26.563 -5.378,-38.535 z"
   id="path10" />
	<path
   d="m 698.493,83.117 c -3.987,-9.153 -13.202,-14.506 -22.206,-17.76 -12.929,-3.49 -26.565,0.248 -38.537,5.378 -19.63,9.915 -29.269,16.28 -113.326,89.096 -9.041,8.309 -18.89,15.735 -27.509,24.491 1.875,1.49 3.962,4.794 6.706,3.279 0,0 73.503,-54.259 93.965,-66.394 16.418,-10.569 33.954,-19.56 52.546,-25.584 34.454,-7.669 43.457,9.609 48.025,16.158 7.155,-7.961 4.981,-19.996 0.336,-28.664 z"
   id="path12" />
	<path
   d="m 70.735,988.118 c 9.915,19.63 16.28,29.269 89.096,113.326 8.309,9.041 15.735,18.89 24.491,27.509 1.49,-1.875 4.794,-3.962 3.279,-6.707 0,0 -54.259,-73.503 -66.394,-93.964 -10.569,-16.418 -19.56,-33.954 -25.584,-52.546 -7.669,-34.454 9.609,-43.457 16.157,-48.025 -7.961,-7.154 -19.995,-4.98 -28.664,-0.335 -9.153,3.987 -14.506,13.202 -17.76,22.206 -3.489,12.928 0.249,26.564 5.379,38.536 z"
   id="path14" />
	<path
   d="m 927.375,1542.752 c 3.987,9.153 13.202,14.506 22.206,17.76 12.929,3.49 26.565,-0.248 38.537,-5.377 19.63,-9.916 29.269,-16.28 113.326,-89.096 9.041,-8.308 18.89,-15.735 27.509,-24.491 -1.875,-1.49 -3.962,-4.794 -6.706,-3.279 0,0 -73.503,54.26 -93.964,66.394 -16.418,10.569 -33.954,19.561 -52.546,25.584 -34.454,7.669 -43.457,-9.609 -48.025,-16.158 -7.155,7.96 -4.981,19.995 -0.337,28.663 z"
   id="path16" />
	<path
   d="m 1560.512,949.581 c -3.254,-9.004 -8.607,-18.219 -17.76,-22.206 -8.669,-4.645 -20.703,-6.818 -28.664,0.335 6.548,4.569 23.826,13.571 16.158,48.025 -6.023,18.592 -15.015,36.128 -25.584,52.546 -12.134,20.462 -66.394,93.964 -66.394,93.964 -1.515,2.745 1.788,4.831 3.279,6.707 8.756,-8.619 16.182,-18.468 24.491,-27.509 72.816,-84.058 79.181,-93.696 89.096,-113.326 5.13,-11.971 8.868,-25.607 5.378,-38.536 z"
   id="path18" />
	<path
   d="m 949.581,65.357 c -9.004,3.254 -18.219,8.607 -22.206,17.76 -4.645,8.669 -6.818,20.703 0.335,28.664 4.569,-6.548 13.571,-23.826 48.025,-16.158 18.592,6.023 36.128,15.015 52.546,25.584 20.462,12.134 93.964,66.394 93.964,66.394 2.745,1.515 4.831,-1.788 6.706,-3.279 -8.619,-8.756 -18.468,-16.182 -27.509,-24.491 -84.057,-72.816 -93.696,-79.181 -113.326,-89.096 -11.97,-5.13 -25.606,-8.868 -38.535,-5.378 z"
   id="path20" />
	<path
   d="m 65.357,676.288 c 3.254,9.004 8.607,18.219 17.76,22.206 8.669,4.645 20.703,6.818 28.664,-0.335 -6.548,-4.569 -23.826,-13.571 -16.157,-48.025 6.023,-18.592 15.015,-36.128 25.584,-52.546 12.134,-20.462 66.394,-93.964 66.394,-93.964 1.515,-2.745 -1.788,-4.831 -3.279,-6.706 -8.756,8.619 -16.182,18.467 -24.491,27.509 -72.816,84.057 -79.181,93.696 -89.096,113.326 -5.131,11.97 -8.869,25.606 -5.379,38.535 z"
   id="path22" />
	<path
   d="m 676.288,1560.512 c 9.004,-3.254 18.219,-8.606 22.206,-17.76 4.645,-8.669 6.818,-20.703 -0.335,-28.664 -4.569,6.549 -13.571,23.826 -48.025,16.158 -18.592,-6.023 -36.128,-15.015 -52.546,-25.584 -20.462,-12.134 -93.965,-66.394 -93.965,-66.394 -2.745,-1.515 -4.831,1.788 -6.706,3.279 8.619,8.756 18.468,16.182 27.509,24.491 84.057,72.816 93.696,79.181 113.326,89.096 11.971,5.13 25.607,8.868 38.536,5.378 z"
   id="path24" />
	<path
   d="m 1379.078,259.682 c -2.084,-2.206 -4.23,-4.37 -6.51,-6.382 -2.011,-2.28 -4.176,-4.426 -6.382,-6.51 -5.204,2.62 -8.433,7.688 -12.73,11.413 -9.137,7.978 -19.437,15.421 -29.987,22.094 4.473,2.829 8.902,5.797 13.215,8.886 3.089,4.314 6.056,8.742 8.886,13.215 6.673,-10.549 14.115,-20.85 22.094,-29.987 3.727,-4.296 8.794,-7.525 11.414,-12.729 z"
   id="path26" />
	<path
   d="m 1366.187,1379.078 c 2.206,-2.084 4.37,-4.23 6.382,-6.51 2.279,-2.011 4.426,-4.176 6.51,-6.382 -2.621,-5.204 -7.688,-8.433 -11.413,-12.73 -7.978,-9.137 -15.421,-19.437 -22.094,-29.987 -2.829,4.473 -5.797,8.901 -8.886,13.215 -4.314,3.088 -8.742,6.056 -13.215,8.886 10.55,6.673 20.85,14.116 29.987,22.094 4.296,3.727 7.525,8.794 12.729,11.414 z"
   id="path28" />
	<path
   d="m 246.791,1366.187 c 2.084,2.206 4.23,4.37 6.51,6.382 2.011,2.28 4.176,4.426 6.382,6.51 5.204,-2.62 8.433,-7.688 12.73,-11.413 9.137,-7.978 19.438,-15.421 29.987,-22.094 -4.473,-2.829 -8.902,-5.797 -13.215,-8.886 -3.088,-4.314 -6.056,-8.742 -8.886,-13.215 -6.673,10.549 -14.116,20.85 -22.094,29.987 -3.727,4.296 -8.794,7.525 -11.414,12.729 z"
   id="path30" />
	<path
   d="m 259.682,246.791 c -2.206,2.084 -4.37,4.23 -6.382,6.51 -2.279,2.011 -4.426,4.176 -6.51,6.382 2.62,5.204 7.688,8.433 11.413,12.73 7.978,9.137 15.421,19.437 22.094,29.987 2.829,-4.473 5.797,-8.902 8.886,-13.215 4.314,-3.088 8.742,-6.056 13.215,-8.886 -10.549,-6.673 -20.85,-14.116 -29.987,-22.094 -4.296,-3.727 -7.525,-8.794 -12.729,-11.414 z"
   id="path32" />
	<path
   d="m 1463.691,499.487 c -5.75,-4.011 -10.817,-9.029 -17.101,-12.27 -1.143,2.062 -3.614,4.831 -1.403,7.042 4.198,4.943 9.55,8.718 14.27,13.127 86.512,79.323 83.679,78.084 85.606,101.304 18.3,-4.355 21.705,-29.936 7.315,-43.927 -15.569,-14.86 -53.65,-38.93 -88.687,-65.276 z"
   id="path34" />
	<path
   d="m 507.385,166.413 c 79.323,-86.512 78.084,-83.679 101.304,-85.606 -4.355,-18.3 -29.936,-21.705 -43.927,-7.315 -14.859,15.568 -38.93,53.65 -65.276,88.686 -4.011,5.75 -9.029,10.817 -12.27,17.101 2.062,1.143 4.831,3.614 7.042,1.403 4.943,-4.197 8.718,-9.55 13.127,-14.269 z"
   id="path36" />
	<path
   d="m 162.178,1126.382 c 5.75,4.011 10.817,9.029 17.101,12.27 1.143,-2.061 3.614,-4.831 1.403,-7.042 -4.198,-4.943 -9.55,-8.718 -14.27,-13.127 -86.512,-79.323 -83.679,-78.084 -85.606,-101.304 -18.3,4.355 -21.705,29.936 -7.315,43.927 15.569,14.86 53.65,38.93 88.687,65.276 z"
   id="path38" />
	<path
   d="m 1061.107,1552.377 c 14.86,-15.568 38.93,-53.65 65.276,-88.686 4.011,-5.75 9.029,-10.817 12.27,-17.101 -2.062,-1.143 -4.831,-3.614 -7.042,-1.403 -4.943,4.198 -8.718,9.55 -13.127,14.27 -79.323,86.512 -78.084,83.679 -101.304,85.606 4.355,18.299 29.935,21.705 43.927,7.314 z"
   id="path40" />
	<path
   d="m 1545.062,1017.18 c -1.927,23.22 0.906,21.982 -85.606,101.304 -4.719,4.409 -10.072,8.184 -14.27,13.127 -2.211,2.21 0.261,4.98 1.403,7.042 6.284,-3.241 11.351,-8.259 17.101,-12.27 35.037,-26.346 73.118,-50.416 88.686,-65.276 14.392,-13.992 10.986,-39.572 -7.314,-43.927 z"
   id="path42" />
	<path
   d="m 1017.18,80.807 c 23.22,1.927 21.982,-0.906 101.304,85.606 4.409,4.719 8.184,10.072 13.127,14.27 2.211,2.211 4.98,-0.261 7.042,-1.403 -3.241,-6.284 -8.259,-11.351 -12.27,-17.101 -26.346,-35.036 -50.416,-73.118 -65.276,-88.686 -13.992,-14.392 -39.572,-10.986 -43.927,7.314 z"
   id="path44" />
	<path
   d="m 80.807,608.69 c 1.927,-23.22 -0.906,-21.982 85.606,-101.304 4.719,-4.409 10.072,-8.184 14.27,-13.127 2.211,-2.211 -0.261,-4.98 -1.403,-7.042 -6.284,3.241 -11.351,8.259 -17.101,12.27 -35.037,26.346 -73.118,50.416 -88.686,65.276 -14.392,13.991 -10.986,39.571 7.314,43.927 z"
   id="path46" />
	<path
   d="m 608.69,1545.063 c -23.22,-1.927 -21.982,0.906 -101.304,-85.606 -4.409,-4.719 -8.184,-10.072 -13.127,-14.27 -2.211,-2.211 -4.98,0.261 -7.042,1.403 3.241,6.284 8.259,11.351 12.27,17.101 26.346,35.037 50.416,73.118 65.276,88.686 13.991,14.391 39.571,10.985 43.927,-7.314 z"
   id="path48" />
	<path
   d="m 1450.378,482.882 c 5.663,5.328 12.581,9.004 18.84,13.549 31.238,22.719 35.162,22.812 52.534,33.209 8.681,4.409 17.362,10.805 27.621,9.861 9.463,-1.018 13.972,-13.922 8.371,-21.187 -7.4,-8.598 -23.011,-7.686 -44.561,-14.953 -25.269,-6.789 -51.97,-24.496 -61.587,-28.142 -1.33,2.174 -4.087,5.589 -1.218,7.663 z"
   id="path50" />
	<path
   d="m 518.314,68.127 c -8.599,7.4 -7.686,23.011 -14.953,44.56 -6.789,25.269 -24.496,51.971 -28.142,61.587 2.173,1.329 5.589,4.086 7.663,1.217 5.328,-5.663 9.004,-12.581 13.549,-18.84 22.719,-31.238 22.813,-35.162 33.209,-52.534 4.409,-8.681 10.805,-17.362 9.861,-27.62 -1.018,-9.463 -13.921,-13.972 -21.187,-8.37 z"
   id="path52" />
	<path
   d="m 175.491,1142.987 c -5.663,-5.328 -12.581,-9.004 -18.84,-13.549 -31.238,-22.719 -35.162,-22.813 -52.534,-33.209 -8.681,-4.409 -17.362,-10.805 -27.621,-9.861 -9.464,1.019 -13.972,13.922 -8.371,21.188 7.4,8.599 23.011,7.686 44.56,14.953 25.269,6.789 51.971,24.496 61.587,28.142 1.331,-2.175 4.088,-5.59 1.219,-7.664 z"
   id="path54" />
	<path
   d="m 1107.555,1557.743 c 8.599,-7.4 7.686,-23.011 14.953,-44.56 6.789,-25.269 24.496,-51.971 28.142,-61.587 -2.173,-1.329 -5.589,-4.086 -7.663,-1.217 -5.328,5.663 -9.004,12.581 -13.549,18.84 -22.719,31.238 -22.813,35.162 -33.209,52.534 -4.409,8.681 -10.805,17.362 -9.861,27.62 1.018,9.462 13.921,13.971 21.187,8.37 z"
   id="path56" />
	<path
   d="m 1513.182,1122.508 c 21.549,-7.267 37.16,-6.354 44.561,-14.953 5.601,-7.265 1.093,-20.169 -8.371,-21.188 -10.258,-0.944 -18.939,5.452 -27.621,9.861 -17.372,10.397 -21.295,10.49 -52.534,33.209 -6.259,4.545 -13.177,8.221 -18.84,13.549 -2.869,2.074 -0.112,5.489 1.217,7.663 9.618,-3.645 36.319,-21.352 61.588,-28.141 z"
   id="path58" />
	<path
   d="m 1107.555,68.127 c -7.265,-5.601 -20.169,-1.093 -21.187,8.371 -0.944,10.258 5.452,18.939 9.861,27.62 10.397,17.372 10.49,21.295 33.209,52.534 4.545,6.259 8.222,13.177 13.549,18.84 2.074,2.869 5.49,0.112 7.663,-1.217 -3.646,-9.617 -21.353,-36.318 -28.142,-61.587 -7.267,-21.55 -6.355,-37.161 -14.953,-44.561 z"
   id="path60" />
	<path
   d="m 112.687,503.361 c -21.549,7.267 -37.16,6.354 -44.56,14.953 -5.601,7.265 -1.093,20.169 8.371,21.187 10.258,0.944 18.939,-5.452 27.621,-9.861 17.372,-10.397 21.295,-10.49 52.534,-33.209 6.259,-4.545 13.177,-8.222 18.84,-13.549 2.869,-2.074 0.112,-5.489 -1.217,-7.663 -9.619,3.646 -36.32,21.353 -61.589,28.142 z"
   id="path62" />
	<path
   d="m 518.314,1557.743 c 7.265,5.601 20.169,1.093 21.187,-8.371 0.944,-10.258 -5.452,-18.939 -9.861,-27.62 -10.397,-17.372 -10.49,-21.295 -33.209,-52.534 -4.545,-6.259 -8.222,-13.177 -13.549,-18.84 -2.074,-2.869 -5.489,-0.112 -7.663,1.217 3.646,9.617 21.353,36.318 28.142,61.587 7.267,21.549 6.355,37.16 14.953,44.561 z"
   id="path64" />
	<path
   d="m 1444.478,451.834 c -4.223,14.916 -8.507,30.502 -18.716,42.573 -3.105,3.043 0.509,6.458 2.471,8.867 6.618,-5.485 18.815,-26.121 23.336,-49.851 -2.036,-1.614 -4.557,-2.074 -7.091,-1.589 z"
   id="path66" />
	<path
   d="m 453.423,174.299 c -1.614,2.037 -2.074,4.558 -1.59,7.091 14.916,4.223 30.502,8.507 42.573,18.716 3.043,3.105 6.458,-0.509 8.867,-2.471 -5.484,-6.618 -26.12,-18.815 -49.85,-23.336 z"
   id="path68" />
	<path
   d="m 181.391,1174.035 c 4.223,-14.916 8.507,-30.502 18.716,-42.573 3.105,-3.043 -0.509,-6.458 -2.471,-8.867 -6.618,5.485 -18.815,26.121 -23.336,49.851 2.036,1.614 4.557,2.074 7.091,1.589 z"
   id="path70" />
	<path
   d="m 1172.446,1451.57 c 1.615,-2.037 2.074,-4.558 1.59,-7.091 -14.916,-4.223 -30.502,-8.507 -42.573,-18.716 -3.043,-3.105 -6.458,0.509 -8.867,2.471 5.484,6.618 26.12,18.815 49.85,23.336 z"
   id="path72" />
	<path
   d="m 1428.234,1122.595 c -1.962,2.409 -5.576,5.824 -2.471,8.867 10.209,12.072 14.493,27.658 18.716,42.573 2.534,0.484 5.055,0.025 7.092,-1.589 -4.522,-23.73 -16.719,-44.366 -23.337,-49.851 z"
   id="path74" />
	<path
   d="m 1122.595,197.635 c 2.409,1.962 5.825,5.576 8.867,2.471 12.072,-10.209 27.658,-14.493 42.573,-18.716 0.484,-2.534 0.025,-5.055 -1.59,-7.091 -23.729,4.521 -44.365,16.718 -49.85,23.336 z"
   id="path76" />
	<path
   d="m 197.635,503.275 c 1.962,-2.409 5.576,-5.825 2.471,-8.867 -10.209,-12.072 -14.493,-27.658 -18.716,-42.573 -2.534,-0.484 -5.055,-0.025 -7.091,1.59 4.521,23.728 16.718,44.364 23.336,49.85 z"
   id="path78" />
	<path
   d="m 503.274,1428.234 c -2.409,-1.962 -5.825,-5.576 -8.867,-2.471 -12.072,10.208 -27.658,14.493 -42.573,18.716 -0.484,2.533 -0.025,5.055 1.59,7.091 23.729,-4.521 44.365,-16.718 49.85,-23.336 z"
   id="path80" />
	<path
   d="m 1539.188,477.343 c -30.194,7.1 -68.667,-7.268 -84.079,-12.208 -1.143,1.453 -1.863,3.117 -2.086,4.918 15.735,9.153 32.539,16.456 49.603,22.752 12.283,4.272 25.211,8.035 38.363,6.52 16.615,-2.245 25.897,-21.911 13.686,-33.346 -4.881,4.136 -8.805,10.06 -15.487,11.364 z"
   id="path82" />
	<path
   d="m 465.979,71.194 c 4.136,4.881 10.06,8.805 11.364,15.487 7.1,30.194 -7.268,68.667 -12.208,84.079 1.453,1.143 3.117,1.863 4.918,2.086 9.153,-15.735 16.456,-32.539 22.752,-49.603 4.272,-12.283 8.035,-25.211 6.52,-38.363 C 497.08,68.265 477.414,58.983 465.979,71.194 Z"
   id="path84" />
	<path
   d="m 86.681,1148.526 c 30.194,-7.1 68.667,7.268 84.079,12.208 1.143,-1.453 1.863,-3.117 2.086,-4.918 -15.735,-9.153 -32.539,-16.456 -49.603,-22.752 -12.283,-4.272 -25.211,-8.035 -38.363,-6.52 -16.615,2.245 -25.897,21.911 -13.686,33.346 4.881,-4.136 8.805,-10.06 15.487,-11.364 z"
   id="path86" />
	<path
   d="m 1159.89,1554.675 c -4.136,-4.881 -10.06,-8.805 -11.364,-15.487 -7.1,-30.194 7.268,-68.667 12.208,-84.079 -1.453,-1.143 -3.117,-1.863 -4.918,-2.086 -9.153,15.735 -16.456,32.539 -22.752,49.603 -4.272,12.283 -8.035,25.211 -6.52,38.363 2.245,16.615 21.911,25.897 33.346,13.686 z"
   id="path88" />
	<path
   d="m 1540.989,1126.544 c -13.152,-1.515 -26.081,2.248 -38.363,6.52 -17.064,6.297 -33.867,13.599 -49.603,22.752 0.224,1.801 0.944,3.465 2.086,4.918 15.412,-4.94 53.884,-19.308 84.079,-12.208 6.682,1.304 10.606,7.228 15.487,11.364 12.211,-11.435 2.929,-31.101 -13.686,-33.346 z"
   id="path90" />
	<path
   d="m 1126.544,84.88 c -1.515,13.152 2.248,26.081 6.52,38.363 6.297,17.064 13.599,33.867 22.752,49.603 1.801,-0.224 3.465,-0.944 4.918,-2.086 -4.94,-15.412 -19.308,-53.884 -12.208,-84.079 1.304,-6.682 7.228,-10.606 11.364,-15.487 -11.435,-12.211 -31.101,-2.929 -33.346,13.686 z"
   id="path92" />
	<path
   d="m 84.88,499.325 c 13.152,1.515 26.081,-2.248 38.363,-6.52 17.064,-6.297 33.867,-13.599 49.603,-22.752 -0.224,-1.801 -0.944,-3.465 -2.086,-4.918 -15.412,4.94 -53.884,19.308 -84.079,12.208 -6.682,-1.304 -10.606,-7.228 -15.487,-11.364 -12.211,11.435 -2.929,31.101 13.686,33.346 z"
   id="path94" />
	<path
   d="m 499.325,1540.989 c 1.515,-13.152 -2.248,-26.08 -6.52,-38.363 -6.297,-17.064 -13.599,-33.867 -22.752,-49.603 -1.801,0.224 -3.465,0.944 -4.918,2.086 4.94,15.412 19.308,53.885 12.208,84.079 -1.304,6.682 -7.228,10.606 -11.364,15.487 11.435,12.211 31.101,2.929 33.346,-13.686 z"
   id="path96" />
	<path
   d="m 1384.195,414.973 c -3.378,-3.825 -5.353,-8.843 -9.563,-11.91 1.583,17.738 30.076,54.396 40.859,68.815 3.738,5.477 5.378,11.972 7.787,18.058 4.993,-3.415 4.049,-10.022 4.794,-15.263 2.248,-1.552 6.16,-2.149 6.433,-5.415 -0.037,-3.192 -1.341,-6.21 -2.248,-9.252 3.453,-2.72 8.234,-5.849 7.576,-10.904 -21.584,-5.018 -41.256,-17.325 -55.638,-34.129 z"
   id="path98" />
	<path
   d="m 489.936,202.59 c -3.415,-4.993 -10.022,-4.049 -15.263,-4.794 -1.552,-2.248 -2.149,-6.16 -5.415,-6.433 -3.192,0.037 -6.21,1.341 -9.252,2.248 -2.72,-3.453 -5.849,-8.234 -10.904,-7.576 -5.017,21.585 -17.325,41.257 -34.128,55.638 -3.825,3.378 -8.843,5.353 -11.91,9.563 17.738,-1.583 54.396,-30.076 68.815,-40.859 5.476,-3.738 11.972,-5.377 18.057,-7.787 z"
   id="path100" />
	<path
   d="m 241.674,1210.896 c 3.378,3.825 5.353,8.843 9.563,11.91 -1.583,-17.738 -30.076,-54.396 -40.859,-68.815 -3.738,-5.477 -5.378,-11.972 -7.787,-18.057 -4.993,3.415 -4.049,10.022 -4.794,15.263 -2.248,1.552 -6.16,2.149 -6.433,5.415 0.037,3.192 1.341,6.21 2.248,9.252 -3.453,2.72 -8.234,5.849 -7.576,10.904 21.584,5.017 41.256,17.325 55.638,34.128 z"
   id="path102" />
	<path
   d="m 1176.768,1439.834 c 5.017,-21.585 17.325,-41.257 34.128,-55.639 3.825,-3.378 8.843,-5.353 11.91,-9.563 -17.738,1.583 -54.396,30.076 -68.815,40.859 -5.477,3.738 -11.972,5.378 -18.057,7.787 3.415,4.992 10.022,4.049 15.263,4.794 1.552,2.248 2.149,6.16 5.415,6.433 3.192,-0.037 6.21,-1.341 9.252,-2.248 2.719,3.453 5.849,8.235 10.904,7.577 z"
   id="path104" />
	<path
   d="m 1384.195,1210.896 c 14.382,-16.803 34.054,-29.111 55.638,-34.128 0.658,-5.055 -4.123,-8.184 -7.576,-10.904 0.906,-3.043 2.211,-6.061 2.248,-9.252 -0.273,-3.266 -4.185,-3.863 -6.433,-5.415 -0.745,-5.241 0.199,-11.848 -4.794,-15.263 -2.409,6.085 -4.049,12.581 -7.787,18.057 -10.783,14.42 -39.276,51.077 -40.859,68.815 4.21,-3.068 6.185,-8.085 9.563,-11.91 z"
   id="path106" />
	<path
   d="m 1210.896,241.674 c -16.803,-14.382 -29.111,-34.054 -34.128,-55.638 -5.055,-0.658 -8.184,4.123 -10.904,7.576 -3.043,-0.907 -6.061,-2.211 -9.252,-2.248 -3.266,0.273 -3.863,4.185 -5.415,6.433 -5.241,0.745 -11.848,-0.199 -15.263,4.794 6.085,2.409 12.581,4.049 18.057,7.787 14.42,10.783 51.077,39.276 68.815,40.859 -3.068,-4.21 -8.085,-6.185 -11.91,-9.563 z"
   id="path108" />
	<path
   d="m 241.674,414.973 c -14.382,16.803 -34.054,29.111 -55.638,34.128 -0.658,5.055 4.123,8.184 7.576,10.904 -0.907,3.043 -2.211,6.061 -2.248,9.252 0.273,3.266 4.185,3.863 6.433,5.415 0.745,5.241 -0.199,11.848 4.794,15.263 2.409,-6.086 4.049,-12.581 7.787,-18.058 10.783,-14.419 39.276,-51.077 40.859,-68.815 -4.21,3.069 -6.185,8.086 -9.563,11.911 z"
   id="path110" />
	<path
   d="m 414.973,1384.195 c 16.803,14.382 29.111,34.054 34.128,55.639 5.055,0.658 8.184,-4.123 10.904,-7.576 3.043,0.907 6.061,2.211 9.252,2.248 3.266,-0.273 3.862,-4.185 5.415,-6.433 5.241,-0.745 11.848,0.199 15.263,-4.794 -6.086,-2.409 -12.581,-4.049 -18.058,-7.787 -14.42,-10.783 -51.077,-39.276 -68.815,-40.859 3.069,4.21 8.086,6.184 11.911,9.562 z"
   id="path112" />
	<path
   d="m 1544.317,417.42 c -0.484,4.297 -0.124,9.054 -2.956,12.63 -8.694,12.717 -23.957,18.443 -38.177,22.529 -15.238,3.502 -31.061,3.005 -46.56,1.937 -1.031,1.987 -1.9,4.061 -2.62,6.16 14.3,6.495 81.465,16.482 100.05,-11.923 3.751,-5.378 4.968,-12.345 3.813,-18.766 -1.553,-6.246 -6.744,-12.294 -13.55,-12.567 z"
   id="path114" />
	<path
   d="m 448.754,71.815 c -5.378,-3.751 -12.345,-4.968 -18.766,-3.813 -6.247,1.552 -12.295,6.744 -12.568,13.549 4.297,0.484 9.054,0.124 12.63,2.956 12.717,8.693 18.443,23.957 22.529,38.177 3.502,15.238 3.005,31.061 1.937,46.56 1.987,1.031 4.061,1.9 6.16,2.62 6.496,-14.299 16.482,-81.464 -11.922,-100.049 z"
   id="path116" />
	<path
   d="m 81.552,1208.449 c 0.484,-4.297 0.124,-9.054 2.956,-12.63 8.693,-12.717 23.957,-18.443 38.177,-22.529 15.238,-3.502 31.061,-3.005 46.56,-1.937 1.031,-1.987 1.9,-4.061 2.62,-6.16 -14.3,-6.495 -81.465,-16.482 -100.05,11.923 -3.751,5.377 -4.968,12.345 -3.813,18.766 1.553,6.246 6.744,12.294 13.55,12.567 z"
   id="path118" />
	<path
   d="m 1177.115,1554.054 c 5.377,3.751 12.345,4.968 18.766,3.813 6.247,-1.552 12.295,-6.744 12.568,-13.549 -4.297,-0.484 -9.054,-0.124 -12.631,-2.956 -12.717,-8.694 -18.443,-23.957 -22.529,-38.177 -3.502,-15.239 -3.005,-31.061 -1.937,-46.56 -1.987,-1.031 -4.061,-1.9 -6.16,-2.62 -6.495,14.299 -16.481,81.464 11.923,100.049 z"
   id="path120" />
	<path
   d="m 1557.867,1195.881 c 1.155,-6.421 -0.062,-13.388 -3.813,-18.766 -18.585,-28.405 -85.75,-18.418 -100.05,-11.923 0.72,2.099 1.59,4.173 2.62,6.16 15.499,-1.068 31.322,-1.565 46.56,1.937 14.22,4.086 29.483,9.811 38.177,22.529 2.832,3.577 2.471,8.333 2.956,12.63 6.806,-0.272 11.997,-6.32 13.55,-12.567 z"
   id="path122" />
	<path
   d="m 1195.881,68.002 c -6.421,-1.155 -13.388,0.062 -18.766,3.813 -28.405,18.585 -18.418,85.75 -11.923,100.05 2.099,-0.72 4.173,-1.59 6.16,-2.62 -1.068,-15.499 -1.565,-31.321 1.937,-46.56 4.086,-14.22 9.811,-29.483 22.529,-38.177 3.577,-2.832 8.333,-2.471 12.631,-2.956 -0.273,-6.806 -6.321,-11.997 -12.568,-13.55 z"
   id="path124" />
	<path
   d="m 68.002,429.988 c -1.155,6.421 0.062,13.388 3.813,18.766 18.585,28.405 85.75,18.418 100.05,11.923 -0.72,-2.099 -1.59,-4.173 -2.62,-6.16 -15.499,1.068 -31.321,1.565 -46.56,-1.937 -14.22,-4.086 -29.483,-9.811 -38.177,-22.529 -2.832,-3.577 -2.471,-8.333 -2.956,-12.63 -6.806,0.272 -11.997,6.32 -13.55,12.567 z"
   id="path126" />
	<path
   d="m 429.988,1557.867 c 6.421,1.155 13.388,-0.062 18.766,-3.813 28.404,-18.585 18.418,-85.75 11.923,-100.05 -2.099,0.72 -4.173,1.59 -6.16,2.62 1.068,15.499 1.565,31.322 -1.937,46.56 -4.086,14.22 -9.811,29.483 -22.529,38.177 -3.577,2.832 -8.333,2.471 -12.63,2.956 0.272,6.806 6.32,11.997 12.567,13.55 z"
   id="path128" />
	<path
   d="m 1429.724,303.436 c -12.494,16.654 -16.219,40.872 -5.837,59.476 4.036,6.856 9.426,12.904 15.561,17.934 7.576,6.036 17.635,7.352 27.012,7.663 19.523,0.522 36.6,-18.207 35.358,-37.457 -2.476,-22.426 -26.384,-30.217 -37.295,-19.026 -2.583,2.496 -2.869,6.21 -2.869,9.575 3.068,-1.341 5.651,-3.614 8.78,-4.819 6.284,-0.633 12.022,3.999 14.704,9.376 3.192,9.824 -1.826,22.169 -11.997,25.497 -28.663,8.283 -45.548,-21.446 -38.972,-43.852 14.924,-43.463 81.237,-44.631 97.926,10.035 10.375,26.958 -4.664,58.537 -26.441,72.504 -12.792,7.986 -27.633,14.146 -43.008,12.879 -27.434,-1.652 -54.496,-16.418 -68.629,-40.375 -27.708,-52.321 -0.464,-86.927 6.533,-101.95 -3.862,-3.676 -7.079,-8.333 -12.072,-10.581 -19.34,23.822 -28.689,60.286 -21.088,91.903 4.125,27.971 28.875,61.683 70.02,75.398 49.084,16.549 106.641,-17.135 113.512,-70.057 3.477,-21.92 -3.962,-44.797 -17.486,-62.096 -24.32,-30.883 -75.749,-36.092 -103.712,-2.027 z"
   id="path130" />
	<path
   d="m 367.556,74.945 c -21.92,-3.477 -44.797,3.962 -62.097,17.486 -30.88,24.322 -36.089,75.751 -2.024,103.714 16.654,12.494 40.872,16.22 59.476,5.837 6.855,-4.036 12.904,-9.426 17.934,-15.561 6.036,-7.576 7.352,-17.635 7.663,-27.012 0.521,-19.523 -18.207,-36.6 -37.457,-35.358 -22.426,2.476 -30.217,26.384 -19.026,37.295 2.496,2.583 6.21,2.869 9.575,2.869 -1.341,-3.068 -3.614,-5.651 -4.819,-8.78 -0.633,-6.284 3.999,-12.022 9.376,-14.704 9.824,-3.192 22.169,1.826 25.497,11.997 8.283,28.663 -21.446,45.548 -43.852,38.972 -43.463,-14.924 -44.631,-81.237 10.035,-97.926 26.958,-10.375 58.537,4.664 72.504,26.441 7.986,12.792 14.146,27.633 12.879,43.008 -1.652,27.434 -16.418,54.496 -40.375,68.629 -52.321,27.708 -86.927,0.464 -101.95,-6.533 -3.676,3.862 -8.333,7.079 -10.581,12.072 23.822,19.34 60.286,28.689 91.903,21.088 27.971,-4.125 61.683,-28.875 75.398,-70.02 C 454.163,139.373 420.478,81.816 367.556,74.945 Z"
   id="path132" />
	<path
   d="m 196.145,1322.434 c 12.494,-16.654 16.22,-40.872 5.837,-59.476 -4.036,-6.855 -9.426,-12.904 -15.561,-17.933 -7.576,-6.036 -17.635,-7.352 -27.012,-7.663 -19.523,-0.521 -36.6,18.207 -35.358,37.457 2.476,22.426 26.384,30.217 37.295,19.026 2.583,-2.496 2.869,-6.21 2.869,-9.575 -3.068,1.341 -5.651,3.614 -8.78,4.819 -6.284,0.633 -12.022,-3.999 -14.704,-9.377 -3.192,-9.824 1.826,-22.168 11.997,-25.497 28.663,-8.283 45.548,21.446 38.972,43.853 -14.924,43.463 -81.237,44.631 -97.926,-10.035 -10.375,-26.958 4.664,-58.537 26.441,-72.504 12.792,-7.986 27.633,-14.146 43.008,-12.879 27.434,1.652 54.496,16.418 68.629,40.375 27.708,52.321 0.464,86.927 -6.533,101.95 3.862,3.676 7.079,8.333 12.072,10.581 19.34,-23.822 28.689,-60.286 21.088,-91.903 -4.125,-27.971 -28.875,-61.683 -70.02,-75.398 -49.084,-16.549 -106.642,17.135 -113.512,70.057 -3.477,21.92 3.962,44.796 17.486,62.096 24.32,30.882 75.749,36.091 103.712,2.026 z"
   id="path134" />
	<path
   d="m 1258.313,1550.924 c 21.92,3.477 44.797,-3.962 62.097,-17.486 30.88,-24.322 36.089,-75.751 2.024,-103.714 -16.654,-12.494 -40.872,-16.22 -59.476,-5.837 -6.855,4.036 -12.904,9.426 -17.934,15.561 -6.036,7.576 -7.352,17.635 -7.663,27.012 -0.521,19.523 18.207,36.6 37.457,35.358 22.426,-2.476 30.217,-26.384 19.026,-37.295 -2.496,-2.583 -6.21,-2.869 -9.575,-2.869 1.342,3.068 3.614,5.651 4.819,8.78 0.633,6.284 -3.999,12.022 -9.376,14.704 -9.824,3.192 -22.169,-1.826 -25.497,-11.997 -8.283,-28.663 21.446,-45.548 43.852,-38.972 43.464,14.924 44.631,81.237 -10.035,97.926 -26.958,10.375 -58.537,-4.664 -72.504,-26.441 -7.986,-12.792 -14.146,-27.633 -12.879,-43.008 1.652,-27.434 16.418,-54.496 40.375,-68.629 52.321,-27.708 86.927,-0.464 101.95,6.533 3.676,-3.862 8.333,-7.079 10.581,-12.072 -23.822,-19.34 -60.286,-28.689 -91.903,-21.088 -27.971,4.125 -61.683,28.875 -75.397,70.02 -16.549,49.086 17.136,106.643 70.058,113.514 z"
   id="path136" />
	<path
   d="m 1533.438,1320.409 c 13.525,-17.3 20.964,-40.176 17.486,-62.096 -6.871,-52.922 -64.429,-86.607 -113.512,-70.057 -41.145,13.715 -65.895,47.427 -70.02,75.398 -7.601,31.617 1.748,68.081 21.088,91.903 4.992,-2.248 8.209,-6.905 12.072,-10.581 -6.997,-15.023 -34.24,-49.629 -6.533,-101.95 14.133,-23.957 41.195,-38.724 68.629,-40.375 15.375,-1.267 30.216,4.893 43.008,12.879 21.776,13.967 36.816,45.546 26.441,72.504 -16.689,54.666 -83.002,53.498 -97.926,10.035 -6.576,-22.406 10.309,-52.135 38.972,-43.853 10.171,3.328 15.189,15.673 11.997,25.497 -2.683,5.378 -8.42,10.01 -14.704,9.377 -3.13,-1.205 -5.713,-3.477 -8.78,-4.819 0,3.366 0.286,7.079 2.869,9.575 10.911,11.19 34.82,3.4 37.295,-19.026 1.242,-19.25 -15.835,-37.978 -35.358,-37.457 -9.376,0.311 -19.436,1.627 -27.012,7.663 -6.135,5.03 -11.525,11.078 -15.561,17.933 -10.383,18.604 -6.657,42.822 5.837,59.476 27.961,34.064 79.39,28.855 103.712,-2.026 z"
   id="path138" />
	<path
   d="m 1284.269,164.215 c 3.366,0 7.079,-0.286 9.575,-2.869 11.191,-10.911 3.4,-34.82 -19.026,-37.295 -19.25,-1.242 -37.978,15.835 -37.457,35.358 0.311,9.377 1.627,19.436 7.663,27.012 5.03,6.135 11.078,11.525 17.934,15.561 18.604,10.383 42.822,6.657 59.476,-5.837 34.065,-27.963 28.856,-79.392 -2.024,-103.714 -17.3,-13.525 -40.176,-20.964 -62.097,-17.486 -52.922,6.871 -86.606,64.429 -70.057,113.512 13.715,41.145 47.427,65.895 75.397,70.02 31.617,7.601 68.081,-1.748 91.903,-21.088 -2.248,-4.993 -6.905,-8.209 -10.581,-12.072 -15.023,6.997 -49.629,34.24 -101.95,6.533 -23.957,-14.133 -38.723,-41.195 -40.375,-68.629 -1.267,-15.375 4.893,-30.216 12.879,-43.008 13.967,-21.776 45.546,-36.816 72.504,-26.441 54.666,16.689 53.498,83.003 10.035,97.926 -22.406,6.576 -52.135,-10.309 -43.852,-38.972 3.328,-10.171 15.673,-15.189 25.497,-11.997 5.377,2.683 10.01,8.42 9.376,14.704 -1.206,3.131 -3.479,5.714 -4.82,8.782 z"
   id="path140" />
	<path
   d="m 92.431,305.46 c -13.525,17.3 -20.964,40.176 -17.486,62.096 6.871,52.922 64.429,86.607 113.512,70.057 41.145,-13.715 65.895,-47.427 70.02,-75.398 7.601,-31.617 -1.748,-68.081 -21.088,-91.903 -4.993,2.248 -8.209,6.905 -12.072,10.581 6.997,15.023 34.24,49.629 6.533,101.95 -14.133,23.957 -41.195,38.723 -68.629,40.375 -15.375,1.267 -30.216,-4.893 -43.008,-12.879 -21.776,-13.967 -36.816,-45.546 -26.441,-72.504 16.689,-54.666 83.003,-53.498 97.926,-10.035 6.576,22.406 -10.309,52.135 -38.972,43.852 -10.171,-3.328 -15.189,-15.673 -11.997,-25.497 2.683,-5.378 8.42,-10.01 14.704,-9.376 3.13,1.205 5.713,3.477 8.78,4.819 0,-3.366 -0.286,-7.079 -2.869,-9.575 -10.911,-11.191 -34.82,-3.4 -37.295,19.026 -1.242,19.25 15.835,37.978 35.358,37.457 9.377,-0.31 19.436,-1.627 27.012,-7.663 6.135,-5.03 11.525,-11.078 15.561,-17.934 10.383,-18.604 6.657,-42.822 -5.837,-59.476 -27.961,-34.062 -79.39,-28.853 -103.712,2.027 z"
   id="path142" />
	<path
   d="m 305.46,1533.438 c 17.3,13.525 40.176,20.964 62.097,17.486 52.922,-6.871 86.607,-64.429 70.057,-113.512 -13.715,-41.145 -47.427,-65.895 -75.398,-70.02 -31.617,-7.601 -68.081,1.748 -91.903,21.088 2.248,4.993 6.905,8.209 10.581,12.072 15.024,-6.997 49.629,-34.24 101.95,-6.533 23.957,14.133 38.723,41.195 40.375,68.629 1.267,15.375 -4.893,30.216 -12.879,43.008 -13.967,21.776 -45.546,36.816 -72.504,26.441 -54.666,-16.689 -53.498,-83.003 -10.035,-97.926 22.407,-6.576 52.135,10.309 43.852,38.972 -3.328,10.171 -15.673,15.189 -25.497,11.997 -5.378,-2.682 -10.01,-8.42 -9.376,-14.704 1.205,-3.13 3.477,-5.713 4.819,-8.78 -3.366,0 -7.079,0.286 -9.575,2.869 -11.19,10.911 -3.4,34.82 19.026,37.295 19.25,1.242 37.978,-15.834 37.457,-35.358 -0.31,-9.377 -1.627,-19.436 -7.663,-27.012 -5.03,-6.135 -11.078,-11.525 -17.934,-15.561 -18.604,-10.383 -42.822,-6.657 -59.476,5.837 -34.064,27.961 -28.854,79.39 2.026,103.712 z"
   id="path144" />
	<path
   d="m 1387.111,238.758 c -16.935,-17.082 -33.641,-34.069 -33.641,-34.069 -2.409,-0.807 -4.049,1.813 -5.676,3.105 -1.751,1.85 -5.154,4.943 -2.36,7.377 15.301,16.063 25.069,25.551 32.549,32.715 7.164,7.48 16.652,17.248 32.715,32.549 2.434,2.794 5.527,-0.609 7.377,-2.36 1.292,-1.627 3.912,-3.266 3.105,-5.676 0,10e-4 -16.987,-16.706 -34.069,-33.641 z"
   id="path146" />
	<path
   d="m 1418.075,1347.794 c -1.851,-1.751 -4.943,-5.154 -7.377,-2.36 -16.063,15.301 -25.551,25.069 -32.715,32.549 -7.48,7.164 -17.248,16.652 -32.549,32.715 -2.794,2.434 0.609,5.527 2.36,7.377 1.627,1.292 3.266,3.912 5.676,3.105 0,0 16.706,-16.987 33.641,-34.069 17.082,-16.935 34.069,-33.642 34.069,-33.642 0.807,-2.409 -1.813,-4.048 -3.105,-5.675 z"
   id="path148" />
	<path
   d="m 272.4,1421.18 c 2.409,0.807 4.049,-1.813 5.676,-3.105 1.751,-1.85 5.154,-4.943 2.36,-7.377 -15.301,-16.063 -25.069,-25.551 -32.549,-32.715 -7.164,-7.48 -16.652,-17.248 -32.715,-32.549 -2.434,-2.794 -5.527,0.609 -7.377,2.36 -1.292,1.627 -3.912,3.266 -3.105,5.676 0,0 16.987,16.707 34.069,33.642 16.934,17.081 33.641,34.068 33.641,34.068 z"
   id="path150" />
	<path
   d="m 207.794,278.075 c 1.85,1.751 4.943,5.154 7.377,2.36 16.063,-15.301 25.551,-25.069 32.715,-32.549 7.48,-7.164 17.248,-16.652 32.549,-32.715 2.794,-2.434 -0.609,-5.527 -2.36,-7.377 -1.627,-1.292 -3.266,-3.912 -5.676,-3.105 0,0 -16.706,16.987 -33.642,34.069 -17.082,16.935 -34.069,33.642 -34.069,33.642 -0.806,2.409 1.814,4.048 3.106,5.675 z"
   id="path152" />
	<path
   d="m 1605.383,240.606 c 5.104,-5.998 5.874,-14.68 3.937,-22.069 -7.314,-19.654 -32.566,-29.923 -53.416,-32.166 -24.975,-2.173 -50.422,-0.745 -74.665,5.862 -4.036,0.633 -4.483,5.34 -3.639,8.557 10.865,-0.299 55.105,-9.405 90.698,13.959 7.452,5.204 15.946,11.066 18.045,20.517 1.726,5.228 -0.199,10.569 -0.994,15.748 8.236,1.031 14.992,-4.608 20.034,-10.408 z"
   id="path154" />
	<path
   d="m 200.79,148.268 c -0.299,-10.865 -9.405,-55.105 13.959,-90.698 5.204,-7.452 11.066,-15.946 20.517,-18.045 5.228,-1.726 10.569,0.199 15.748,0.994 1.031,-8.234 -4.608,-14.99 -10.407,-20.032 -5.998,-5.104 -14.68,-5.874 -22.069,-3.937 -19.654,7.314 -29.923,32.566 -32.166,53.415 -2.173,24.975 -0.745,50.422 5.862,74.665 0.632,4.036 5.339,4.483 8.556,3.638 z"
   id="path156" />
	<path
   d="m 148.268,1425.079 c -10.865,0.299 -55.105,9.405 -90.698,-13.959 -7.452,-5.204 -15.946,-11.066 -18.045,-20.517 -1.726,-5.229 0.199,-10.569 0.994,-15.748 -8.234,-1.031 -14.99,4.608 -20.032,10.407 -5.104,5.999 -5.874,14.679 -3.937,22.069 7.314,19.654 32.566,29.923 53.415,32.166 24.975,2.173 50.422,0.745 74.665,-5.862 4.036,-0.632 4.483,-5.339 3.638,-8.556 z"
   id="path158" />
	<path
   d="m 1425.079,1477.601 c 0.299,10.865 9.405,55.105 -13.959,90.698 -5.204,7.452 -11.066,15.946 -20.517,18.045 -5.229,1.726 -10.569,-0.199 -15.748,-0.994 -1.031,8.234 4.608,14.99 10.407,20.032 5.999,5.104 14.68,5.874 22.069,3.937 19.654,-7.314 29.923,-32.566 32.166,-53.415 2.173,-24.975 0.745,-50.422 -5.862,-74.665 -0.632,-4.036 -5.339,-4.483 -8.556,-3.638 z"
   id="path160" />
	<path
   d="m 1568.299,1411.12 c -35.593,23.364 -79.833,14.259 -90.698,13.959 -0.844,3.217 -0.397,7.924 3.639,8.557 24.242,6.607 49.69,8.035 74.665,5.862 20.849,-2.243 46.102,-12.512 53.416,-32.166 1.937,-7.39 1.167,-16.071 -3.937,-22.069 -5.042,-5.8 -11.798,-11.438 -20.032,-10.407 0.795,5.179 2.72,10.519 0.994,15.748 -2.101,9.45 -10.596,15.312 -18.047,20.516 z"
   id="path162" />
	<path
   d="m 1390.603,39.525 c 9.451,2.099 15.313,10.594 20.517,18.045 23.364,35.593 14.259,79.833 13.959,90.698 3.217,0.845 7.923,0.397 8.557,-3.639 6.607,-24.242 8.035,-49.69 5.862,-74.665 -2.243,-20.849 -12.512,-46.102 -32.166,-53.415 -7.389,-1.937 -16.071,-1.167 -22.069,3.937 -5.8,5.042 -11.438,11.798 -10.407,20.032 5.178,-0.794 10.519,-2.719 15.747,-0.993 z"
   id="path164" />
	<path
   d="m 57.57,214.749 c 35.593,-23.364 79.833,-14.259 90.698,-13.959 0.845,-3.217 0.397,-7.924 -3.639,-8.557 -24.242,-6.607 -49.69,-8.035 -74.665,-5.862 -20.849,2.243 -46.102,12.512 -53.415,32.166 -1.937,7.39 -1.167,16.071 3.937,22.069 5.042,5.8 11.798,11.438 20.032,10.407 -0.795,-5.179 -2.72,-10.519 -0.994,-15.748 2.1,-9.45 10.595,-15.312 18.046,-20.516 z"
   id="path166" />
	<path
   d="m 235.266,1586.344 c -9.451,-2.099 -15.313,-10.594 -20.517,-18.045 -23.364,-35.593 -14.259,-79.833 -13.959,-90.698 -3.217,-0.844 -7.924,-0.397 -8.557,3.639 -6.607,24.243 -8.035,49.69 -5.862,74.665 2.242,20.849 12.512,46.102 32.166,53.415 7.39,1.938 16.071,1.167 22.069,-3.937 5.8,-5.042 11.438,-11.798 10.407,-20.032 -5.178,0.795 -10.519,2.72 -15.747,0.993 z"
   id="path168" />
	<path
   d="m 1460.847,165.023 c 0.013,-0.549 0.013,-1.1 0,-1.652 -18.146,0 -22.867,7.837 -28.763,12.693 -3.304,-3.453 -5.676,-8.52 -10.743,-9.575 -3.726,8.097 -6.52,16.642 -11.153,24.305 -6.992,12.469 -15.164,24.23 -22.38,36.562 1.591,1.962 3.269,3.859 5.054,5.651 1.793,1.786 3.69,3.464 5.651,5.055 12.333,-7.216 24.094,-15.388 36.563,-22.38 7.663,-4.632 16.207,-7.427 24.305,-11.153 -1.056,-5.067 -6.123,-7.439 -9.575,-10.743 4.855,-5.896 12.693,-10.617 12.693,-28.763 -0.552,-0.014 -1.103,-0.013 -1.652,0 z"
   id="path170" />
	<path
   d="m 1459.382,1421.341 c -8.097,-3.726 -16.642,-6.52 -24.305,-11.152 -12.469,-6.992 -24.23,-15.164 -36.563,-22.38 -1.961,1.591 -3.858,3.269 -5.651,5.054 -1.786,1.793 -3.464,3.69 -5.054,5.651 7.216,12.332 15.388,24.094 22.38,36.563 4.632,7.663 7.427,16.207 11.153,24.304 5.067,-1.056 7.439,-6.123 10.743,-9.575 5.896,4.855 10.617,12.693 28.763,12.693 0.013,-0.552 0.013,-1.103 0,-1.652 0.549,0.013 1.1,0.013 1.652,0 0,-18.146 -7.837,-22.867 -12.693,-28.763 3.452,-3.304 8.519,-5.676 9.575,-10.743 z"
   id="path172" />
	<path
   d="m 215.681,1435.077 c 6.992,-12.469 15.164,-24.23 22.38,-36.563 -1.591,-1.962 -3.269,-3.859 -5.055,-5.651 -1.793,-1.786 -3.69,-3.464 -5.651,-5.054 -12.332,7.216 -24.093,15.387 -36.562,22.38 -7.663,4.632 -16.207,7.427 -24.305,11.152 1.056,5.067 6.123,7.439 9.575,10.743 -4.856,5.896 -12.693,10.617 -12.693,28.763 0.552,0.013 1.103,0.013 1.652,0 -0.013,0.549 -0.013,1.1 0,1.652 18.146,0 22.867,-7.837 28.763,-12.693 3.304,3.453 5.676,8.52 10.743,9.575 3.726,-8.097 6.52,-16.641 11.153,-24.304 z"
   id="path174" />
	<path
   d="m 166.487,204.528 c 8.097,3.726 16.642,6.52 24.305,11.153 12.469,6.992 24.23,15.164 36.562,22.38 1.962,-1.591 3.859,-3.269 5.651,-5.055 1.786,-1.793 3.464,-3.69 5.055,-5.651 -7.216,-12.332 -15.388,-24.093 -22.38,-36.562 -4.632,-7.663 -7.427,-16.207 -11.153,-24.305 -5.067,1.056 -7.439,6.123 -10.743,9.575 -5.896,-4.856 -10.617,-12.693 -28.763,-12.693 -0.013,0.552 -0.013,1.103 0,1.652 -0.549,-0.013 -1.1,-0.013 -1.652,0 0,18.146 7.837,22.867 12.693,28.763 -3.452,3.304 -8.519,5.676 -9.575,10.743 z"
   id="path176" />
	<path
   d="m 1470.77,202.864 c 4.21,-15.772 5.328,-32.588 2.968,-48.746 -0.536,-0.133 -1.073,-0.258 -1.611,-0.377 -0.119,-0.538 -0.244,-1.075 -0.377,-1.61 -16.157,-2.36 -32.973,-1.242 -48.746,2.968 -0.075,2.385 -2.322,6.272 0.72,7.489 11.538,-3.788 23.746,-5.365 35.892,-4.819 2.186,0.087 4.309,0.795 6.421,1.453 0.023,0.18 0.046,0.36 0.068,0.541 0.18,0.022 0.36,0.045 0.541,0.068 0.658,2.111 1.366,4.235 1.453,6.421 0.546,12.146 -1.031,24.354 -4.819,35.892 1.218,3.042 5.106,0.794 7.49,0.72 z"
   id="path178" />
	<path
   d="m 1466.647,1466.038 c -0.18,0.023 -0.36,0.046 -0.541,0.068 -0.022,0.18 -0.045,0.361 -0.068,0.541 -2.111,0.658 -4.235,1.366 -6.421,1.453 -12.146,0.546 -24.354,-1.031 -35.892,-4.819 -3.043,1.217 -0.795,5.104 -0.72,7.489 15.772,4.21 32.588,5.328 48.746,2.968 0.133,-0.536 0.258,-1.073 0.377,-1.61 0.538,-0.119 1.075,-0.245 1.611,-0.377 2.36,-16.157 1.242,-32.973 -2.968,-48.746 -2.385,-0.074 -6.272,-2.322 -7.489,0.72 3.788,11.538 5.365,23.746 4.819,35.892 -0.088,2.186 -0.796,4.31 -1.454,6.421 z"
   id="path180" />
	<path
   d="m 155.099,1423.005 c -4.21,15.772 -5.328,32.588 -2.968,48.746 0.536,0.132 1.073,0.258 1.611,0.377 0.119,0.538 0.244,1.075 0.377,1.61 16.158,2.36 32.973,1.242 48.746,-2.968 0.075,-2.385 2.322,-6.272 -0.72,-7.489 -11.538,3.788 -23.746,5.365 -35.892,4.819 -2.186,-0.087 -4.309,-0.795 -6.421,-1.453 -0.023,-0.18 -0.046,-0.36 -0.068,-0.541 -0.18,-0.022 -0.361,-0.045 -0.541,-0.068 -0.658,-2.111 -1.366,-4.235 -1.453,-6.421 -0.546,-12.146 1.031,-24.354 4.819,-35.892 -1.218,-3.042 -5.106,-0.794 -7.49,-0.72 z"
   id="path182" />
	<path
   d="m 159.222,159.831 c 0.18,-0.023 0.36,-0.046 0.541,-0.068 0.022,-0.18 0.045,-0.361 0.068,-0.541 2.111,-0.658 4.235,-1.366 6.421,-1.453 12.146,-0.546 24.354,1.031 35.892,4.819 3.043,-1.217 0.795,-5.104 0.72,-7.489 -15.772,-4.21 -32.588,-5.328 -48.746,-2.968 -0.133,0.536 -0.258,1.073 -0.377,1.61 -0.538,0.119 -1.075,0.244 -1.611,0.377 -2.36,16.157 -1.242,32.973 2.968,48.746 2.385,0.075 6.272,2.322 7.489,-0.72 -3.788,-11.538 -5.365,-23.746 -4.819,-35.892 0.088,-2.186 0.796,-4.31 1.454,-6.421 z"
   id="path184" />
	<path
   d="m 1593.212,148.877 c -10.42,-2.757 -21.461,-3.13 -32.042,-1.018 -15.735,2.807 -31.098,7.613 -45.778,13.934 -11.761,4.62 -23.485,9.401 -34.911,14.816 -0.522,2.943 -0.82,5.924 -0.844,8.892 8.221,-0.782 15.909,-4.036 23.994,-5.477 17.226,-3.018 34.625,-6.297 52.198,-5.489 19.749,1.781 41.784,2.487 55.34,-11.935 -4.246,-6.333 -10.381,-11.897 -17.957,-13.723 z"
   id="path186" />
	<path
   d="m 161.793,110.476 c 4.62,11.761 9.401,23.485 14.816,34.911 2.943,0.522 5.924,0.82 8.892,0.845 -0.782,-8.222 -4.036,-15.909 -5.477,-23.994 -3.018,-17.226 -6.297,-34.625 -5.489,-52.198 1.781,-19.749 2.487,-41.784 -11.935,-55.34 -6.334,4.247 -11.898,10.383 -13.723,17.958 -2.757,10.42 -3.13,21.461 -1.018,32.042 2.807,15.734 7.613,31.097 13.934,45.776 z"
   id="path188" />
	<path
   d="m 70.039,1451.333 c -19.749,-1.781 -41.784,-2.487 -55.34,11.935 4.247,6.334 10.383,11.898 17.958,13.723 10.42,2.757 21.461,3.13 32.042,1.018 15.735,-2.807 31.098,-7.613 45.778,-13.935 11.761,-4.62 23.485,-9.401 34.911,-14.816 0.522,-2.943 0.82,-5.924 0.844,-8.892 -8.222,0.782 -15.909,4.036 -23.994,5.477 -17.226,3.019 -34.626,6.298 -52.199,5.49 z"
   id="path190" />
	<path
   d="m 1464.076,1515.393 c -4.62,-11.761 -9.401,-23.485 -14.816,-34.911 -2.943,-0.522 -5.924,-0.82 -8.892,-0.844 0.782,8.222 4.036,15.909 5.477,23.994 3.018,17.226 6.297,34.625 5.489,52.198 -1.781,19.749 -2.487,41.784 11.935,55.34 6.334,-4.247 11.898,-10.383 13.723,-17.958 2.757,-10.42 3.13,-21.461 1.018,-32.042 -2.807,-15.735 -7.613,-31.098 -13.934,-45.777 z"
   id="path192" />
	<path
   d="m 1555.83,1451.333 c -17.573,0.807 -34.973,-2.471 -52.198,-5.489 -8.085,-1.441 -15.773,-4.694 -23.994,-5.477 0.025,2.968 0.323,5.949 0.844,8.892 11.426,5.415 23.15,10.196 34.911,14.816 14.68,6.322 30.042,11.128 45.778,13.935 10.581,2.111 21.622,1.739 32.042,-1.018 7.576,-1.826 13.711,-7.39 17.958,-13.723 -13.557,-14.423 -35.592,-13.716 -55.341,-11.936 z"
   id="path194" />
	<path
   d="m 1440.367,146.232 c 2.968,-0.025 5.949,-0.323 8.892,-0.845 5.415,-11.426 10.196,-23.15 14.816,-34.911 6.321,-14.68 11.128,-30.042 13.934,-45.778 2.111,-10.581 1.739,-21.622 -1.018,-32.042 -1.826,-7.576 -7.39,-13.711 -13.723,-17.958 -14.422,13.556 -13.716,35.591 -11.935,55.34 0.807,17.573 -2.471,34.973 -5.489,52.198 -1.44,8.086 -4.694,15.774 -5.477,23.996 z"
   id="path196" />
	<path
   d="m 70.039,174.536 c 17.573,-0.807 34.973,2.471 52.198,5.489 8.085,1.44 15.773,4.694 23.994,5.477 -0.025,-2.968 -0.323,-5.949 -0.844,-8.892 -11.426,-5.415 -23.15,-10.196 -34.911,-14.816 -14.68,-6.321 -30.042,-11.128 -45.778,-13.934 -10.581,-2.111 -21.622,-1.739 -32.042,1.018 -7.576,1.826 -13.711,7.39 -17.958,13.723 13.557,14.422 35.592,13.715 55.341,11.935 z"
   id="path198" />
	<path
   d="m 185.502,1479.638 c -2.968,0.025 -5.949,0.323 -8.892,0.844 -5.415,11.426 -10.196,23.15 -14.816,34.911 -6.321,14.68 -11.128,30.042 -13.934,45.778 -2.111,10.581 -1.739,21.622 1.018,32.042 1.826,7.576 7.39,13.711 13.723,17.958 14.422,-13.556 13.716,-35.591 11.935,-55.34 -0.807,-17.573 2.471,-34.973 5.489,-52.198 1.44,-8.086 4.694,-15.774 5.477,-23.995 z"
   id="path200" />
	<path
   d="m 1483.326,158.316 c -4.483,2.881 -4.26,8.495 -3.303,13.09 12.566,-7.033 30.481,-20.918 61.302,-33.408 9.228,-3.651 19.113,-5.179 28.44,-8.532 12.084,-4.148 25.671,-6.694 34.799,-16.418 3.142,-3.825 7.104,-7.911 7.042,-13.214 -30.162,-16.134 -51.165,-1.502 -128.28,58.482 z"
   id="path202" />
	<path
   d="m 171.406,145.847 c -7.033,-12.566 -20.918,-30.481 -33.408,-61.302 -3.651,-9.228 -5.179,-19.113 -8.532,-28.44 -4.148,-12.084 -6.694,-25.671 -16.418,-34.799 -3.825,-3.142 -7.911,-7.104 -13.214,-7.042 -16.134,30.161 -1.502,51.164 58.482,128.279 2.881,4.483 8.495,4.26 13.09,3.304 z"
   id="path204" />
	<path
   d="m 142.543,1467.553 c 4.483,-2.881 4.26,-8.495 3.304,-13.09 -12.566,7.033 -30.481,20.918 -61.302,33.408 -9.228,3.651 -19.113,5.179 -28.44,8.532 -12.084,4.148 -25.671,6.694 -34.799,16.418 -3.142,3.825 -7.104,7.911 -7.042,13.214 30.161,16.134 51.164,1.502 128.279,-58.482 z"
   id="path206" />
	<path
   d="m 1454.463,1480.022 c 7.032,12.566 20.918,30.481 33.408,61.302 3.651,9.228 5.179,19.113 8.532,28.44 4.148,12.084 6.694,25.671 16.418,34.799 3.825,3.142 7.911,7.104 13.214,7.042 16.133,-30.161 1.501,-51.164 -58.483,-128.279 -2.88,-4.483 -8.494,-4.26 -13.089,-3.304 z"
   id="path208" />
	<path
   d="m 1569.764,1496.403 c -9.327,-3.353 -19.213,-4.881 -28.44,-8.532 -30.82,-12.49 -48.736,-26.375 -61.302,-33.408 -0.956,4.595 -1.18,10.209 3.303,13.09 77.115,59.984 98.118,74.616 128.279,58.482 0.062,-5.303 -3.9,-9.389 -7.042,-13.214 -9.127,-9.724 -22.713,-12.27 -34.798,-16.418 z"
   id="path210" />
	<path
   d="m 1467.553,142.543 c 59.984,-77.115 74.616,-98.118 58.483,-128.279 -5.303,-0.062 -9.389,3.9 -13.214,7.042 -9.724,9.128 -12.27,22.715 -16.418,34.799 -3.353,9.327 -4.881,19.213 -8.532,28.44 -12.49,30.821 -26.375,48.736 -33.408,61.302 4.594,0.956 10.208,1.179 13.089,-3.304 z"
   id="path212" />
	<path
   d="m 56.105,129.466 c 9.327,3.353 19.213,4.881 28.44,8.532 30.82,12.49 48.736,26.375 61.302,33.408 0.956,-4.595 1.18,-10.209 -3.304,-13.09 C 65.428,98.332 44.425,83.7 14.264,99.833 c -0.062,5.303 3.9,9.389 7.042,13.214 9.128,9.725 22.715,12.271 34.799,16.419 z"
   id="path214" />
	<path
   d="m 158.316,1483.326 c -59.983,77.115 -74.616,98.118 -58.482,128.279 5.303,0.062 9.389,-3.9 13.214,-7.042 9.724,-9.128 12.27,-22.715 16.418,-34.799 3.353,-9.327 4.881,-19.213 8.532,-28.44 12.49,-30.821 26.375,-48.736 33.408,-61.302 -4.595,-0.956 -10.209,-1.179 -13.09,3.304 z"
   id="path216" />
	<path
   d="m 1475.692,150.177 c 1.349,1.597 2.681,3.206 3.722,5.021 25.161,-22.765 49.739,-46.336 77.174,-66.406 18.951,-13.584 57.1,-37.719 54.148,-73.66 -35.941,-2.951 -60.076,35.197 -73.66,54.148 -20.07,27.434 -43.641,52.012 -66.406,77.174 1.816,1.042 3.425,2.374 5.022,3.723 z"
   id="path218" />
	<path
   d="m 1556.588,1537.076 c -27.434,-20.07 -52.012,-43.641 -77.174,-66.406 -1.041,1.816 -2.373,3.424 -3.722,5.021 -1.597,1.349 -3.206,2.681 -5.021,3.722 22.764,25.161 46.336,49.739 66.406,77.173 13.584,18.951 37.719,57.1 73.66,54.149 2.95,-35.94 -35.198,-60.075 -54.149,-73.659 z"
   id="path220" />
	<path
   d="m 150.177,1475.692 c -1.349,-1.597 -2.681,-3.206 -3.722,-5.021 -25.162,22.765 -49.739,46.336 -77.174,66.406 -18.951,13.584 -57.1,37.719 -54.148,73.66 35.941,2.951 60.076,-35.197 73.66,-54.149 20.07,-27.434 43.641,-52.012 66.406,-77.173 -1.816,-1.042 -3.425,-2.374 -5.022,-3.723 z"
   id="path222" />
	<path
   d="m 69.281,88.793 c 27.434,20.07 52.012,43.641 77.174,66.406 1.041,-1.816 2.373,-3.424 3.722,-5.021 1.597,-1.349 3.206,-2.681 5.021,-3.722 C 132.433,121.295 108.862,96.717 88.792,69.282 75.208,50.331 51.073,12.182 15.132,15.134 12.182,51.074 50.33,75.209 69.281,88.793 Z"
   id="path224" />
</g></svg>
